<svg width="134" height="38" viewBox="0 0 134 38" fill="none" xmlns="http://www.w3.org/2000/svg">
<g clip-path="url(#clip0_1_15)">
<path fill-rule="evenodd" clip-rule="evenodd" d="M0 15.5536V3.47073L1.55538 2.05678L3.11076 0.642822V12.5972V24.68H8.29537H13.48L14.2577 26.094C14.6465 26.8652 15.0354 27.6365 15.0354 27.6365C15.0354 27.6365 11.6654 27.6365 7.51768 27.6365H0V15.5536Z" fill="black"/>
<path fill-rule="evenodd" clip-rule="evenodd" d="M40.3106 27.5081C39.4033 27.5081 38.6256 27.251 37.8479 26.9939C36.4221 26.4798 34.9963 25.58 33.9594 24.4231C32.9225 23.2662 32.2744 21.8523 32.0152 20.4383C31.756 19.41 31.756 18.2531 31.8856 17.3533C32.1448 16.325 32.5337 15.1681 33.0521 14.2684C33.8298 12.8544 35.126 11.8261 36.5517 11.0548C37.5887 10.5407 38.6256 10.2836 39.6625 10.155C39.9217 10.155 40.6994 10.155 41.0883 10.155C42.1252 10.2836 43.0325 10.4121 43.8102 10.7977C44.7175 11.1834 45.3656 11.569 46.1432 12.2117C46.4025 12.4688 47.0506 12.9829 47.1802 13.3686C47.8283 14.0113 48.2171 14.7825 48.6059 15.6823C48.8652 16.325 49.1244 17.0963 49.254 17.996C49.254 18.2531 49.254 19.2815 49.254 19.5385C49.1244 20.5669 48.9948 21.4667 48.4763 22.495C47.8283 23.9089 46.6617 25.1944 45.3656 26.0941C44.0694 26.9939 42.6436 27.5081 40.9586 27.5081C40.9586 27.5081 40.4402 27.5081 40.3106 27.5081ZM41.4771 24.4231C42.514 24.166 43.4213 23.7804 44.3286 23.1377C44.7175 22.8806 45.1063 22.495 45.3656 21.8523C46.0136 20.824 46.4025 19.9242 46.4025 18.7673C46.4025 17.8675 46.1433 17.0963 45.7544 16.325C45.2359 15.2967 44.5879 14.5254 43.5509 14.0113C42.7733 13.4971 42.1252 13.3686 41.2179 13.24C40.9586 13.24 40.3106 13.24 40.0513 13.24C39.4033 13.3686 38.7552 13.4971 38.1071 13.8827C37.3294 14.2684 36.6813 14.7825 36.2925 15.2967C35.6444 16.1965 35.2556 17.2248 34.9963 18.2531C34.9963 18.6388 34.9963 19.2815 34.9963 19.6671C35.2556 20.9525 36.0333 22.3665 36.9406 23.1377C37.9775 23.9089 38.8848 24.2946 40.0513 24.4231C40.4402 24.5517 41.2179 24.4231 41.4771 24.4231Z" fill="black"/>
<path fill-rule="evenodd" clip-rule="evenodd" d="M50.4196 27.5081C50.4196 18.1246 50.4196 18.1246 50.4196 17.8675C50.5493 16.9677 50.6789 16.1965 51.0677 15.4252C51.327 14.7825 51.7158 14.0113 52.2343 13.3686C52.4935 12.9829 53.0119 12.4688 53.5304 12.0831C53.7896 11.8261 54.4377 11.4404 54.8266 11.1834C55.8635 10.5407 57.1596 10.155 58.3262 10.155C58.5854 10.155 59.3631 10.155 59.7519 10.155C60.9185 10.2836 61.9554 10.4121 63.1219 11.0548C63.5108 11.3119 63.77 11.3119 64.1588 11.6975C64.6773 11.9546 64.9365 12.3402 65.5846 12.8544C66.1031 13.3686 66.3623 13.6256 66.7512 14.2684C67.0104 14.5254 67.14 14.9111 67.3992 15.2967C67.9177 16.325 68.0473 17.2248 68.1769 18.2531C68.1769 18.6388 68.1769 19.5385 68.1769 19.9242C67.9177 21.3381 67.5288 22.6235 66.7512 23.909C66.3623 24.5517 65.9735 24.9373 65.3254 25.4514C64.1589 26.4798 62.6035 27.3796 61.0481 27.6367C59.6223 27.8937 57.9373 27.8937 56.6412 27.3796C55.6043 27.1225 54.6969 26.6083 53.9193 25.9656L53.66 25.7085V29.5648V33.6781L52.2343 35.092L50.5493 36.7631L50.4196 27.5081ZM59.4927 24.4231C60.2704 24.4231 60.9185 24.166 61.6962 23.7804C63.1219 23.0092 64.4181 21.5952 64.6773 19.9242C64.8069 19.5385 64.8069 19.2815 64.8069 18.8958C64.8069 18.5102 64.8069 18.2531 64.6773 17.8675C64.4181 16.7106 63.8996 15.5538 62.9923 14.7825C62.6035 14.3969 62.085 14.0113 61.5665 13.7542C60.9185 13.4971 60.4 13.24 59.7519 13.24C59.4927 13.24 58.715 13.24 58.5854 13.24C57.9373 13.3686 57.5485 13.4971 57.03 13.6256C56.5116 13.8827 56.1227 14.1398 55.7339 14.3969C54.8266 15.0396 54.0489 16.325 53.7896 17.4819C53.5304 18.3817 53.5304 19.41 53.7896 20.3098C54.1785 21.7237 55.2154 23.0092 56.6412 23.7804C57.5485 24.166 58.4558 24.4231 59.4927 24.4231Z" fill="black"/>
<path fill-rule="evenodd" clip-rule="evenodd" d="M92.6752 27.508L84.6391 10.5405L90.0829 15.9393L95.0083 25.8369L97.8598 19.667L94.7491 13.7541L99.2856 18.253L103.693 13.7541L100.711 19.5384L103.563 25.4513L108.618 15.2966L113.803 10.5405L105.637 27.508H101.489L99.4152 22.8805L96.9525 27.508H92.6752Z" fill="black"/>
<path fill-rule="evenodd" clip-rule="evenodd" d="M21.9047 10.155C26.7005 10.155 30.7186 14.1398 30.7186 18.8958C30.7186 19.2815 30.7186 19.6671 30.5889 20.0527H27.6078H23.5897H16.0721C16.5905 22.7521 18.9236 24.6802 21.7751 24.6802C23.9786 24.6802 25.7932 23.5233 26.8301 21.8523H30.0705C28.904 25.1944 25.6636 27.6366 21.7751 27.6366C16.9794 27.6366 12.9613 23.6519 12.9613 18.8958C12.9613 14.1398 16.9794 10.155 21.9047 10.155ZM16.5905 16.7106H27.3486C26.4413 14.654 24.3674 13.24 22.0343 13.24C19.442 12.9829 17.3682 14.5254 16.5905 16.7106Z" fill="black"/>
<path fill-rule="evenodd" clip-rule="evenodd" d="M77.6399 10.155C82.4357 10.155 86.4538 14.1398 86.4538 18.8958V27.6366H83.4726V25.4514C81.9172 26.8654 79.973 27.6366 77.6399 27.6366C72.8442 27.6366 68.8261 23.6519 68.8261 18.8958C68.8261 14.1398 72.7146 10.155 77.6399 10.155ZM77.6399 13.24C74.5292 13.24 71.9369 15.8108 71.9369 18.8958C71.9369 21.9808 74.5292 24.5517 77.6399 24.5517C80.7507 24.5517 83.343 21.9808 83.343 18.8958C83.343 15.8108 80.7507 13.24 77.6399 13.24Z" fill="black"/>
<path fill-rule="evenodd" clip-rule="evenodd" d="M110.173 27.5077L118.339 11.0544L123.912 12.7255L125.338 18.7669C125.338 18.7669 110.303 27.5077 110.173 27.5077ZM118.728 20.5665C121.19 19.1525 123.264 17.8671 123.264 17.8671L122.357 14.1394L118.987 13.1111L114.062 23.2659C114.191 23.2659 116.265 22.109 118.728 20.5665Z" fill="black"/>
<path fill-rule="evenodd" clip-rule="evenodd" d="M125.726 18.6385C125.596 18.3814 124.3 12.597 124.3 12.597L128.318 8.22662L133.503 15.4249C133.632 15.2964 125.985 18.6385 125.726 18.6385ZM129.096 15.5535C130.262 15.0393 131.17 14.6537 131.17 14.6537C131.17 14.6537 128.448 10.7974 128.448 10.6689C128.448 10.6689 128.189 10.926 127.411 11.8258C126.763 12.4685 126.374 12.9827 126.374 12.9827C126.374 12.9827 126.374 13.2397 126.763 14.6537C127.022 15.682 127.152 16.3247 127.152 16.3247C127.022 16.3247 127.929 15.9391 129.096 15.5535ZM121.189 11.3116C123.782 12.0829 123.911 12.0829 123.911 12.0829C124.041 12.0829 128.059 7.71246 128.059 7.71246C128.059 7.71246 126.633 6.42704 124.819 4.88455L121.578 2.05664C121.449 2.31372 118.467 10.5404 118.467 10.5404C118.467 10.5404 119.634 10.926 121.189 11.3116ZM124.559 8.86933L125.726 7.71246C125.726 7.71246 124.948 7.06975 123.911 6.2985C122.874 5.52726 122.226 4.88455 122.097 4.88455L121.319 7.19829C120.801 8.48371 120.541 9.51204 120.541 9.51204C120.541 9.51204 120.93 9.64058 121.967 10.0262C122.745 10.2833 123.393 10.5404 123.393 10.5404C123.522 10.1547 123.911 9.76912 124.559 8.86933Z" fill="black"/>
</g>
<defs>
<clipPath id="clip0_1_15">
<rect width="133.504" height="37.277" fill="white"/>
</clipPath>
</defs>
</svg>
