<svg width="16" height="16" viewBox="0 0 16 16" fill="none" xmlns="http://www.w3.org/2000/svg">
<path fill-rule="evenodd" clip-rule="evenodd" d="M0.462677 8.0398C0.462677 6.07748 1.27322 4.19553 2.71599 2.80797C4.15876 1.4204 6.11557 0.640869 8.15596 0.640869C10.1963 0.640869 12.1532 1.4204 13.5959 2.80797C15.0387 4.19553 15.8492 6.07748 15.8492 8.0398C15.8492 10.0021 15.0387 11.8841 13.5959 13.2716C12.1532 14.6592 10.1963 15.4387 8.15596 15.4387C6.11557 15.4387 4.15876 14.6592 2.71599 13.2716C1.27322 11.8841 0.462677 10.0021 0.462677 8.0398H0.462677ZM7.71693 11.2065L12.1462 5.88128L11.3461 5.26569L7.56922 9.80469L4.89401 7.66097L4.23751 8.41862L7.71693 11.2075V11.2065Z" fill="#41B70A"/>
</svg>
