<svg width="55" height="62" viewBox="0 0 55 62" fill="none" xmlns="http://www.w3.org/2000/svg">
<path d="M53.4826 22.992C53.4346 22.992 53.4346 22.992 53.3866 22.992C51.9941 22.992 50.6017 22.9442 49.2572 22.992C49.0652 22.992 48.9211 22.992 48.8251 22.9442C48.2489 20.1235 47.1445 17.5418 45.608 15.1992C45.704 15.0557 45.8481 14.9123 46.0882 14.6733C47.0005 13.7171 47.9608 12.8087 48.9211 11.8526C47.2405 9.50994 45.1758 7.45417 42.8231 5.78086C41.8627 6.78484 40.8064 7.74102 39.8461 8.745C39.702 8.88842 39.606 8.98404 39.4619 9.03185C37.1571 7.50197 34.5163 6.40238 31.6833 5.87648C31.6353 5.78086 31.6353 5.68525 31.6353 5.58963C31.6833 4.82469 31.6353 4.10756 31.6353 3.34262C31.6353 2.62549 31.6353 1.95617 31.6353 1.23904C30.2428 1.09562 28.8504 1 27.4099 1C25.9694 1 24.5769 1.09562 23.1844 1.33466C23.2325 2.05179 23.1844 2.72111 23.1844 3.43824C23.1844 4.20318 23.1844 4.92031 23.1844 5.68525C23.1844 5.78086 23.1844 5.92429 23.1364 5.9721C20.3035 6.5458 17.6626 7.6454 15.3578 9.12747C15.2138 9.07966 15.1177 8.98404 14.9737 8.84062C14.0134 7.83663 13.005 6.88046 11.9967 5.87648C9.64389 7.54978 7.57919 9.60555 5.89863 11.9482C6.85895 12.8565 7.77126 13.8127 8.73158 14.7689C8.97166 15.0079 9.11571 15.1514 9.21174 15.2948C7.72324 17.5896 6.57085 20.1713 6.04267 22.992C5.89863 23.0398 5.75458 23.0398 5.61053 23.0398C4.21806 22.992 2.82559 23.0398 1.43312 23.0398C1.38511 23.0398 1.38511 23.0398 1.33709 23.0398C1.09701 24.4262 1.00098 25.8605 1.00098 27.3426C1.00098 28.7768 1.09701 30.2111 1.33709 31.5975C1.38511 31.5975 1.43312 31.5975 1.52915 31.5975C2.96964 31.5975 4.41012 31.5975 5.89863 31.5975C5.94664 31.5975 5.99466 31.5975 6.04267 31.5975C6.61887 34.466 7.77126 37.0955 9.30777 39.4381C9.25976 39.5338 9.21174 39.5816 9.11571 39.6772C8.15538 40.5377 7.24308 41.4939 6.28275 42.4023C6.18672 42.4979 6.09069 42.5935 5.99466 42.6891C7.67522 44.9839 9.6919 47.0397 12.0447 48.6652L12.1407 48.5696C13.1491 47.5656 14.1574 46.5616 15.1657 45.5576C15.2618 45.462 15.3098 45.4142 15.4058 45.3664C16.9423 46.3704 18.6229 47.2309 20.4475 47.8047V38.5776C20.2074 38.4342 19.9674 38.2429 19.7273 38.0995C18.5749 37.2867 17.5185 36.235 16.6542 35.0876C15.4538 33.4621 14.6376 31.5497 14.3015 29.4461C14.2054 28.729 14.1094 28.0119 14.1094 27.2947C14.1094 26.5776 14.1574 25.8127 14.3015 25.1434C14.6376 23.0876 15.4538 21.1752 16.6542 19.5497C17.5185 18.3545 18.5269 17.3506 19.7273 16.49C21.3598 15.3426 23.2805 14.5298 25.3452 14.1952C26.0174 14.0996 26.7376 14.0039 27.4579 14.0039C28.1781 14.0039 28.8984 14.0518 29.5706 14.1952C31.6353 14.5298 33.5559 15.3426 35.1885 16.49C36.3889 17.3506 37.3972 18.3545 38.2615 19.5497C39.4139 21.1752 40.2782 23.0876 40.6143 25.1434C40.7103 25.8605 40.8064 26.5776 40.8064 27.2947C40.8064 28.0119 40.7584 28.729 40.6143 29.4461C40.2782 31.5019 39.4619 33.4621 38.2615 35.0876C37.3972 36.235 36.3889 37.2867 35.1885 38.0995C34.9484 38.2907 34.7083 38.4342 34.4682 38.5776V47.8525C36.2448 47.2309 37.9254 46.4182 39.5099 45.4142C39.606 45.462 39.654 45.5098 39.75 45.6055C40.7584 46.6094 41.7667 47.6134 42.775 48.6174C42.8231 48.6652 42.8231 48.6652 42.8711 48.713C45.1758 47.0397 47.2405 45.0318 48.9211 42.7369C48.8251 42.6413 48.729 42.5457 48.633 42.4501C47.7207 41.5417 46.7604 40.5855 45.8481 39.6772C45.752 39.5816 45.704 39.5338 45.656 39.4381C47.2405 37.0955 48.3449 34.466 48.9211 31.5975C48.9691 31.5975 49.0171 31.5975 49.0652 31.5975C50.5056 31.5975 51.9461 31.5975 53.4346 31.5975C53.4826 31.5975 53.5307 31.5975 53.6267 31.5975C53.8668 30.2111 53.9628 28.7768 53.9628 27.3426C53.8188 25.8605 53.7227 24.4262 53.4826 22.992Z" stroke="white" stroke-width="2"/>
<path d="M37.2515 27.4385C37.2515 24.0919 35.571 21.1756 33.0261 19.4066C32.834 19.2632 32.642 19.1676 32.4499 19.0242V19.5501V26.2911C32.4499 27.5819 31.3936 28.6337 30.0971 28.6337H24.7193C23.4229 28.6337 22.3665 27.5819 22.3665 26.2911V19.5979V19.0242C22.1265 19.1676 21.9344 19.311 21.7423 19.4544C19.2455 21.2234 17.613 24.1397 17.5649 27.4385C17.5649 27.5341 17.5649 27.6297 17.5649 27.7732C17.661 30.9764 19.2935 33.7971 21.7423 35.5182C22.1745 35.805 22.6066 36.0441 23.0388 36.2831V56.5062C22.9908 58.8488 24.7673 60.7612 27.1201 61.0002C27.2162 61.0002 27.3122 61.0002 27.3602 61.0002C29.761 61.0002 31.7297 59.0879 31.7297 56.6975V36.2831C32.1618 36.0919 32.5459 35.8528 32.9301 35.566C35.4749 33.8449 37.1555 30.9285 37.2035 27.6775C37.2515 27.5819 37.2515 27.5341 37.2515 27.4385Z" stroke="white" stroke-width="2"/>
</svg>
