<svg width="66" height="62" viewBox="0 0 66 62" fill="none" xmlns="http://www.w3.org/2000/svg">
<path d="M31.8435 29.0758C31.9774 29.1428 32.1782 29.2097 32.379 29.2097C32.5797 29.2097 32.7136 29.1428 32.9144 29.0758C33.3829 28.875 45.0282 23.5878 45.0282 6.38761C45.0282 5.71835 44.5597 5.18293 43.8904 5.116C37.1308 4.37981 33.3159 1.3681 33.249 1.30117C32.7805 0.89961 32.1112 0.89961 31.5758 1.30117C31.5089 1.30117 27.761 4.37981 20.9344 5.04908C20.2652 5.116 19.7967 5.65142 19.7967 6.32069C19.7297 23.5878 31.3751 28.875 31.8435 29.0758Z" stroke="white" stroke-width="2"/>
<path d="M63.0408 36.3036C61.3007 32.2211 55.0765 32.8234 52.6002 33.5596C51.5294 33.8942 50.7932 34.4966 50.1239 35.2327C49.3877 35.9689 42.8958 42.7285 42.8958 42.7285L35.1323 45.6733C33.2583 46.4095 32.2544 48.4842 32.9906 50.425C33.526 51.8974 34.9315 52.7675 36.4039 52.7675C36.8055 52.7675 37.2739 52.7005 37.6755 52.4998L46.2422 49.2204C46.7776 49.0196 47.1791 48.7519 47.5807 48.3503L48.183 47.6811C48.25 52.0313 48.8523 59.4601 48.9192 59.8617C48.9862 60.5309 49.3208 60.9325 50.1239 60.9325C50.927 60.9325 61.6354 60.9325 63.3085 60.9325C63.9778 60.9325 64.4463 60.3971 64.4463 59.7278C64.5801 51.7636 64.9148 40.5869 63.0408 36.3036Z" stroke="white" stroke-width="2"/>
<path d="M55.4101 31.1504C59.8457 31.1504 63.4414 27.5547 63.4414 23.1193C63.4414 18.6838 59.8457 15.0881 55.4101 15.0881C50.9746 15.0881 47.3789 18.6838 47.3789 23.1193C47.3789 27.5547 50.9746 31.1504 55.4101 31.1504Z" stroke="white" stroke-width="2"/>
<path d="M10.168 31.1504C14.6035 31.1504 18.1992 27.5547 18.1992 23.1193C18.1992 18.6838 14.6035 15.0881 10.168 15.0881C5.73242 15.0881 2.13672 18.6838 2.13672 23.1193C2.13672 27.5547 5.73242 31.1504 10.168 31.1504Z" stroke="white" stroke-width="2"/>
<path d="M34.9976 38.3118C34.0607 36.5048 31.8521 35.7686 30.045 36.7056L23.2185 40.1857C23.2185 40.1857 19.4037 37.5756 18.199 36.6386C17.3959 36.1032 15.1873 34.2962 12.9787 33.4931C10.5693 32.69 4.27818 32.1546 2.53808 36.2371C0.664128 40.5873 0.998763 51.764 1.06569 59.7952C1.06569 60.4644 1.53418 60.9998 2.20345 60.9998C3.87662 60.9998 14.5849 60.9998 15.3881 60.9998C16.1912 60.9998 16.4589 60.5314 16.5927 59.929C16.6597 59.5275 17.3959 50.4924 17.3289 46.4768C17.3289 46.0753 17.3289 45.6068 17.3289 45.0714L20.8091 47.4138C21.4115 47.8153 22.1477 48.0161 22.8839 48.0161C23.4862 48.0161 24.0216 47.8823 24.557 47.6146L33.3245 43.1305C35.1984 42.3274 35.8677 40.1188 34.9976 38.3118Z" stroke="white" stroke-width="2"/>
<path d="M27.7969 15.5149L30.5241 19.0301L37.7969 11.9998" stroke="white" stroke-width="2" stroke-linecap="round" stroke-linejoin="round"/>
</svg>
