<svg width="65" height="60" viewBox="0 0 65 60" fill="none" xmlns="http://www.w3.org/2000/svg">
<path d="M19.2632 7.96637C19.2632 11.8097 16.1329 14.9327 12.2622 14.9327C8.39159 14.9327 5.26123 11.8097 5.26123 7.96637C5.26123 4.12303 8.39159 1 12.2622 1C16.1329 1 19.2632 4.12303 19.2632 7.96637Z" stroke="white" stroke-width="2"/>
<path d="M20.4182 21.2331C18.3298 23.2435 16.9298 25.9283 16.5341 29.0146L16.5334 29.0199L15.8802 34.3418C14.7256 34.4271 13.5341 34.4601 12.3036 34.4068L12.282 34.4059H12.2604C8.55934 34.4059 4.94189 34.0709 1.60702 33.3409C1.17107 33.2387 0.960365 32.8696 1.00779 32.5627L1.01033 32.5462L1.01233 32.5297L1.83295 25.7208L1.83298 25.7208L1.83396 25.712C2.25545 21.935 5.44616 19.1113 9.25144 19.1113H15.2009C17.2195 19.1113 19.0589 19.9057 20.4182 21.2331Z" stroke="white" stroke-width="2"/>
<path d="M59.7461 7.96637C59.7461 11.8097 56.6157 14.9327 52.7451 14.9327C48.8745 14.9327 45.7441 11.8097 45.7441 7.96637C45.7441 4.12303 48.8745 1 52.7451 1C56.6157 1 59.7461 4.12303 59.7461 7.96637Z" stroke="white" stroke-width="2"/>
<path d="M63.171 25.6443L63.171 25.6443L63.1719 25.6519L63.9896 32.5045C64.0144 32.9211 63.7649 33.2512 63.4053 33.3395C60.0491 34.0067 56.4961 34.4062 52.7447 34.4062C51.5442 34.4062 50.301 34.362 49.1249 34.274L48.4726 28.9598C48.1385 25.8515 46.6788 23.1664 44.588 21.1645C45.9471 19.8377 47.7861 19.0437 49.8042 19.0437H55.7536C59.4955 19.0437 62.7501 21.8723 63.171 25.6443Z" stroke="white" stroke-width="2"/>
<path d="M42.9285 29.6631L42.9285 29.6631L42.9292 29.6689L43.7469 36.5216C43.7595 36.7356 43.6982 36.95 43.5924 37.11C43.4854 37.2718 43.3672 37.333 43.2798 37.3475L43.2639 37.3502L43.2482 37.3533C39.887 38.0226 36.3282 38.4235 32.5704 38.4235C28.8672 38.4235 25.2477 38.0881 21.9112 37.3572L21.8801 37.3504L21.8487 37.3456C21.534 37.2974 21.2611 36.9474 21.3178 36.5802L21.3205 36.5632L21.3225 36.546L22.1431 29.6689L22.1432 29.6689L22.1438 29.6631C22.564 25.9574 25.7514 23.1287 29.5615 23.1287H35.5109C39.3209 23.1287 42.5083 25.9574 42.9285 29.6631Z" stroke="white" stroke-width="2"/>
<path d="M39.5024 11.9837C39.5024 15.827 36.372 18.9501 32.5014 18.9501C28.6308 18.9501 25.5005 15.827 25.5005 11.9837C25.5005 8.14036 28.6308 5.01733 32.5014 5.01733C36.372 5.01733 39.5024 8.14036 39.5024 11.9837Z" stroke="white" stroke-width="2"/>
<path d="M36.4131 49.064L36.4358 49.0668L36.4587 49.0686L39.9336 49.34C40.2036 49.3698 40.3522 49.5291 40.4049 49.6946C40.4549 49.8513 40.4319 50.0472 40.2159 50.222L40.2081 50.2283L40.2005 50.2347L37.5392 52.4768C37.5381 52.4777 37.537 52.4786 37.5359 52.4796C36.8296 53.0679 36.5014 54.0717 36.7279 54.9827L37.5476 58.3831L37.5501 58.3937L37.5529 58.4043C37.6061 58.6056 37.536 58.7763 37.3717 58.8944C37.2038 59.0152 36.983 59.0426 36.7746 58.9236L33.7755 57.0912L33.7622 57.083L33.7486 57.0753C32.9633 56.6285 31.972 56.6285 31.1867 57.0753L31.1732 57.083L31.1599 57.0912L28.1607 58.9236C27.9523 59.0426 27.7316 59.0152 27.5636 58.8944C27.3994 58.7763 27.3292 58.6056 27.3824 58.4043L27.3852 58.3937L27.3878 58.3831L28.2074 54.9827C28.434 54.0717 28.1057 53.0679 27.3995 52.4796L24.7404 50.2393C24.5587 50.0805 24.5265 49.8854 24.5858 49.7083C24.6459 49.5287 24.8025 49.3693 25.0708 49.3399L28.4782 49.0685L28.4935 49.0673L28.5087 49.0656C29.4406 48.9625 30.2657 48.4214 30.6252 47.4937L31.9853 44.3112L31.9915 44.2967L31.9973 44.282C32.0662 44.1054 32.2217 43.999 32.442 43.999C32.6631 43.999 32.8578 44.1107 32.9539 44.3203L34.3103 47.494C34.6815 48.4493 35.5946 48.9621 36.4131 49.064Z" stroke="white" stroke-width="2"/>
<path d="M56.6567 45.0457L56.6795 45.0485L56.7024 45.0503L60.1772 45.3217C60.4473 45.3515 60.5958 45.5109 60.6486 45.6764C60.6985 45.8331 60.6755 46.029 60.4595 46.2038L60.4518 46.21L60.4441 46.2165L57.7829 48.4586C57.7818 48.4595 57.7807 48.4604 57.7796 48.4614C57.0733 49.0496 56.745 50.0535 56.9715 50.9644L57.7912 54.3649L57.7938 54.3756L57.7966 54.3861C57.8498 54.5874 57.7796 54.7582 57.6154 54.8763C57.4474 54.997 57.2266 55.0244 57.0183 54.9055L54.0191 53.073L54.0058 53.0649L53.9923 53.0572C53.207 52.6104 52.2157 52.6104 51.4304 53.0572L51.4168 53.0649L51.4035 53.073L48.3946 54.9114L48.3844 54.9176L48.3744 54.9241C48.0011 55.1646 47.5108 54.8224 47.6261 54.3861L47.6289 54.3756L47.6314 54.3649L48.4511 50.9645C48.6776 50.0535 48.3493 49.0497 47.6431 48.4614L44.984 46.2211C44.8024 46.0622 44.7701 45.8671 44.8294 45.6901C44.8895 45.5105 45.0462 45.3511 45.3144 45.3216L48.7218 45.0502L48.7371 45.049L48.7524 45.0473C49.6843 44.9442 50.5094 44.4031 50.8688 43.4755L52.229 40.2929L52.2352 40.2784L52.2409 40.2637C52.3099 40.0871 52.4654 39.9807 52.6857 39.9807C52.9067 39.9807 53.1014 40.0924 53.1975 40.302L54.5539 43.4758C54.9252 44.4311 55.8382 44.9438 56.6567 45.0457Z" stroke="white" stroke-width="2"/>
<path d="M16.1733 45.0457L16.196 45.0485L16.2189 45.0503L19.6938 45.3217C19.9638 45.3515 20.1124 45.5109 20.1651 45.6764C20.2151 45.8331 20.1921 46.029 19.976 46.2038L19.9683 46.21L19.9607 46.2165L17.2994 48.4586C17.2983 48.4595 17.2972 48.4604 17.2961 48.4614C16.5899 49.0496 16.2616 50.0534 16.4881 50.9644L17.3078 54.3649L17.3103 54.3756L17.3131 54.3861C17.3663 54.5874 17.2962 54.7582 17.1319 54.8763C16.964 54.997 16.7432 55.0244 16.5349 54.9055L13.5357 53.073L13.5224 53.0649L13.5088 53.0572C12.7235 52.6104 11.7322 52.6104 10.9469 53.0572L10.9334 53.0649L10.9201 53.073L7.91118 54.9114L7.90099 54.9176L7.89095 54.9241C7.5177 55.1646 7.02736 54.8224 7.14266 54.3861L7.14546 54.3756L7.14802 54.3649L7.96768 50.9644C8.19419 50.0535 7.86591 49.0497 7.15966 48.4614L4.5006 46.2211C4.31895 46.0622 4.28673 45.8671 4.34601 45.6901C4.40614 45.5105 4.56279 45.3511 4.83104 45.3216L8.23842 45.0502L8.25372 45.049L8.26897 45.0473C9.20085 44.9442 10.026 44.4031 10.3854 43.4755L11.7456 40.2929L11.7517 40.2784L11.7575 40.2637C11.8265 40.0871 11.982 39.9807 12.2022 39.9807C12.4233 39.9807 12.618 40.0924 12.7141 40.302L14.0705 43.4757C14.4417 44.431 15.3548 44.9438 16.1733 45.0457Z" stroke="white" stroke-width="2"/>
</svg>
