<svg width="70" height="63" viewBox="0 0 70 63" fill="none" xmlns="http://www.w3.org/2000/svg">
<path d="M35.7593 1V6.44839L45.994 7.65915V3.92599C45.994 2.31165 44.6767 1 43.0553 1H35.7593Z" stroke="white" stroke-width="2"/>
<path d="M22.1787 3.9261V7.86119L33.7309 6.44859V1H25.1174C23.4961 1 22.1787 2.3117 22.1787 3.9261Z" stroke="white" stroke-width="2"/>
<path d="M58.051 32.6478C58.051 45.4617 47.6135 55.8541 34.744 55.8541C21.8745 55.8541 11.437 45.4617 11.437 32.6478C11.437 31.1343 11.6397 29.6209 11.8423 28.2083H0.999512V42.3339C0.999512 49.2958 4.95157 57.9729 9.7143 57.9729H9.81563L34.744 60.9998L59.7737 57.9729C64.6377 57.9729 68.4884 49.2958 68.4884 42.233V28.1074H57.5443C57.8483 29.6209 58.051 31.1343 58.051 32.6478Z" stroke="white" stroke-width="2"/>
<path d="M59.7737 9.20657H59.6723L34.744 6.17969L9.7143 9.20657C4.95157 9.20657 0.999512 14.9577 0.999512 21.9195V26.5607H12.4503C15.2877 16.9756 24.2052 9.91285 34.744 9.91285C45.2828 9.91285 54.2002 16.9756 57.0376 26.5607H68.4884V21.9195C68.4884 14.9577 64.5364 9.20657 59.7737 9.20657Z" stroke="white" stroke-width="2"/>
<path d="M34.5082 48.9594C43.1828 48.9594 50.2151 41.9576 50.2151 33.3204C50.2151 24.6832 43.1828 17.6814 34.5082 17.6814C25.8335 17.6814 18.8013 24.6832 18.8013 33.3204C18.8013 41.9576 25.8335 48.9594 34.5082 48.9594Z" stroke="white" stroke-width="2"/>
<path d="M35.5553 23.937V26.4493C31.1397 26.4493 27.6072 29.9665 27.6072 34.3629H25.084C25.084 28.5847 29.7519 23.937 35.5553 23.937Z" fill="white"/>
</svg>
