<svg width="62" height="62" viewBox="0 0 62 62" fill="none" xmlns="http://www.w3.org/2000/svg">
<path d="M60.1726 35.8498C59.4473 34.5845 58.7157 33.3192 57.9904 32.0476C57.6309 31.3964 57.6309 30.6335 57.9904 29.9822C58.0834 29.8147 58.1764 29.6535 58.2694 29.4922C58.7219 28.6983 59.1807 27.9105 59.6332 27.1166C59.9432 26.577 60.2594 26.0374 60.5693 25.4916C61.2823 24.2138 61.0963 22.5764 60.0548 21.5281C59.5775 21.0506 58.9141 20.7404 58.3376 20.4055C57.5069 19.9279 56.6762 19.4503 55.8455 18.9727C55.2937 18.6564 54.5994 18.3587 54.2212 17.8314C53.7687 17.1988 53.8245 16.4793 53.8245 15.7536V12.9066C53.8245 12.2554 53.8741 11.5793 53.7811 10.9342C53.5641 9.45183 52.2995 8.35398 50.8364 8.19892C50.2351 8.13689 49.6028 8.18651 48.9952 8.18651H46.1683C45.4306 8.18651 44.7115 8.22993 44.0916 7.72752C43.5956 7.32436 43.2981 6.62968 42.9819 6.08385C42.5045 5.25272 42.0272 4.42158 41.5498 3.59664C41.2027 2.995 40.8865 2.31892 40.3596 1.85373C39.2871 0.904744 37.7497 0.755883 36.5098 1.45057C35.1522 2.21348 33.8069 3.0074 32.4617 3.78272C32.2881 3.88196 32.1207 3.9874 31.9471 4.07423C31.3272 4.40297 30.5771 4.35955 29.9695 4.02461C29.424 3.72069 28.8908 3.40436 28.3453 3.08803C27.5518 2.63525 26.7645 2.17626 25.971 1.71727C25.1837 1.26449 24.3963 0.904744 23.454 1.02259C22.3072 1.16525 21.4517 1.85373 20.8813 2.83373C20.4722 3.54082 20.063 4.25411 19.6539 4.9612C19.2633 5.64347 18.8666 6.32575 18.476 7.00803C18.0544 7.74613 17.3849 8.17411 16.5232 8.17411C14.9362 8.18031 13.3492 8.17411 11.7559 8.17411C10.7269 8.17411 9.74116 8.45322 9.02824 9.24714C8.5261 9.80537 8.24093 10.5001 8.17893 11.2444C8.16034 11.449 8.17273 11.6599 8.17273 11.8646C8.17273 13.4338 8.19133 15.0031 8.17273 16.5723C8.16654 17.4655 7.66439 18.0919 6.92047 18.5199C6.20755 18.9293 5.49463 19.3449 4.78171 19.7542C4.10598 20.145 3.43026 20.5357 2.75453 20.9265C1.71925 21.5219 1.03112 22.5516 1.00013 23.7673C0.97533 24.648 1.37209 25.3613 1.79364 26.0932C2.26479 26.9057 2.72974 27.7245 3.20088 28.5432C3.50465 29.0704 3.86421 29.5976 4.11838 30.1497C4.39735 30.7575 4.34156 31.4646 4.01919 32.0414C3.92001 32.2213 3.81462 32.4012 3.70923 32.5748C2.95291 33.8898 2.178 35.1985 1.43408 36.5197C0.702561 37.8284 0.913337 39.5403 2.04161 40.5637C2.53756 41.0165 3.18849 41.3204 3.76502 41.6553C4.59573 42.1329 5.42024 42.6105 6.25095 43.0881C6.82128 43.4169 7.49701 43.7084 7.85657 44.2914C8.25333 44.9241 8.17893 45.6436 8.17893 46.3569V49.2162C8.17893 49.8675 8.12314 50.556 8.24093 51.201C8.5137 52.6772 9.85275 53.7565 11.3282 53.8247C11.9233 53.8495 12.5185 53.8247 13.1136 53.8247H15.8909C16.672 53.8247 17.4159 53.8123 18.0296 54.4015C18.476 54.8295 18.755 55.4932 19.0587 56.0204C19.5299 56.8391 20.001 57.6641 20.4784 58.4828C20.8441 59.1155 21.1727 59.7977 21.7554 60.2629C22.8341 61.1251 24.2972 61.2305 25.4998 60.5482C26.095 60.2133 26.6839 59.866 27.2728 59.5248C28.0477 59.0782 28.8227 58.6317 29.5976 58.1851C29.7835 58.0796 29.9633 57.9556 30.1617 57.8688C30.7692 57.602 31.4636 57.6579 32.0401 57.9804C33.3977 58.7433 34.743 59.5372 36.0883 60.3188C36.2432 60.4056 36.392 60.4986 36.547 60.5855C37.2351 60.9638 38.0038 61.0817 38.7726 60.9452C39.8326 60.7591 40.6014 60.0334 41.1221 59.1341C41.9218 57.7447 42.7215 56.3491 43.5274 54.9598C43.9552 54.2217 44.6371 53.8247 45.4864 53.8247C46.2489 53.8247 47.0114 53.8247 47.774 53.8247H50.2847C51.3324 53.8247 52.3429 53.5022 53.031 52.6648C53.5145 52.0756 53.7935 51.3561 53.8059 50.587C53.8121 50.4133 53.8059 50.2334 53.8059 50.0598V47.3493C53.8059 46.7042 53.7997 46.0591 53.8059 45.4141C53.8121 44.8372 54.0291 44.3038 54.4444 43.9069C54.6366 43.7208 54.866 43.5905 55.0953 43.4603C56.484 42.6602 57.8726 41.8662 59.2551 41.0599C60.309 40.4521 61.0095 39.3542 60.9847 38.1199C60.9909 37.264 60.5879 36.5755 60.1726 35.8498Z" stroke="white" stroke-width="2"/>
<path d="M18.999 23.3877C18.999 21.8459 19.4854 20.5748 20.458 19.5744C21.4424 18.5739 22.7021 18.0737 24.2373 18.0737C25.7959 18.0737 27.0557 18.5798 28.0166 19.592C28.9893 20.5924 29.4756 21.893 29.4756 23.4936V24.7471C29.4756 26.3007 28.9834 27.5718 27.999 28.5605C27.0264 29.5373 25.7842 30.0258 24.2725 30.0258C22.749 30.0258 21.4893 29.5373 20.4932 28.5605C19.4971 27.5718 18.999 26.2595 18.999 24.6235V23.3877ZM21.4248 24.7471C21.4248 25.6651 21.6826 26.4243 22.1982 27.0245C22.7139 27.613 23.4053 27.9072 24.2725 27.9072C25.1045 27.9072 25.7725 27.6189 26.2764 27.0422C26.792 26.4655 27.0498 25.6769 27.0498 24.6765V23.3877C27.0498 22.4697 26.7979 21.7105 26.2939 21.1103C25.79 20.51 25.1045 20.2099 24.2373 20.2099C23.3701 20.2099 22.6846 20.51 22.1807 21.1103C21.6768 21.7105 21.4248 22.4932 21.4248 23.4583V24.7471ZM31.4619 37.8467C31.4619 36.3049 31.9482 35.0396 32.9209 34.051C33.9053 33.0506 35.165 32.5504 36.7002 32.5504C38.2354 32.5504 39.4951 33.0447 40.4795 34.0333C41.4639 35.022 41.9561 36.3343 41.9561 37.9703V39.2237C41.9561 40.7655 41.4639 42.0367 40.4795 43.0371C39.5068 44.0257 38.2588 44.52 36.7354 44.52C35.2119 44.52 33.9521 44.0316 32.9561 43.0547C31.96 42.0661 31.4619 40.7538 31.4619 39.1178V37.8467ZM33.8877 39.2237C33.8877 40.1535 34.1455 40.9185 34.6611 41.5188C35.1768 42.1073 35.8682 42.4015 36.7354 42.4015C37.5791 42.4015 38.2529 42.1132 38.7568 41.5364C39.2607 40.948 39.5127 40.1535 39.5127 39.1531V37.8467C39.5127 36.9169 39.2549 36.1577 38.7393 35.5693C38.2354 34.9808 37.5557 34.6865 36.7002 34.6865C35.8682 34.6865 35.1885 34.9808 34.6611 35.5693C34.1455 36.146 33.8877 36.9286 33.8877 37.9173V39.2237ZM25.0107 42.2073L23.165 41.0421L35.6631 20.9514L37.5088 22.1166L25.0107 42.2073Z" fill="white"/>
</svg>
