<svg width="64" height="63" viewBox="0 0 64 63" fill="none" xmlns="http://www.w3.org/2000/svg">
<path d="M36.4547 6.45114L36.5285 6.74508L36.8237 6.81856C37.7832 7.039 38.6688 7.25945 39.5544 7.55338L39.8496 7.62686L40.071 7.40642L43.023 3.95274C43.4658 3.43837 44.13 3.2914 44.6466 3.58533L49.0747 6.15722C49.5913 6.45115 49.8127 7.11249 49.5913 7.77383L48.0415 12.0358L47.8939 12.3297L48.1153 12.5502C48.8533 13.2115 49.5175 13.8729 50.1079 14.5342L50.5507 14.8281L50.8459 14.6812L55.1263 13.138C55.7905 12.9176 56.4547 13.138 56.7499 13.6524L59.333 18.0614C59.6282 18.5757 59.4806 19.2371 58.964 19.678L55.4953 22.6173L55.2739 22.8377L55.3477 23.1317C55.6429 24.0134 55.8643 24.9687 56.0857 25.8505L56.1595 26.1444L56.4547 26.2179L60.8828 27.0262C61.547 27.1732 62.0636 27.6141 62.0636 28.2754V33.3457C62.0636 34.0071 61.6208 34.448 60.8828 34.5949L56.4547 35.4032L56.1595 35.4767L56.0857 35.7706C55.8643 36.7259 55.6429 37.6077 55.3477 38.4895L55.2739 38.7834L55.4953 39.0039L58.964 41.9432C59.4806 42.3841 59.6282 43.0454 59.333 43.5598C58.8164 44.4416 58.3736 45.2499 57.8569 46.1317C57.4879 46.7195 57.1189 47.3809 56.8237 47.9687C56.5285 48.4831 55.8643 48.7035 55.2001 48.4831L50.9197 46.94L50.6245 46.793L50.4031 47.0134C49.7389 47.7483 49.0747 48.4096 48.4105 48.9975L48.189 49.2179L48.3367 49.5118L49.8865 53.7738C50.1079 54.4352 49.8865 55.0965 49.3699 55.3904L44.9418 57.9623C44.4252 58.2563 43.761 58.1093 43.3182 57.5949L40.3662 54.1412L40.1448 53.9208L39.8496 53.9943C38.964 54.2882 38.0046 54.5087 37.119 54.7291L36.5285 55.2435L36.4547 55.5374L35.6429 59.9463C35.4953 60.6077 35.0525 61.1221 34.3883 61.1221H29.2961C28.6319 61.1221 28.1891 60.6812 28.0415 59.9463L27.2297 55.5374L27.1559 55.2435L26.8606 55.17C25.9012 54.9495 25.0156 54.7291 24.13 54.4352L23.8348 54.3617L23.6134 54.5821L20.6614 58.0358C20.2186 58.5502 19.5544 58.6972 19.0378 58.4032L14.6097 55.8313C14.0931 55.5374 13.8717 54.8761 14.0931 54.2147L15.6429 49.9527L15.7905 49.6588L15.5691 49.4384C14.8311 48.777 14.1669 48.1157 13.5765 47.4543L13.3551 47.2339L13.0599 47.3809L8.77947 48.924C8.11527 49.1444 7.45106 48.924 7.15586 48.4096C6.78686 47.8217 6.41786 47.1604 6.12265 46.5725C5.60605 45.6908 5.16324 44.8825 4.64664 44.0007C4.35144 43.4863 4.49904 42.8249 5.01564 42.3841L8.48427 39.4448L8.70568 39.2243L8.63187 38.9304C8.33667 38.0486 8.11527 37.0933 7.89387 36.2115L7.82007 35.9176L7.52486 35.8441L3.09682 35.0358C2.43261 34.8888 1.91602 34.448 1.91602 33.7866V28.7163C1.91602 28.055 2.35881 27.6141 3.09682 27.4671L7.52486 26.6588L7.82007 26.5853L7.89387 26.2914C8.11527 25.3361 8.33667 24.4543 8.63187 23.5726L8.70568 23.2786L8.48427 23.0582L5.01564 20.1189C4.49904 19.678 4.35144 19.0166 4.64664 18.5023L7.22966 14.0933C7.52487 13.5789 8.18907 13.3585 8.85328 13.5789L13.1337 15.1221L13.4289 15.269L13.6503 15.0486C14.3145 14.3138 14.9787 13.6524 15.6429 13.0646L15.8643 12.8441L15.7167 12.5502L14.1669 8.28821C13.9455 7.62686 14.1669 6.96552 14.6835 6.67159L19.1116 4.09971C19.6282 3.80578 20.2924 3.95274 20.7352 4.46712L23.6872 7.92079L23.9086 8.14124L24.2038 8.06776C25.0894 7.77383 26.0488 7.55338 26.9345 7.33294L27.2297 7.25945L27.3035 6.96553L28.1153 2.55658C28.2629 1.89524 28.7057 1.38086 29.3699 1.38086H34.4621C35.1263 1.38086 35.5691 1.82175 35.7167 2.55658L36.4547 6.45114Z" stroke="black" stroke-width="2"/>
<path d="M31.8023 48.9224C41.7476 48.9224 49.8098 40.8951 49.8098 30.9929C49.8098 21.0908 41.7476 13.0635 31.8023 13.0635C21.8571 13.0635 13.7949 21.0908 13.7949 30.9929C13.7949 40.8951 21.8571 48.9224 31.8023 48.9224Z" stroke="#E51700" stroke-width="2"/>
<path d="M32.8373 35.4025V37.019H31.0661V35.476C29.5901 35.4025 28.1879 34.9616 27.3022 34.3738L28.2617 32.2429C29.1473 32.8307 30.4757 33.2716 31.6565 33.2716C32.8373 33.2716 33.3539 32.9042 33.3539 32.4633C33.3539 30.8467 27.4498 32.0224 27.4498 28.2015C27.4498 26.5849 28.6307 25.1888 30.9923 24.8949V23.2783H32.7635V24.8949C33.8705 24.9684 34.9037 25.2623 35.7893 25.7766L34.9037 27.9076C33.9443 27.3932 32.9111 27.0993 32.0255 27.0993C30.7709 27.0993 30.3281 27.5401 30.3281 28.0545C30.3281 29.5976 36.1583 28.4219 36.1583 32.2429C36.2321 33.7125 35.1251 35.1086 32.8373 35.4025Z" fill="#E51700"/>
</svg>
