<svg width="79" height="62" viewBox="0 0 79 62" fill="none" xmlns="http://www.w3.org/2000/svg">
<path d="M48.5134 23.6515L33.8421 31.2005V23.6515L19.1709 31.2005V23.6515L4.49963 31.2005V55.5406" stroke="black" stroke-width="2" stroke-linecap="round" stroke-linejoin="round"/>
<path d="M70.4479 7.77783H48.5145V55.5397H70.4479V7.77783Z" stroke="black" stroke-width="2" stroke-linecap="round" stroke-linejoin="round"/>
<path d="M73.7481 1.49817H44.5525V7.7773H73.7481V1.49817Z" stroke="black" stroke-width="2" stroke-linecap="round" stroke-linejoin="round"/>
<path d="M74.631 31.8348H70.4498V55.5392H74.631V31.8348Z" stroke="black" stroke-width="2" stroke-linecap="round" stroke-linejoin="round"/>
<path d="M77.2707 55.5392H1.05371V60.6891H77.2707V55.5392Z" stroke="black" stroke-width="2" stroke-linecap="round" stroke-linejoin="round"/>
<path d="M19.0255 41.7816H9.63583V48.4134H19.0255V41.7816Z" stroke="#E51700" stroke-width="2" stroke-miterlimit="10" stroke-linecap="round" stroke-linejoin="round"/>
<path d="M31.7875 41.7816H22.398V48.4139H31.7875V41.7816Z" stroke="#E51700" stroke-width="2" stroke-miterlimit="10" stroke-linecap="round" stroke-linejoin="round"/>
<path d="M44.4771 41.7816H35.0876V48.4134H44.4771V41.7816Z" stroke="#E51700" stroke-width="2" stroke-miterlimit="10" stroke-linecap="round" stroke-linejoin="round"/>
<path d="M30.8361 25.2031L22.7669 29.3656V5.802H30.8361V25.2031Z" stroke="black" stroke-width="2" stroke-linecap="round" stroke-linejoin="round"/>
<path d="M16.1662 25.2026L8.09692 29.3651V5.80103H16.1662V25.2026Z" stroke="black" stroke-width="2" stroke-linecap="round" stroke-linejoin="round"/>
<path d="M30.8361 9.75269H22.7669" stroke="black" stroke-width="2" stroke-linecap="round" stroke-linejoin="round"/>
<path d="M16.1662 9.75269H8.09692" stroke="black" stroke-width="2" stroke-linecap="round" stroke-linejoin="round"/>
</svg>
