<svg width="106" height="116" viewBox="0 0 106 116" fill="none" xmlns="http://www.w3.org/2000/svg">
<path d="M92.4324 22.4734C92.3493 21.8933 91.8209 21.5722 91.3842 21.5369C90.9484 21.5019 81.724 20.8443 81.724 20.8443C81.724 20.8443 75.3176 14.7274 74.6144 14.0504C73.9109 13.3737 72.5368 13.5795 72.0034 13.7305C71.9249 13.7528 70.6037 14.1449 68.4183 14.7954C66.2783 8.87277 62.5014 3.43015 55.857 3.43015C55.6736 3.43015 55.4848 3.4373 55.296 3.44763C53.4063 1.04418 51.0655 0 49.0436 0C33.5657 0 26.171 18.6089 23.8526 28.0654C17.8382 29.8577 13.5656 31.132 13.0198 31.2969C9.66273 32.3097 9.55655 32.4114 9.11574 35.4537C8.784 37.7571 0 103.09 0 103.09L68.4468 115.424L105.534 107.707C105.534 107.707 92.5146 23.0535 92.4328 22.4734H92.4324ZM64.6352 15.9206L58.8435 17.6446C58.8456 17.2521 58.8477 16.8659 58.8477 16.4435C58.8477 12.7626 58.3164 9.79895 57.4641 7.44954C60.8877 7.86276 63.1678 11.6092 64.6352 15.9206ZM53.2171 8.17943C54.169 10.4732 54.7878 13.7651 54.7878 18.2072C54.7878 18.4345 54.7858 18.6423 54.7837 18.8525C51.0172 19.9746 46.9243 21.1928 42.8223 22.415C45.1255 13.866 49.4427 9.73697 53.2171 8.17943ZM48.6185 3.99277C49.2866 3.99277 49.9596 4.2109 50.6036 4.63724C45.6432 6.88215 40.3262 12.5362 38.0808 23.8271L28.6259 26.6433C31.2559 18.0312 37.5008 3.99277 48.6181 3.99277H48.6185Z" fill="#95BF46"/>
<path d="M91.3798 21.5365C90.944 21.5016 81.7197 20.844 81.7197 20.844C81.7197 20.844 75.3133 14.7271 74.6101 14.0501C74.347 13.7982 73.9921 13.669 73.6211 13.6134L68.4458 115.422L105.529 107.707C105.529 107.707 92.5097 23.0531 92.4279 22.473C92.3449 21.8929 91.8165 21.5719 91.3798 21.5365Z" fill="#5E8E3E"/>
<path d="M55.854 41.2455L51.281 54.3278C51.281 54.3278 47.2744 52.2713 42.3631 52.2713C35.163 52.2713 34.8007 56.6168 34.8007 57.7118C34.8007 63.6868 50.9955 65.9762 50.9955 79.9715C50.9955 90.9826 43.7339 98.0728 33.9426 98.0728C22.1931 98.0728 16.1844 91.0402 16.1844 91.0402L19.3304 81.0435C19.3304 81.0435 25.5068 86.1432 30.7185 86.1432C34.1239 86.1432 35.5092 83.5645 35.5092 81.6804C35.5092 73.8865 22.2228 73.5388 22.2228 60.7319C22.2228 49.9529 30.2673 39.5219 46.506 39.5219C52.7629 39.5219 55.854 41.2455 55.854 41.2455Z" fill="white"/>
</svg>
