<svg width="82" height="72" viewBox="0 0 82 72" fill="none" xmlns="http://www.w3.org/2000/svg">
<path d="M59.7767 4.88587V5.07769H59.9762C60.5745 5.1736 61.2726 5.36543 61.871 5.55725L62.0704 5.65316L62.1702 5.46134L64.1647 3.25536C64.4639 2.87172 64.9625 2.7758 65.2617 3.06354L68.2535 4.69404C68.6524 4.88587 68.7521 5.36543 68.5527 5.74908L67.5554 8.53052V8.72235L67.7548 8.91417C68.2535 9.29782 68.6524 9.77738 69.151 10.2569L69.3505 10.4488L69.5499 10.3529L72.442 9.39373C72.8409 9.20191 73.3395 9.39373 73.539 9.68147L75.2343 12.5588C75.4338 12.9425 75.3341 13.3261 75.0349 13.6139L72.7412 15.5321L72.442 15.628L72.5417 15.8198C72.7412 16.3953 72.9406 16.9708 73.0404 17.6422V17.834H73.2398L76.2316 18.4095C76.7302 18.5054 77.0294 18.7931 77.0294 19.1768V22.5337C77.0294 22.9173 76.7302 23.301 76.2316 23.301L73.2398 23.8764H73.0404V24.0683C72.9406 24.6437 72.7412 25.3151 72.5417 25.8906L72.442 26.1783L72.6414 26.2742L74.9352 28.1925C75.3341 28.4802 75.4338 28.9598 75.1346 29.2475C74.8354 29.823 74.4365 30.3985 74.1373 30.9739C73.9379 31.3576 73.6387 31.7412 73.4393 32.1249C73.2398 32.5085 72.7412 32.6044 72.3423 32.4126L69.4502 31.4535L69.2507 31.3576L69.0513 31.5494C68.6524 32.029 68.1538 32.4126 67.6551 32.8922L67.5554 32.9881L67.6551 33.1799L68.6524 35.9614C68.8518 36.345 68.6524 36.8246 68.3532 37.0164L65.3614 38.6469C64.9625 38.8387 64.5636 38.7428 64.2644 38.4551L62.2699 36.2491L62.1702 36.0573L61.9707 36.1532C61.3724 36.345 60.774 36.5368 60.0759 36.6327H59.8765V36.8246L59.2781 39.7019C59.1784 40.1815 58.8792 40.4692 58.4803 40.4692H54.9899C54.5909 40.4692 54.192 40.1815 54.192 39.7019L53.5937 36.8246V36.6327H53.3942C52.7959 36.5368 52.0978 36.345 51.4994 36.1532L51.3 36.0573L51.2002 36.2491L49.2057 38.4551C48.9065 38.8387 48.4079 38.9346 48.1087 38.6469L45.1169 37.0164C44.718 36.8246 44.6183 36.345 44.8177 35.9614L45.815 33.1799L45.9147 32.9881L45.5158 32.8922C45.0172 32.5085 44.6183 32.029 44.1197 31.5494L43.9202 31.3576L43.7208 31.4535L40.8287 32.4126C40.4298 32.6044 39.9311 32.4126 39.7317 32.1249C39.5322 31.7412 39.2331 31.3576 39.0336 30.9739C38.7344 30.3985 38.3355 29.823 38.0363 29.2475C37.8369 28.8639 37.9366 28.4802 38.2358 28.1925L40.5295 26.2742L40.729 26.1783L40.6292 25.9865C40.4298 25.411 40.2303 24.8356 40.1306 24.1642V23.9724H39.9311L36.9394 23.3969C36.4407 23.301 36.1415 23.0132 36.1415 22.6296V19.2727C36.1415 18.889 36.4407 18.5054 36.9394 18.5054L39.9311 17.9299H40.1306V17.7381C40.2303 17.1626 40.4298 16.4912 40.6292 15.9157L40.729 15.7239L40.6292 15.5321L38.3355 13.6139C37.9366 13.3261 37.8369 12.8466 38.1361 12.5588L39.8314 9.68147C40.0309 9.29782 40.5295 9.20191 40.9284 9.39373L43.8205 10.3529L44.0199 10.4488L44.2194 10.2569C44.6183 9.77738 45.0172 9.29782 45.5158 8.91417L45.7153 8.72235L45.6156 8.53052L44.6183 5.74908C44.4188 5.36543 44.6183 4.88587 44.9175 4.69404L47.9093 3.06354C48.3082 2.87172 48.7071 2.96763 49.0063 3.25536L51.0008 5.46134L51.1005 5.65316L51.3 5.55725C51.8983 5.36543 52.4967 5.1736 53.1948 5.07769H53.3942V4.88587L53.9926 2.00851C54.192 1.52895 54.4912 1.24121 54.8901 1.24121H58.3806C58.7795 1.24121 59.1784 1.52895 59.1784 2.00851L59.7767 4.88587Z" stroke="black" stroke-width="2" stroke-linecap="round" stroke-linejoin="round"/>
<path d="M48.41 38.935L21.7829 64.6394L6.02606 69.6269L11.2119 54.5687L37.9387 28.8643" stroke="black" stroke-width="2" stroke-linecap="round" stroke-linejoin="round"/>
<path d="M56.5912 31.6451C62.7599 31.6451 67.7606 26.8357 67.7606 20.903C67.7606 14.9703 62.7599 10.1609 56.5912 10.1609C50.4225 10.1609 45.4218 14.9703 45.4218 20.903C45.4218 26.8357 50.4225 31.6451 56.5912 31.6451Z" stroke="#E51700" stroke-width="2" stroke-miterlimit="10" stroke-linecap="round" stroke-linejoin="round"/>
<path d="M67.858 70.297C74.0268 70.297 79.0275 65.4875 79.0275 59.5547C79.0275 53.622 74.0268 48.8125 67.858 48.8125C61.6893 48.8125 56.6886 53.622 56.6886 59.5547C56.6886 65.4875 61.6893 70.297 67.858 70.297Z" stroke="black" stroke-width="2" stroke-linecap="round" stroke-linejoin="round"/>
<path d="M54.7895 25.7936C54.7895 24.8345 55.5873 24.0672 56.6843 24.0672C57.7813 24.0672 58.5791 24.8345 58.5791 25.7936C58.5791 26.7527 57.7813 27.52 56.6843 27.52C55.5873 27.52 54.7895 26.7527 54.7895 25.7936ZM54.7895 13.9966H58.4794L57.881 22.7245H55.3878L54.7895 13.9966Z" fill="#E51700"/>
<path d="M12.2064 67.7084L8.11752 63.7761" stroke="black" stroke-width="2" stroke-linecap="round" stroke-linejoin="round"/>
<path d="M11.6115 54.4725L17.1963 54.6644L16.8971 59.7476L22.2824 59.8435L21.5843 64.6389" stroke="black" stroke-width="2" stroke-linecap="round" stroke-linejoin="round"/>
<path d="M17.2971 59.5548L45.7193 32.2198" stroke="black" stroke-width="2" stroke-linecap="round" stroke-linejoin="round"/>
<path d="M39.4351 47.6622V59.555H56.1891" stroke="black" stroke-width="2" stroke-linecap="round" stroke-linejoin="round"/>
<path d="M62.0744 58.3093L66.961 63.1049L80.2247 50.4446" stroke="#E51700" stroke-width="2" stroke-linecap="round" stroke-linejoin="round"/>
<path d="M12.9086 24.0687C19.0773 24.0687 24.0779 19.2593 24.0779 13.3266C24.0779 7.39388 19.0773 2.58447 12.9086 2.58447C6.73999 2.58447 1.73932 7.39388 1.73932 13.3266C1.73932 19.2593 6.73999 24.0687 12.9086 24.0687Z" stroke="black" stroke-width="2" stroke-linecap="round" stroke-linejoin="round"/>
<path d="M25.5729 40.566H13.2069V24.4524" stroke="black" stroke-width="2" stroke-linecap="round" stroke-linejoin="round"/>
<path d="M8.42181 9.00903L17.3972 17.6413" stroke="#E51700" stroke-width="2" stroke-miterlimit="10" stroke-linecap="round" stroke-linejoin="round"/>
<path d="M17.4981 9.00952L8.52258 17.6418" stroke="#E51700" stroke-width="2" stroke-miterlimit="10" stroke-linecap="round" stroke-linejoin="round"/>
</svg>
