<svg width="65" height="62" viewBox="0 0 65 62" fill="none" xmlns="http://www.w3.org/2000/svg">
<path d="M63.2757 44.2962V52.5155H57.5035C56.6039 50.2804 54.355 48.6943 51.7312 48.6943C49.1075 48.6943 46.8586 50.2804 45.959 52.5155H45.1344C44.2348 50.2804 41.9859 48.6943 39.3622 48.6943C36.7384 48.6943 34.4895 50.2804 33.5899 52.5155H18.5971C17.6975 50.2804 15.4486 48.6943 12.8249 48.6943C10.2011 48.6943 7.95222 50.2804 7.05265 52.5155H1.50531V44.2962C2.7797 39.8982 8.17711 39.8982 8.25208 39.8982L11.1007 29.8765H28.0426V44.2241H63.2757V44.2962Z" stroke="black" stroke-width="2" stroke-linecap="round" stroke-linejoin="round"/>
<path d="M14.398 33.6989L12.299 40.1149H24.7431V33.6989H14.398Z" stroke="black" stroke-width="2" stroke-linecap="round" stroke-linejoin="round"/>
<path d="M19.1247 54.6061C19.1247 57.8506 16.351 60.5183 12.9775 60.5183C9.60409 60.5183 6.83035 57.8506 6.83035 54.6061C6.83035 53.8851 6.98028 53.1642 7.20518 52.5153C8.10477 50.2802 10.3537 48.694 12.9775 48.694C15.6013 48.694 17.8503 50.2802 18.7499 52.5153C18.9748 53.1642 19.1247 53.8851 19.1247 54.6061Z" stroke="black" stroke-width="2" stroke-linecap="round" stroke-linejoin="round"/>
<path d="M12.973 56.8411C14.2564 56.8411 15.2968 55.8403 15.2968 54.6057C15.2968 53.3711 14.2564 52.3704 12.973 52.3704C11.6896 52.3704 10.6492 53.3711 10.6492 54.6057C10.6492 55.8403 11.6896 56.8411 12.973 56.8411Z" stroke="black" stroke-width="2" stroke-linecap="round" stroke-linejoin="round"/>
<path d="M45.5821 54.6061C45.5821 57.8506 42.8084 60.5183 39.435 60.5183C36.0616 60.5183 33.2879 57.8506 33.2879 54.6061C33.2879 53.8851 33.4379 53.1642 33.6628 52.5153C34.5623 50.2802 36.8113 48.694 39.435 48.694C42.0587 48.694 44.3077 50.2802 45.2072 52.5153C45.4321 53.1642 45.5821 53.8851 45.5821 54.6061Z" stroke="black" stroke-width="2" stroke-linecap="round" stroke-linejoin="round"/>
<path d="M39.4383 56.8411C40.7218 56.8411 41.7622 55.8403 41.7622 54.6057C41.7622 53.3711 40.7218 52.3704 39.4383 52.3704C38.1548 52.3704 37.1144 53.3711 37.1144 54.6057C37.1144 55.8403 38.1548 56.8411 39.4383 56.8411Z" stroke="black" stroke-width="2" stroke-linecap="round" stroke-linejoin="round"/>
<path d="M57.9522 54.6061C57.9522 57.8506 55.1785 60.5183 51.8051 60.5183C48.4317 60.5183 45.6581 57.8506 45.6581 54.6061C45.6581 53.8851 45.808 53.1642 46.0329 52.5153C46.9325 50.2802 49.1814 48.694 51.8051 48.694C54.4289 48.694 56.6778 50.2802 57.5774 52.5153C57.8023 53.1642 57.9522 53.8851 57.9522 54.6061Z" stroke="black" stroke-width="2" stroke-linecap="round" stroke-linejoin="round"/>
<path d="M51.7315 56.8411C53.015 56.8411 54.0555 55.8403 54.0555 54.6057C54.0555 53.3711 53.015 52.3704 51.7315 52.3704C50.448 52.3704 49.4075 53.3711 49.4075 54.6057C49.4075 55.8403 50.448 56.8411 51.7315 56.8411Z" stroke="black" stroke-width="2" stroke-linecap="round" stroke-linejoin="round"/>
<path d="M63.3495 14.8087H31.7897V41.2683H63.3495V14.8087Z" stroke="#E51700" stroke-width="2" stroke-miterlimit="10" stroke-linecap="round" stroke-linejoin="round"/>
<path d="M53.8306 14.8082H41.1615V23.3878H53.8306V14.8082Z" stroke="#E51700" stroke-width="2" stroke-miterlimit="10" stroke-linecap="round" stroke-linejoin="round"/>
<path d="M53.8306 32.6166H41.1615V41.1966H53.8306V32.6166Z" stroke="#E51700" stroke-width="2" stroke-miterlimit="10" stroke-linecap="round" stroke-linejoin="round"/>
<path d="M20.2464 4.57068H38.2377" stroke="black" stroke-width="2" stroke-linecap="round" stroke-linejoin="round"/>
<path d="M20.2464 10.4832H36.1387" stroke="black" stroke-width="2" stroke-linecap="round" stroke-linejoin="round"/>
<path d="M38.9857 10.4832H41.0847" stroke="black" stroke-width="2" stroke-linecap="round" stroke-linejoin="round"/>
<path d="M41.0852 4.57117H43.2593" stroke="black" stroke-width="2" stroke-linecap="round" stroke-linejoin="round"/>
<path d="M18.9731 1.3269L11.3267 7.67087" stroke="black" stroke-width="2" stroke-linecap="round" stroke-linejoin="round"/>
<path d="M18.9731 14.0158L11.3267 7.67139" stroke="black" stroke-width="2" stroke-linecap="round" stroke-linejoin="round"/>
</svg>
