<svg width="79" height="62" viewBox="0 0 79 62" fill="none" xmlns="http://www.w3.org/2000/svg">
<path d="M77.4778 19.3383C77.4778 28.4892 70.3038 36.115 61.0909 37.2044V19.0478H40.173C40.3241 9.2432 48.6308 1.3269 58.8254 1.3269C69.171 1.3269 77.4778 9.38844 77.4778 19.3383Z" stroke="#E51700" stroke-width="2" stroke-miterlimit="10" stroke-linecap="round" stroke-linejoin="round"/>
<path d="M63.3548 29.724C63.3548 31.3218 62.4485 32.7017 61.0891 33.5005V26.0201C62.4485 26.7464 63.3548 28.1263 63.3548 29.724Z" stroke="#E51700" stroke-width="2" stroke-linecap="round" stroke-linejoin="round"/>
<path d="M69.4744 23.8411C71.9767 23.8411 74.0053 21.89 74.0053 19.4831C74.0053 17.0763 71.9767 15.1251 69.4744 15.1251C66.972 15.1251 64.9435 17.0763 64.9435 19.4831C64.9435 21.89 66.972 23.8411 69.4744 23.8411Z" stroke="#E51700" stroke-width="2" stroke-miterlimit="10" stroke-linecap="round" stroke-linejoin="round"/>
<path d="M52.6301 19.0482H43.6436C43.8702 16.869 45.8336 15.1256 48.1746 15.1256C50.5156 15.1256 52.4035 16.869 52.6301 19.0482Z" stroke="#E51700" stroke-width="2" stroke-linecap="round" stroke-linejoin="round"/>
<path d="M58.8236 13.6011C61.326 13.6011 63.3546 11.6501 63.3546 9.24337C63.3546 6.83665 61.326 4.88562 58.8236 4.88562C56.3212 4.88562 54.2925 6.83665 54.2925 9.24337C54.2925 11.6501 56.3212 13.6011 58.8236 13.6011Z" stroke="#E51700" stroke-width="2" stroke-miterlimit="10" stroke-linecap="round" stroke-linejoin="round"/>
<path d="M61.0892 19.0482H1.05371V60.5184H61.0892V19.0482Z" stroke="black" stroke-width="2" stroke-linecap="round" stroke-linejoin="round"/>
<path d="M26.7292 36.9142L38.0566 43.7668L26.7292 50.7134V36.9142Z" stroke="#E51700" stroke-width="2" stroke-miterlimit="10" stroke-linecap="round" stroke-linejoin="round"/>
<path d="M1.05371 27.5446H61.0892" stroke="black" stroke-width="2" stroke-linecap="round" stroke-linejoin="round"/>
<path d="M6.71675 24.7855C7.67602 24.7855 8.45367 24.0376 8.45367 23.115C8.45367 22.1924 7.67602 21.4445 6.71675 21.4445C5.75747 21.4445 4.97983 22.1924 4.97983 23.115C4.97983 24.0376 5.75747 24.7855 6.71675 24.7855Z" fill="black"/>
<path d="M12.23 24.7855C13.1893 24.7855 13.967 24.0376 13.967 23.115C13.967 22.1924 13.1893 21.4445 12.23 21.4445C11.2707 21.4445 10.493 22.1924 10.493 23.115C10.493 24.0376 11.2707 24.7855 12.23 24.7855Z" fill="black"/>
<path d="M17.7435 24.7855C18.7027 24.7855 19.4804 24.0376 19.4804 23.115C19.4804 22.1924 18.7027 21.4445 17.7435 21.4445C16.7842 21.4445 16.0065 22.1924 16.0065 23.115C16.0065 24.0376 16.7842 24.7855 17.7435 24.7855Z" fill="black"/>
</svg>
