<svg width="70" height="62" viewBox="0 0 70 62" fill="none" xmlns="http://www.w3.org/2000/svg">
<path d="M41.2344 38.8904H28.2427C27.624 38.8904 27.0937 38.3804 27.0937 37.7854V25.2905C27.0937 24.6955 27.624 24.1855 28.2427 24.1855H41.2344C41.8531 24.1855 42.3834 24.6955 42.3834 25.2905V37.7854C42.3834 38.3804 41.8531 38.8904 41.2344 38.8904Z" stroke="#E51700" stroke-width="2" stroke-miterlimit="10" stroke-linecap="round" stroke-linejoin="round"/>
<path d="M39.0275 27.4149H30.4546V35.6602H39.0275V27.4149Z" stroke="#E51700" stroke-width="2" stroke-miterlimit="10" stroke-linecap="round" stroke-linejoin="round"/>
<path d="M39.2943 19.2557V24.1856" stroke="#E51700" stroke-width="2" stroke-miterlimit="10" stroke-linecap="round" stroke-linejoin="round"/>
<path d="M34.6994 19.2557V24.1856" stroke="#E51700" stroke-width="2" stroke-miterlimit="10" stroke-linecap="round" stroke-linejoin="round"/>
<path d="M30.1908 19.2557V24.1856" stroke="#E51700" stroke-width="2" stroke-miterlimit="10" stroke-linecap="round" stroke-linejoin="round"/>
<path d="M39.2943 38.8899V43.8197" stroke="#E51700" stroke-width="2" stroke-miterlimit="10" stroke-linecap="round" stroke-linejoin="round"/>
<path d="M34.6994 38.8899V43.8197" stroke="#E51700" stroke-width="2" stroke-miterlimit="10" stroke-linecap="round" stroke-linejoin="round"/>
<path d="M30.1908 38.8899V43.8197" stroke="#E51700" stroke-width="2" stroke-miterlimit="10" stroke-linecap="round" stroke-linejoin="round"/>
<path d="M47.5135 35.915H42.3877" stroke="#E51700" stroke-width="2" stroke-miterlimit="10" stroke-linecap="round" stroke-linejoin="round"/>
<path d="M47.5135 31.4946H42.3877" stroke="#E51700" stroke-width="2" stroke-miterlimit="10" stroke-linecap="round" stroke-linejoin="round"/>
<path d="M47.5135 27.1599H42.3877" stroke="#E51700" stroke-width="2" stroke-miterlimit="10" stroke-linecap="round" stroke-linejoin="round"/>
<path d="M27.095 35.915H21.969" stroke="#E51700" stroke-width="2" stroke-miterlimit="10" stroke-linecap="round" stroke-linejoin="round"/>
<path d="M27.095 31.4946H21.969" stroke="#E51700" stroke-width="2" stroke-miterlimit="10" stroke-linecap="round" stroke-linejoin="round"/>
<path d="M27.095 27.1599H21.969" stroke="#E51700" stroke-width="2" stroke-miterlimit="10" stroke-linecap="round" stroke-linejoin="round"/>
<path d="M37.3553 47.305V52.1747C37.3553 52.2174 37.3703 52.2601 37.3853 52.3029C37.3853 52.3456 37.3553 52.3883 37.3553 52.431C37.3553 56.9875 41.0577 60.6896 45.6144 60.6896C50.1712 60.6896 53.8735 56.9875 53.8735 52.431C53.8735 52.374 53.8735 52.3171 53.8735 52.2601C54.3832 52.3598 54.9228 52.4168 55.4474 52.4168C60.0041 52.4168 63.7065 48.7146 63.7065 44.1582C63.7065 42.1077 62.957 40.1855 61.638 38.7046C65.3403 37.893 68.1283 34.5896 68.1283 30.6454C68.1283 30.6026 68.1283 30.5599 68.1283 30.5172C68.1283 30.503 68.1283 30.503 68.1283 30.4887C68.1283 27.1141 66.0298 24.2236 63.077 23.0417C62.5973 22.8424 62.1026 22.6715 61.593 22.5719C62.942 21.0768 63.7065 19.1403 63.7065 17.0614C63.7065 12.5049 60.0041 8.80277 55.4474 8.80277C54.9528 8.80277 54.4431 8.85972 53.9485 8.94516C53.6637 4.78737 50.1862 1.49817 45.9442 1.49817C45.9142 1.49817 45.8992 1.51241 45.8842 1.51241C45.7943 1.51241 45.7044 1.49817 45.6144 1.49817C41.2076 1.49817 37.3553 5.599 37.3553 10.2836V15.3812" stroke="black" stroke-width="2"/>
<path d="M32.2268 47.305V52.1747C32.2268 52.2174 32.2118 52.2601 32.1968 52.3029C32.1968 52.3456 32.2268 52.3883 32.2268 52.431C32.2268 56.9875 28.5244 60.6896 23.9677 60.6896C19.411 60.6896 15.7086 56.9875 15.7086 52.431C15.7086 52.374 15.7086 52.3171 15.7086 52.2601C15.199 52.3598 14.6594 52.4168 14.1347 52.4168C9.57799 52.4168 5.87564 48.7146 5.87564 44.1582C5.87564 42.1077 6.6251 40.1855 7.94416 38.7046C4.2418 37.893 1.4538 34.5896 1.4538 30.6454C1.4538 30.6026 1.4538 30.5599 1.4538 30.5172C1.4538 30.503 1.4538 30.503 1.4538 30.4887C1.4538 27.1141 3.5523 24.2236 6.50519 23.0417C6.98484 22.8424 7.47949 22.6715 7.98912 22.5719C6.64009 21.0768 5.87564 19.1403 5.87564 17.0614C5.87564 12.5049 9.57799 8.80277 14.1347 8.80277C14.6294 8.80277 15.139 8.85972 15.6337 8.94516C15.9185 4.78737 19.396 1.49817 23.6379 1.49817C23.6679 1.49817 23.6829 1.51241 23.6979 1.51241C23.7878 1.51241 23.8778 1.49817 23.9677 1.49817C28.3745 1.49817 32.2268 5.599 32.2268 10.2836V15.3812" stroke="black" stroke-width="2"/>
</svg>
