<svg width="68" height="63" viewBox="0 0 68 63" fill="none" xmlns="http://www.w3.org/2000/svg">
<path d="M65.4698 9.99072H2.72461L14.4755 1.38086H53.719L65.4698 9.99072Z" stroke="black" stroke-width="2" stroke-linecap="round" stroke-linejoin="round"/>
<path d="M7.23276 23.8252C4.79392 23.8252 2.72461 21.8383 2.72461 19.3364V9.99072H11.667V19.3364C11.667 21.8383 9.67159 23.8252 7.23276 23.8252Z" stroke="black" stroke-width="2" stroke-linecap="round" stroke-linejoin="round"/>
<path d="M16.1741 23.8252C13.7353 23.8252 11.666 21.8383 11.666 19.3364V9.99072H20.6823V19.3364C20.6823 21.8383 18.6129 23.8252 16.1741 23.8252Z" stroke="black" stroke-width="2" stroke-linecap="round" stroke-linejoin="round"/>
<path d="M25.1157 23.8252C22.6768 23.8252 20.6074 21.8383 20.6074 19.3364V9.99072H29.5501V19.3364C29.624 21.8383 27.6286 23.8252 25.1157 23.8252Z" stroke="black" stroke-width="2" stroke-linecap="round" stroke-linejoin="round"/>
<path d="M34.1313 23.8252C31.6924 23.8252 29.623 21.8383 29.623 19.3364V9.99072H38.5656V19.3364C38.5656 21.8383 36.5701 23.8252 34.1313 23.8252Z" stroke="black" stroke-width="2" stroke-linecap="round" stroke-linejoin="round"/>
<path d="M43.0765 23.8252C40.6377 23.8252 38.5684 21.8383 38.5684 19.3364V9.99072H47.5108V19.3364C47.5847 21.8383 45.5154 23.8252 43.0765 23.8252Z" stroke="black" stroke-width="2" stroke-linecap="round" stroke-linejoin="round"/>
<path d="M52.0179 23.8252C49.5791 23.8252 47.5098 21.8383 47.5098 19.3364V9.99072H56.4521V19.3364C56.526 21.8383 54.5306 23.8252 52.0179 23.8252Z" stroke="black" stroke-width="2" stroke-linecap="round" stroke-linejoin="round"/>
<path d="M60.9592 23.8252C58.5205 23.8252 56.4512 21.8383 56.4512 19.3364V9.99072H65.3934V19.3364C65.4673 21.8383 63.4719 23.8252 60.9592 23.8252Z" stroke="black" stroke-width="2" stroke-linecap="round" stroke-linejoin="round"/>
<path d="M62.736 23.457V57.0854H5.60742V23.825" stroke="black" stroke-width="2" stroke-linecap="round" stroke-linejoin="round"/>
<path d="M13.5891 31.4038H5.60742V52.9644H13.5891V31.4038Z" stroke="black" stroke-width="2" stroke-linecap="round" stroke-linejoin="round"/>
<path d="M1.91602 57.0742L1.91602 61.1221L66.9523 61.1221V57.0742H1.91602Z" stroke="black" stroke-width="2" stroke-linecap="round" stroke-linejoin="round"/>
<path d="M62.7335 31.4038H54.752V52.9644H62.7335V31.4038Z" stroke="black" stroke-width="2" stroke-linecap="round" stroke-linejoin="round"/>
<path d="M25.1191 29.6382V43.6924H40.8609L45.5908 29.6382H25.1191Z" stroke="#E51700" stroke-width="2" stroke-miterlimit="10" stroke-linecap="round" stroke-linejoin="round"/>
<path d="M36.5745 34.5679H25.1191" stroke="#E51700" stroke-width="2" stroke-miterlimit="10" stroke-linecap="round" stroke-linejoin="round"/>
<path d="M35.8354 39.4248H25.1191" stroke="#E51700" stroke-width="2" stroke-miterlimit="10" stroke-linecap="round" stroke-linejoin="round"/>
<path d="M20.6855 26.9155L25.1198 29.6382" stroke="#E51700" stroke-width="2" stroke-miterlimit="10" stroke-linecap="round" stroke-linejoin="round"/>
<path d="M31.7684 50.3884C31.7684 51.8602 30.5859 53.0376 29.1078 53.0376C27.6297 53.0376 26.4473 51.8602 26.4473 50.3884C26.4473 49.5053 26.8907 48.6958 27.6297 48.1807H30.5859C31.325 48.6958 31.7684 49.5053 31.7684 50.3884Z" stroke="black" stroke-width="2" stroke-linecap="round" stroke-linejoin="round"/>
<path d="M41.8193 50.3884C41.8193 51.8602 40.6368 53.0376 39.1587 53.0376C37.6806 53.0376 36.498 51.8602 36.498 50.3884C36.498 49.5053 36.9415 48.6958 37.6806 48.1807H40.6368C41.3759 48.6958 41.8193 49.5053 41.8193 50.3884Z" stroke="black" stroke-width="2" stroke-linecap="round" stroke-linejoin="round"/>
<path d="M45.1453 43.6924H24.1563C22.8999 43.6924 21.8652 44.7225 21.8652 45.9734C21.8652 46.6356 22.0869 47.1507 22.5304 47.5922C22.8999 48.0337 23.4911 48.2544 24.1563 48.2544H27.7037H30.6599H37.6809H40.6371H45.5887" stroke="#E51700" stroke-width="2" stroke-miterlimit="10" stroke-linecap="round" stroke-linejoin="round"/>
</svg>
