<svg width="69" height="61" viewBox="0 0 69 61" fill="none" xmlns="http://www.w3.org/2000/svg">
<path d="M33.4534 28.5686C33.5942 28.6343 33.8055 28.7 34.0168 28.7C34.228 28.7 34.3689 28.6343 34.5801 28.5686C35.0731 28.3714 47.3261 23.1797 47.3261 6.29027C47.3261 5.6331 46.8332 5.10736 46.129 5.04164C39.0166 4.31874 35.0026 1.36145 34.9322 1.29573C34.4393 0.901423 33.7351 0.901423 33.1717 1.29573C33.1013 1.29573 29.1578 4.31874 21.975 4.97592C21.2708 5.04164 20.7778 5.56738 20.7778 6.22456C20.7074 23.1797 32.9605 28.3714 33.4534 28.5686Z" stroke="white" stroke-width="2"/>
<path d="M66.2786 35.6658C64.4477 31.657 57.8987 32.2485 55.2931 32.9714C54.1664 33.3 53.3918 33.8914 52.6876 34.6143C51.913 35.3372 45.0823 41.9746 45.0823 41.9746L36.9136 44.8662C34.9418 45.5891 33.8855 47.6263 34.6601 49.5321C35.2235 50.9779 36.7023 51.8322 38.2515 51.8322C38.6741 51.8322 39.167 51.7665 39.5895 51.5693L48.6032 48.3492C49.1666 48.152 49.5891 47.8892 50.0116 47.4949L50.6454 46.8377C50.7158 51.1093 51.3496 58.4039 51.42 58.7982C51.4905 59.4554 51.8426 59.8497 52.6876 59.8497C53.5326 59.8497 64.7998 59.8497 66.5603 59.8497C67.2645 59.8497 67.7574 59.324 67.7574 58.6668C67.8983 50.8464 68.2504 39.8717 66.2786 35.6658Z" stroke="white" stroke-width="2"/>
<path d="M58.2497 30.6058C62.9167 30.6058 66.7001 27.0751 66.7001 22.7198C66.7001 18.3644 62.9167 14.8337 58.2497 14.8337C53.5827 14.8337 49.7993 18.3644 49.7993 22.7198C49.7993 27.0751 53.5827 30.6058 58.2497 30.6058Z" stroke="white" stroke-width="2"/>
<path d="M10.6464 30.6058C15.3134 30.6058 19.0968 27.0751 19.0968 22.7198C19.0968 18.3644 15.3134 14.8337 10.6464 14.8337C5.97941 14.8337 2.19604 18.3644 2.19604 22.7198C2.19604 27.0751 5.97941 30.6058 10.6464 30.6058Z" stroke="white" stroke-width="2"/>
<path d="M36.7719 37.6377C35.786 35.8633 33.4622 35.1404 31.5609 36.0605L24.378 39.4778C24.378 39.4778 20.3641 36.9148 19.0966 35.9947C18.2515 35.469 15.9277 33.6946 13.6038 32.906C11.0687 32.1174 4.44927 31.5917 2.61835 35.6004C0.646599 39.8721 0.998698 50.8468 1.06912 58.7329C1.06912 59.3901 1.56206 59.9158 2.26625 59.9158C4.02675 59.9158 15.2939 59.9158 16.1389 59.9158C16.984 59.9158 17.2657 59.4558 17.4065 58.8643C17.4769 58.47 18.2515 49.5982 18.1811 45.6552C18.1811 45.2609 18.1811 44.8009 18.1811 44.2751L21.8429 46.5752C22.4767 46.9695 23.2513 47.1667 24.026 47.1667C24.6597 47.1667 25.2231 47.0352 25.7864 46.7724L35.0114 42.3693C36.9832 41.5807 37.6874 39.412 36.7719 37.6377Z" stroke="white" stroke-width="2"/>
<path d="M17.9961 35.7505L20.7936 39.2342L28.2537 32.2668" stroke="white" stroke-width="2" stroke-linecap="round" stroke-linejoin="round"/>
</svg>
