<svg width="65" height="62" viewBox="0 0 65 62" fill="none" xmlns="http://www.w3.org/2000/svg">
<path d="M61.6827 51.3447H3.69495C2.63512 51.3447 1.8024 50.5438 1.8024 49.5245V3.14706C1.8024 2.12777 2.63512 1.3269 3.69495 1.3269H61.6827C62.7425 1.3269 63.5752 2.12777 63.5752 3.14706V49.5245C63.5752 50.5438 62.7425 51.3447 61.6827 51.3447Z" stroke="black" stroke-width="2" stroke-linecap="round" stroke-linejoin="round"/>
<path d="M1.8024 42.8987H63.5752" stroke="black" stroke-width="2" stroke-linecap="round" stroke-linejoin="round"/>
<path d="M27.8427 47.5586H37.5326" stroke="black" stroke-width="2" stroke-linecap="round" stroke-linejoin="round"/>
<path d="M18.6077 60.5178H46.7688" stroke="black" stroke-width="2" stroke-linecap="round" stroke-linejoin="round"/>
<path d="M41.9238 51.3447H24.2853V60.5179H41.9238V51.3447Z" stroke="black" stroke-width="2" stroke-linecap="round" stroke-linejoin="round"/>
<path d="M47.3008 15.8873L32.4633 21.9306L17.6257 15.8873L32.4633 10.1353L47.3008 15.8873Z" stroke="#E51700" stroke-width="2" stroke-miterlimit="10" stroke-linecap="round" stroke-linejoin="round"/>
<path d="M33.8247 15.7419H52.9016V31.978" stroke="#E51700" stroke-width="2" stroke-miterlimit="10" stroke-linecap="round" stroke-linejoin="round"/>
<path d="M21.332 17.8537V30.0849C21.332 30.0849 32.6116 36.3462 43.5127 30.0849V16.98" stroke="#E51700" stroke-width="2" stroke-miterlimit="10" stroke-linecap="round" stroke-linejoin="round"/>
</svg>
