<svg width="150" height="154" viewBox="0 0 150 154" fill="none" xmlns="http://www.w3.org/2000/svg">
<path d="M70.2403 68.3884C65.4571 71.1499 63.7324 77.1187 66.3883 81.7188C69.0442 86.319 75.0756 87.8097 79.8588 85.0481C84.6428 82.2861 86.3667 76.3178 83.7108 71.7176C81.0508 67.1221 75.025 65.6335 70.2403 68.3884ZM74.4557 77.4665C71.5858 79.1235 79.9904 76.4466 78.3968 73.6865C76.8033 70.9265 72.2285 76.6563 75.0984 74.9994C77.9692 73.3419 73.7163 77.2723 75.3098 80.0324C76.9034 82.7925 77.3265 75.8091 74.4557 77.4665Z" fill="#61DBFB"/>
<path d="M105.2 59.311C106.581 55.6913 107.75 52.003 108.703 48.2654C111.662 36.2812 110.603 28.4889 105.641 25.7361C98.5092 21.7842 86.9377 29.9618 75.6394 42.9004C64.7711 30.3363 53.4675 22.5388 46.2019 26.7336C38.9371 30.9279 40.0382 44.6158 45.4926 60.3079C28.6383 63.6232 15.7654 69.5585 15.6259 77.7066C15.5292 83.3797 21.7479 88.193 33.6061 91.6225C37.3175 92.6675 41.0933 93.4996 44.9167 94.1154C43.5353 97.7352 42.366 101.423 41.4135 105.161C38.4595 117.142 39.5187 124.935 44.4801 127.687C47.8801 129.576 52.2964 128.699 57.2123 125.86C63.7446 121.667 69.5771 116.486 74.4818 110.519C85.3453 123.09 96.6488 130.888 103.914 126.693C111.179 122.498 110.078 108.811 104.624 93.1185C112.243 91.853 119.645 89.3928 126.542 85.8328C131.456 82.9956 134.423 79.6085 134.49 75.7199C134.587 70.0467 128.368 65.2334 116.51 61.8039C112.799 60.7589 109.023 59.9268 105.2 59.311V59.311ZM103.603 29.1342C106.785 30.9004 107.253 37.7564 104.854 47.4711C103.881 51.2782 102.678 55.0313 101.251 58.7123C96.6245 58.0849 91.7253 57.6433 86.6149 57.4256C83.9082 53.3645 81.0533 49.4725 78.1388 45.8817C89.3165 33.0018 99.2758 26.7452 103.597 29.1376L103.603 29.1342ZM88.6508 84.2554C87.0534 86.913 85.4436 89.4575 83.8202 91.8904C80.9063 92.0803 77.8965 92.2019 74.7928 92.2563C71.7296 92.3068 68.7213 92.2648 65.7597 92.171C64.2229 89.8022 62.7022 87.3167 61.1997 84.7144C59.6973 82.1121 58.3052 79.5524 57.0221 77.0371C58.4216 74.4253 59.8894 71.7991 61.4648 69.1715C63.06 66.514 64.6706 63.9691 66.2963 61.5381C69.2138 61.3505 72.2263 61.224 75.3228 61.1706C78.3868 61.1196 81.3951 61.1616 84.3567 61.2555C85.8935 63.6243 87.4134 66.1102 88.9158 68.7125C90.4182 71.3148 91.8112 73.874 93.0943 76.3893C91.6948 79.0011 90.227 81.6273 88.6508 84.2554ZM95.2035 80.6696C96.7597 83.9491 98.1266 87.1253 99.303 90.1708C95.97 90.7111 92.4249 91.1634 88.6908 91.5091C89.8381 89.736 90.9625 87.9469 92.0448 86.1452C93.1266 84.3427 94.1906 82.4919 95.2035 80.6696V80.6696ZM81.0467 95.9137C78.8844 98.9702 76.716 101.819 74.5816 104.435C72.5374 101.891 70.4702 99.1187 68.4031 96.1341C70.4872 96.1673 72.5924 96.1688 74.7185 96.1399C76.8296 96.1065 78.9367 96.0213 81.0467 95.9137ZM60.886 91.9434C57.2473 91.7296 53.7408 91.4048 50.3647 90.97C51.6721 87.8355 53.1427 84.6339 54.7786 81.365C55.7352 83.1664 56.7194 84.9551 57.7352 86.7146C58.7511 88.4742 59.808 90.2209 60.8898 91.95L60.886 91.9434ZM54.9092 72.7503C53.3539 69.4724 51.9879 66.2978 50.8125 63.254C54.1412 62.714 57.6838 62.2653 61.4118 61.9188C60.2656 63.6879 59.1506 65.4738 58.0678 67.2747C56.9726 69.1066 55.921 70.934 54.9129 72.7568L54.9092 72.7503ZM69.074 57.5102C71.2354 54.4543 73.403 51.6084 75.5357 48.993C77.5799 51.5375 79.6472 54.3094 81.7143 57.2939C79.623 57.2561 77.5142 57.2524 75.3882 57.2835C73.2885 57.3189 71.1831 57.4032 69.074 57.5102ZM89.2313 61.4846C92.869 61.6968 96.3756 62.0216 99.7517 62.4564C98.4438 65.5901 96.9732 68.7917 95.3378 72.0614C94.3804 70.2605 93.3962 68.4718 92.3803 66.7123C91.3644 64.9527 90.3075 63.2061 89.2266 61.4765L89.2313 61.4846ZM48.1256 30.0656C52.5349 27.5199 62.2876 33.4557 73.0287 45.9751C69.9901 49.6644 66.9992 53.6569 64.1569 57.8111C59.1297 58.2004 54.174 58.7958 49.4699 59.5768C43.9823 44.0264 43.7172 32.6108 48.1256 30.0656V30.0656ZM34.8417 87.8928C25.2285 85.113 19.5258 81.2794 19.5871 77.6409C19.625 75.4465 21.6909 73.1452 25.4413 70.9799C32.1732 67.5347 39.3947 65.1659 46.8239 63.9656C48.4727 68.2785 50.4157 72.6949 52.5776 77.0684C50.2109 81.603 48.1452 86.069 46.374 90.3868C42.4748 89.7843 38.6231 88.9516 34.8417 87.8928ZM46.5192 124.289C43.3376 122.523 42.8689 115.667 45.2681 105.952C46.2405 102.145 47.4434 98.3921 48.8707 94.7112C53.497 95.3386 58.3961 95.7802 63.5066 95.9979C66.2141 100.059 69.0682 103.951 71.9827 107.542C60.7999 120.425 50.8406 126.681 46.5192 124.289V124.289ZM101.99 123.361C97.5815 125.907 87.8305 119.97 77.0971 107.448C80.134 103.76 83.1274 99.7657 85.9787 95.6075C91.0054 95.2173 95.9602 94.6225 100.673 93.8366C106.133 109.403 106.399 120.816 101.99 123.361V123.361ZM130.529 75.7855C130.442 80.7231 120.037 86.2238 103.292 89.4591C101.642 85.1446 99.6979 80.7267 97.5318 76.3459C99.8989 71.8121 101.964 67.3452 103.736 63.0283C107.637 63.6319 111.489 64.4675 115.272 65.5287C124.888 68.3134 130.591 72.147 130.529 75.7855V75.7855Z" fill="#61DBFB"/>
</svg>
