<svg width="69" height="59" viewBox="0 0 69 59" fill="none" xmlns="http://www.w3.org/2000/svg">
<path d="M20.32 7.82244C20.32 11.5225 17.0691 14.6449 12.9015 14.6449C8.73389 14.6449 5.48293 11.5225 5.48293 7.82244C5.48293 4.1224 8.73389 1 12.9015 1C17.0691 1 20.32 4.12241 20.32 7.82244Z" stroke="white" stroke-width="2"/>
<path d="M17.4494 28.4789L17.4487 28.4846L16.7627 33.6996C15.5299 33.786 14.2564 33.82 12.9401 33.7669L12.9199 33.766H12.8997C8.99823 33.766 5.18316 33.4365 1.66473 32.7177C1.1339 32.6021 0.968828 32.2156 1.00658 31.9876L1.00949 31.97L1.01178 31.9523L1.87522 25.2665L1.87526 25.2665L1.87638 25.2571C2.31292 21.6065 5.64566 18.7839 9.73374 18.7839H15.9937C18.1342 18.7839 20.0729 19.5634 21.5043 20.8493C19.3329 22.8161 17.8662 25.445 17.4494 28.4789Z" stroke="white" stroke-width="2"/>
<path d="M62.9159 7.82244C62.9159 11.5225 59.665 14.6449 55.4974 14.6449C51.3298 14.6449 48.0789 11.5225 48.0789 7.82244C48.0789 4.1224 51.3298 1 55.4974 1C59.665 1 62.9159 4.1224 62.9159 7.82244Z" stroke="white" stroke-width="2"/>
<path d="M66.5203 25.1906L66.5202 25.1906L66.5213 25.1987L67.3813 31.9247C67.4018 32.2714 67.1805 32.6167 66.7392 32.7163C63.2007 33.373 59.4537 33.7663 55.497 33.7663C54.2158 33.7663 52.8881 33.7217 51.634 33.633L50.9492 28.4263C50.5969 25.3694 49.0677 22.7399 46.8937 20.7818C48.3249 19.4965 50.2632 18.7175 52.403 18.7175H58.663C62.6842 18.7175 66.0843 21.5448 66.5203 25.1906Z" stroke="white" stroke-width="2"/>
<path d="M45.2214 29.1371L45.2214 29.1371L45.2222 29.1433L46.0822 35.8699C46.1091 36.3013 45.8099 36.614 45.5574 36.6531L45.5425 36.6554L45.5277 36.6582C41.9846 37.3166 38.2324 37.7111 34.2699 37.7111C30.3664 37.7111 26.5495 37.3812 23.0296 36.6616L23.0004 36.6556L22.9708 36.6514C22.5559 36.5921 22.3302 36.2143 22.3768 35.9326L22.3798 35.9144L22.3822 35.8961L23.2456 29.1433L23.2456 29.1433L23.2464 29.1371C23.6815 25.556 27.0112 22.7288 31.1039 22.7288H37.3638C41.4566 22.7288 44.7863 25.556 45.2214 29.1371Z" stroke="white" stroke-width="2"/>
<path d="M41.6158 11.7673C41.6158 15.4673 38.3649 18.5897 34.1973 18.5897C30.0298 18.5897 26.7788 15.4673 26.7788 11.7673C26.7788 8.06722 30.0298 4.94482 34.1973 4.94482C38.3649 4.94482 41.6158 8.06722 41.6158 11.7673Z" stroke="white" stroke-width="2"/>
<path d="M38.3275 48.1962L38.3488 48.1987L38.3702 48.2002L42.0283 48.4668C42.3703 48.5013 42.5237 48.6879 42.5693 48.8216C42.5937 48.8928 42.5941 48.9617 42.5742 49.0255C42.5554 49.086 42.5068 49.179 42.3734 49.2797L42.3656 49.2856L42.3579 49.2917L39.5575 51.4935C39.5564 51.4943 39.5553 51.4952 39.5542 51.496C38.8196 52.0671 38.4496 53.0732 38.699 54.0093L39.5613 57.348L39.5642 57.3593L39.5674 57.3704C39.6094 57.5186 39.5697 57.6688 39.3787 57.797C39.1795 57.9306 38.8981 57.9659 38.641 57.8285L35.4844 56.0287L35.4714 56.0212L35.4581 56.0141C34.6611 55.591 33.6622 55.591 32.8652 56.0141L32.8519 56.0212L32.8389 56.0287L29.6823 57.8285C29.4252 57.9659 29.1438 57.9306 28.9446 57.797C28.7536 57.6688 28.7139 57.5186 28.7559 57.3704L28.7591 57.3593L28.762 57.348L29.6243 54.0093C29.8736 53.0732 29.5037 52.0671 28.7691 51.496L25.9709 49.296C25.8597 49.2053 25.8172 49.1201 25.8002 49.0581C25.7818 48.9911 25.7835 48.9151 25.8119 48.8359C25.8653 48.6871 26.0281 48.5008 26.3676 48.4668L29.9545 48.2001L29.9688 48.1991L29.9831 48.1976C30.9132 48.1016 31.7784 47.5955 32.1651 46.665L33.5958 43.5409L33.6027 43.5258L33.6091 43.5106C33.6729 43.358 33.8442 43.2219 34.1347 43.2219C34.4224 43.2219 34.6381 43.3603 34.7319 43.5505L36.1584 46.6653C36.5568 47.6211 37.5133 48.1016 38.3275 48.1962Z" stroke="white" stroke-width="2"/>
<path d="M59.6276 44.2507L59.6489 44.2532L59.6702 44.2547L63.3283 44.5213C63.6703 44.5558 63.8237 44.7424 63.8694 44.8761C63.8937 44.9473 63.8941 45.0162 63.8743 45.0801C63.8555 45.1406 63.8068 45.2336 63.6735 45.3342L63.6656 45.3401L63.6579 45.3462L60.8576 47.548C60.8565 47.5489 60.8554 47.5497 60.8543 47.5506C60.1196 48.1216 59.7497 49.1278 59.999 50.0638L60.8614 53.4026L60.8643 53.4139L60.8674 53.425C60.9094 53.5732 60.8697 53.7234 60.6787 53.8516C60.4796 53.9853 60.1981 54.0205 59.9411 53.8831L56.7845 52.0833L56.7714 52.0758L56.7581 52.0687C55.9612 51.6456 54.9622 51.6456 54.1653 52.0687L54.152 52.0758L54.1389 52.0833L50.9729 53.8885L50.9629 53.8942L50.953 53.9001C50.7088 54.047 50.4483 54.0167 50.2544 53.8833C50.0593 53.749 50.0122 53.5794 50.056 53.425L50.0591 53.4139L50.062 53.4026L50.9244 50.0638C51.1737 49.1278 50.8038 48.1216 50.0691 47.5506L47.271 45.3505C47.1597 45.2599 47.1172 45.1746 47.1002 45.1126C47.0819 45.0456 47.0835 44.9696 47.1119 44.8904C47.1653 44.7416 47.3282 44.5553 47.6676 44.5213L51.2546 44.2546L51.2689 44.2536L51.2831 44.2521C52.2133 44.1561 53.0785 43.65 53.4651 42.7195L54.8958 39.5953L54.9027 39.5803L54.9091 39.565C54.973 39.4125 55.1443 39.2764 55.4347 39.2764C55.7224 39.2764 55.9381 39.4147 56.0319 39.6049L57.4584 42.7198C57.8568 43.6756 58.8133 44.1561 59.6276 44.2507Z" stroke="white" stroke-width="2"/>
<path d="M17.0316 44.2507L17.0529 44.2532L17.0742 44.2547L20.7323 44.5213C21.0743 44.5558 21.2277 44.7424 21.2733 44.8761C21.2977 44.9473 21.2981 45.0162 21.2782 45.0801C21.2594 45.1406 21.2108 45.2336 21.0775 45.3342L21.0696 45.3401L21.0619 45.3462L18.2616 47.548C18.2605 47.5488 18.2594 47.5497 18.2583 47.5505C17.5236 48.1215 17.1537 49.1278 17.403 50.0638L18.2654 53.4026L18.2683 53.4139L18.2714 53.425C18.3134 53.5732 18.2737 53.7234 18.0827 53.8516C17.8836 53.9853 17.6021 54.0205 17.3451 53.8831L14.1885 52.0833L14.1754 52.0758L14.1621 52.0687C13.3652 51.6456 12.3662 51.6456 11.5693 52.0687L11.556 52.0758L11.5429 52.0833L8.37696 53.8885L8.36692 53.8942L8.35701 53.9001C8.11278 54.047 7.85229 54.0167 7.65842 53.8833C7.46334 53.749 7.41628 53.5794 7.45999 53.425L7.46315 53.4139L7.46605 53.4026L8.32841 50.0638C8.57773 49.1278 8.20779 48.1216 7.47314 47.5506L4.67501 45.3506C4.56377 45.2599 4.52128 45.1746 4.50428 45.1126C4.48592 45.0456 4.48759 44.9696 4.51599 44.8904C4.56937 44.7416 4.73222 44.5553 5.07167 44.5213L8.65861 44.2546L8.67291 44.2536L8.68718 44.2521C9.61729 44.1561 10.4825 43.65 10.8691 42.7195L12.2999 39.5953L12.3067 39.5803L12.3131 39.565C12.377 39.4125 12.5483 39.2764 12.8387 39.2764C13.1264 39.2764 13.3422 39.4147 13.436 39.6049L14.8624 42.7198C15.2608 43.6755 16.2173 44.1561 17.0316 44.2507Z" stroke="white" stroke-width="2"/>
</svg>
