<svg width="33" height="32" viewBox="0 0 33 32" fill="none" xmlns="http://www.w3.org/2000/svg">
<rect width="32.8412" height="32" rx="16" fill="url(#paint0_linear_1_371)"/>
<path d="M15.5626 7.58609C11.6818 7.58609 7.99662 7.26698 6.58903 10.6062C6.00761 11.9854 6.09205 13.7766 6.09205 16.3413C6.09205 18.5918 6.01402 20.707 6.58903 22.0753C7.99341 25.4165 11.7085 25.0964 15.5604 25.0964C19.2766 25.0964 23.1082 25.4541 24.5329 22.0753C25.1154 20.6823 25.0299 18.9178 25.0299 16.3413C25.0299 12.921 25.234 10.7129 23.4395 9.05516C21.6226 7.37565 19.1654 7.58609 15.5583 7.58609H15.5626ZM14.7139 9.16383C22.8089 9.15198 23.8392 8.32013 23.2706 19.8761C23.0686 23.9633 19.702 23.5147 15.5636 23.5147C8.018 23.5147 7.80103 23.3152 7.80103 16.3373C7.80103 9.27844 8.39955 9.16779 14.7139 9.16186V9.16383ZM20.6179 10.6171C19.9905 10.6171 19.4818 11.0874 19.4818 11.6673C19.4818 12.2472 19.9905 12.7175 20.6179 12.7175C21.2453 12.7175 21.754 12.2472 21.754 11.6673C21.754 11.0874 21.2453 10.6171 20.6179 10.6171V10.6171ZM15.5626 11.8451C12.8767 11.8451 10.6996 13.8586 10.6996 16.3413C10.6996 18.824 12.8767 20.8364 15.5626 20.8364C18.2484 20.8364 20.4245 18.824 20.4245 16.3413C20.4245 13.8586 18.2484 11.8451 15.5626 11.8451V11.8451ZM15.5626 13.4229C19.7362 13.4229 19.7415 19.2597 15.5626 19.2597C11.39 19.2597 11.3836 13.4229 15.5626 13.4229Z" fill="white"/>
<defs>
<linearGradient id="paint0_linear_1_371" x1="2.20502" y1="29.9152" x2="31.9558" y2="3.48417" gradientUnits="userSpaceOnUse">
<stop stop-color="#FFDD55"/>
<stop offset="0.5" stop-color="#FF543E"/>
<stop offset="1" stop-color="#C837AB"/>
</linearGradient>
</defs>
</svg>
