<svg width="75" height="72" viewBox="0 0 75 72" fill="none" xmlns="http://www.w3.org/2000/svg">
<path d="M6.52309 38.1823H28.6155C31.6375 38.1823 34.1386 40.5876 34.1386 43.494V64.7411C34.1386 67.6476 31.6375 70.0529 28.6155 70.0529H6.52309C3.50102 70.1531 1 67.7478 1 64.8413V43.494C1 40.5876 3.50102 38.1823 6.52309 38.1823Z" stroke="black" stroke-width="2"/>
<path d="M46.3302 38.1823H68.4226C71.4447 38.1823 73.9458 40.5876 73.9458 43.4941V64.7414C73.9458 67.6479 71.4447 70.0532 68.4226 70.0532H46.3302C43.3081 70.0532 40.8071 67.6479 40.8071 64.7414V43.4941C40.8071 40.5876 43.3081 38.1823 46.3302 38.1823Z" stroke="#E51700" stroke-width="2" stroke-miterlimit="10" stroke-linecap="round" stroke-linejoin="round"/>
<path d="M25.3833 54.118C25.3833 58.3274 21.8402 61.6348 17.5676 61.6348C13.1909 61.6348 9.75195 58.2272 9.75195 54.118C9.75195 49.9086 13.2951 46.6012 17.5676 46.6012" stroke="black" stroke-width="2" stroke-linecap="round" stroke-linejoin="round"/>
<path d="M65.2954 14.6299L55.2914 22.0465C54.9787 22.2469 54.6661 22.3471 54.3535 22.2469L42.5778 19.14L30.8022 24.2514C30.5938 24.3516 30.3854 24.3516 30.177 24.3516L18.2971 22.2469L9.75195 25.3539" stroke="black" stroke-width="2"/>
<path d="M70.0907 32.871H4.85574C2.66735 32.871 1 31.1672 1 29.1627V4.70826C1 2.7038 2.77156 1 4.85574 1H69.9865C72.1749 1 73.9465 2.7038 73.9465 4.70826V29.0625C73.9465 31.1672 72.1749 32.871 70.0907 32.871Z" stroke="black" stroke-width="2"/>
<path d="M13.922 16.4337C16.4543 16.4337 18.5071 14.4593 18.5071 12.0239C18.5071 9.58845 16.4543 7.61414 13.922 7.61414C11.3896 7.61414 9.33676 9.58845 9.33676 12.0239C9.33676 14.4593 11.3896 16.4337 13.922 16.4337Z" stroke="black" stroke-width="2"/>
<path d="M25.9044 10.5212H41.3274" stroke="black" stroke-width="2" stroke-linecap="round" stroke-linejoin="round"/>
<path d="M49.5632 53.6169L54.3568 50.4098L58.4209 52.5145L65.1945 47.1024" stroke="#E51700" stroke-width="2" stroke-miterlimit="10" stroke-linecap="round" stroke-linejoin="round"/>
<path d="M49.6698 61.2335H65.0928" stroke="#E51700" stroke-width="2" stroke-miterlimit="10" stroke-linecap="round" stroke-linejoin="round"/>
</svg>
