<svg width="104" height="118" viewBox="0 0 104 118" fill="none" xmlns="http://www.w3.org/2000/svg">
<path d="M90.5811 23.5642C90.5001 22.9788 89.985 22.6547 89.5593 22.619C89.1344 22.5838 80.1417 21.9201 80.1417 21.9201C80.1417 21.9201 73.8961 15.7464 73.2107 15.0631C72.5248 14.3802 71.1852 14.5879 70.6652 14.7403C70.5887 14.7627 69.3007 15.1585 67.1701 15.815C65.0839 9.83743 61.4019 4.3443 54.9244 4.3443C54.7455 4.3443 54.5615 4.35152 54.3774 4.36195C52.5352 1.9362 50.2532 0.882324 48.2821 0.882324C33.1929 0.882324 25.984 19.664 23.7237 29.2082C17.8604 31.0171 13.6951 32.3032 13.1631 32.4696C9.89026 33.4918 9.78675 33.5945 9.35701 36.6651C9.0336 38.9898 0.470215 104.929 0.470215 104.929L67.1979 117.377L103.353 109.589C103.353 109.589 90.6612 24.1497 90.5815 23.5642H90.5811ZM63.4821 16.9507L57.8359 18.6907C57.8379 18.2945 57.8399 17.9047 57.8399 17.4784C57.8399 13.7634 57.322 10.7722 56.4911 8.40099C59.8287 8.81805 62.0515 12.5992 63.4821 16.9507ZM52.3507 9.13766C53.2787 11.4527 53.882 14.7752 53.882 19.2585C53.882 19.4879 53.88 19.6976 53.878 19.9098C50.2061 21.0422 46.216 22.2718 42.217 23.5053C44.4624 14.877 48.6712 10.7096 52.3507 9.13766ZM47.8677 4.91214C48.5189 4.91214 49.175 5.1323 49.8029 5.56259C44.967 7.82834 39.7836 13.5348 37.5946 24.9305L28.3771 27.7729C30.9411 19.0809 37.0291 4.91214 47.8673 4.91214H47.8677Z" fill="#95BF46"/>
<path d="M89.5553 22.6187C89.1304 22.5834 80.1377 21.9198 80.1377 21.9198C80.1377 21.9198 73.8922 15.7461 73.2067 15.0628C72.9502 14.8085 72.6042 14.6782 72.2425 14.6221L67.1973 117.375L103.349 109.589C103.349 109.589 90.6568 24.1494 90.577 23.5639C90.4961 22.9784 89.981 22.6544 89.5553 22.6187Z" fill="#5E8E3E"/>
<path d="M54.9213 42.5106L50.4631 55.7143C50.4631 55.7143 46.5572 53.6386 41.7692 53.6386C34.7499 53.6386 34.3967 58.0245 34.3967 59.1297C34.3967 65.1601 50.1848 67.4707 50.1848 81.596C50.1848 92.7092 43.1056 99.8652 33.5602 99.8652C22.1058 99.8652 16.248 92.7673 16.248 92.7673L19.315 82.6779C19.315 82.6779 25.3363 87.8249 30.4171 87.8249C33.737 87.8249 35.0875 85.2223 35.0875 83.3207C35.0875 75.4545 22.1348 75.1036 22.1348 62.1778C22.1348 51.2987 29.9773 40.771 45.8081 40.771C51.9078 40.771 54.9213 42.5106 54.9213 42.5106Z" fill="white"/>
</svg>
