<svg width="57" height="55" viewBox="0 0 57 55" fill="none" xmlns="http://www.w3.org/2000/svg">
<path d="M14.5004 28.9297C14.8328 28.5223 14.9935 28.0705 15.0058 27.6235C14.5016 27.6727 14.0098 27.8848 13.6565 28.2946C13.3032 28.702 13.161 29.2352 13.226 29.7469C13.7191 29.6247 14.168 29.3347 14.5004 28.9297Z" fill="black"/>
<path d="M10.8249 29.4336C10.376 29.0395 10.105 28.4551 10.0449 27.8442C10.5539 27.861 11.0604 28.0838 11.4836 28.4802C11.9079 28.879 12.1815 29.3797 12.3152 29.9091C11.8111 29.9666 11.2738 29.83 10.8249 29.4336Z" fill="black"/>
<path d="M13.1901 25.9505C13.3164 25.723 13.4747 25.5157 13.6942 25.3516C14.1321 25.0222 14.6498 24.912 15.1539 24.9623C15.1085 25.1803 15.0165 25.3911 14.8841 25.5888C14.7638 25.7877 14.5982 25.9745 14.3897 26.1398C14.1763 26.3064 13.9616 26.4381 13.72 26.5303C13.4808 26.6226 13.2281 26.6777 12.9742 26.6885C12.9987 26.4321 13.06 26.1794 13.1901 25.9505Z" fill="black"/>
<path d="M11.3163 26.4512C11.0869 26.3254 10.86 26.1457 10.6895 25.9085C10.5154 25.6702 10.389 25.3959 10.3093 25.1036C10.2431 24.8125 10.2271 24.5034 10.2541 24.1968C10.7484 24.3142 11.2059 24.634 11.5309 25.106C11.6928 25.3431 11.829 25.5983 11.9087 25.8618C11.9847 26.1254 12.0436 26.3973 12.051 26.6704C11.7983 26.6476 11.5493 26.5758 11.3163 26.4512Z" fill="black"/>
<path d="M14.8711 23.3949C14.4099 23.6392 13.8726 23.7279 13.371 23.6476C13.4531 23.4033 13.566 23.1673 13.7365 22.9697C13.9082 22.7709 14.1167 22.6044 14.3571 22.4846C14.8551 22.2499 15.3887 22.2487 15.8708 22.3996C15.8241 22.5014 15.7677 22.5996 15.7003 22.6918C15.6328 22.784 15.5543 22.8727 15.4758 22.9577C15.3151 23.1278 15.1103 23.2751 14.8711 23.3949Z" fill="black"/>
<path d="M12.4709 23.4417C11.9852 23.2967 11.5572 22.9649 11.2971 22.4233C11.1757 22.1561 11.1144 21.8626 11.1009 21.5582C11.0923 21.4061 11.1058 21.2551 11.1304 21.1053C11.1549 20.9556 11.1917 20.8058 11.2383 20.6584C11.6982 20.8729 12.0735 21.2779 12.2918 21.8051C12.4096 22.0723 12.4782 22.3478 12.5015 22.621C12.5261 22.8954 12.5248 23.1745 12.4709 23.4417Z" fill="black"/>
<path d="M17.106 20.0298C16.8276 20.3856 16.4351 20.6647 15.9175 20.8048C15.4134 20.9497 14.8675 20.927 14.3929 20.7485C14.5253 20.5245 14.6922 20.3209 14.8945 20.158C15.1055 19.9987 15.3459 19.8777 15.6072 19.8094C16.1395 19.6776 16.6669 19.7855 17.106 20.0298Z" fill="black"/>
<path d="M13.7532 19.5701C13.725 19.8468 13.6588 20.1164 13.5496 20.3667C13.1055 20.1272 12.7571 19.7162 12.6196 19.1352C12.4933 18.5626 12.6135 17.9289 12.9312 17.3982C13.3373 17.7013 13.6158 18.1697 13.7226 18.7315C13.7814 19.0154 13.79 19.2981 13.7532 19.5701Z" fill="black"/>
<path d="M18.8072 17.9561C18.4601 18.2485 18.0161 18.4438 17.4813 18.4785C16.9563 18.5204 16.4277 18.3887 15.9996 18.1179C16.175 17.925 16.3835 17.7609 16.6141 17.6399C16.8545 17.5273 17.1157 17.4566 17.3856 17.4422C17.9339 17.417 18.4294 17.6303 18.8072 17.9561Z" fill="black"/>
<path d="M15.6259 16.8396C15.5437 17.1056 15.4199 17.3536 15.2604 17.5776C14.8753 17.2541 14.6214 16.7821 14.6092 16.1878C14.6043 15.6008 14.8545 15.0053 15.2764 14.55C15.61 14.9274 15.7829 15.4402 15.7719 16.0129C15.7694 16.3029 15.7179 16.5808 15.6259 16.8396Z" fill="black"/>
<path fill-rule="evenodd" clip-rule="evenodd" d="M15.5403 37.7239C15.9868 37.4281 16.1388 36.9561 15.9316 36.4218L15.95 36.4087C16.34 36.7106 16.7178 36.7393 17.0809 36.4985C17.3704 36.3057 17.5274 36.0481 17.5679 35.7343C17.6022 35.4456 17.4943 35.1042 17.2379 34.7353L16.0653 33.0498L12.4173 35.4708L13.6194 37.1993C13.8831 37.5766 14.18 37.8078 14.5026 37.9012C14.8411 38.0067 15.1919 37.9551 15.5403 37.7239ZM14.5799 35.2192L15.149 36.0385C15.3551 36.3356 15.3551 36.6638 15.0362 36.8747C14.8988 36.9657 14.7479 36.9969 14.6129 36.9669C14.4707 36.937 14.3309 36.8399 14.218 36.677L13.6378 35.8433L14.5799 35.2192ZM16.5179 35.0599C16.7105 35.3378 16.6872 35.6121 16.4222 35.7882C16.1523 35.9667 15.885 35.872 15.6924 35.5941L15.1625 34.8323L15.9819 34.2884L16.5179 35.0599Z" fill="black"/>
<path d="M18.6258 40.0392L20.4227 37.8399L21.2151 38.458L19.4219 40.6525C18.7828 41.4359 17.9168 41.5018 16.9945 40.7832C16.0586 40.0536 15.9249 39.2235 16.5726 38.4316L18.3658 36.2371L19.1532 36.8504L17.3453 39.0629C17.046 39.4295 17.0595 39.8117 17.5047 40.1578C17.9168 40.48 18.3265 40.4059 18.6258 40.0392Z" fill="black"/>
<path d="M21.1514 39.8097C21.4862 38.9794 22.3326 38.8692 23.2379 39.2166C24.1431 39.5641 24.6191 40.2194 24.359 41.0302L23.4378 40.677C23.5139 40.3452 23.3336 40.0648 22.9251 39.9079C22.54 39.7594 22.2149 39.8216 22.1131 40.0744C21.9905 40.3795 22.3 40.5834 22.8664 40.9566L22.9018 40.9802C23.5764 41.4258 24.1603 41.9239 23.8193 42.7699C23.4857 43.6001 22.5816 43.7881 21.6433 43.4276C20.5454 43.006 20.0498 42.2429 20.3713 41.3647L21.3207 41.729C21.1943 42.1851 21.409 42.4908 21.9389 42.6942C22.3032 42.8346 22.7018 42.8249 22.8343 42.4969C22.9747 42.1485 22.6621 41.9393 22.1248 41.5796L22.1167 41.5743C21.3881 41.0892 20.8153 40.6448 21.1514 39.8097Z" fill="black"/>
<path d="M25.8696 44.3753L24.8673 44.2223L25.5506 39.9661L26.5529 40.1194L25.8696 44.3753Z" fill="black"/>
<path d="M30.1617 41.8437L30.0342 40.1058L30.9982 40.0352L31.3147 44.3327L30.2794 44.4059L28.9965 42.6441C28.6984 42.2295 28.3022 41.5374 28.3022 41.5374L28.29 41.5386C28.29 41.5386 28.4004 42.3084 28.4359 42.7995L28.5635 44.5268L27.5994 44.5939L27.283 40.2975L28.3121 40.2256L29.6085 42.0102C29.9005 42.426 30.2954 43.1002 30.2954 43.1002L30.3076 43.099C30.3076 43.099 30.1973 42.3349 30.1617 41.8437Z" fill="black"/>
<path d="M33.4077 41.8107L33.7819 42.7437L35.9616 41.9087L36.2768 42.6956L33.1575 43.8886L31.5494 39.8774L34.6307 38.7L34.9373 39.4653L32.7957 40.2846L33.1158 41.0824L34.9705 40.3732L35.2624 41.1015L33.4077 41.8107Z" fill="black"/>
<path d="M37.6712 38.5994L37.7127 38.5802C38.4486 38.2412 39.1846 38.004 39.7562 38.7216C40.3167 39.4248 40.0224 40.2802 39.2275 40.8851C38.2965 41.5944 37.3717 41.6221 36.7621 40.9042L37.5667 40.2921C37.904 40.6299 38.283 40.6059 38.7319 40.2646C39.0411 40.0298 39.2361 39.6908 39.0141 39.4116C38.7787 39.1173 38.4352 39.2733 37.8451 39.5413L37.8353 39.5458C37.0368 39.9112 36.3548 40.1663 35.7894 39.4584C35.2276 38.7539 35.5624 37.986 36.3291 37.4026C37.0957 36.8192 37.915 36.7533 38.4989 37.381L37.7176 37.9752C37.4649 37.7416 37.1251 37.75 36.7792 38.0135C36.4517 38.2628 36.3414 38.567 36.5131 38.7815C36.7194 39.0405 37.0561 38.8845 37.6712 38.5994Z" fill="black"/>
<path d="M40.7235 35.3645C41.327 34.8302 41.9612 34.3953 42.7216 34.9201C43.4675 35.434 43.4392 36.3361 42.8578 37.14C42.177 38.0816 41.3012 38.3703 40.5039 37.8564L41.0915 37.0429C41.5147 37.2706 41.8704 37.14 42.199 36.686C42.425 36.3732 42.5104 35.9935 42.2151 35.7898C41.9039 35.5738 41.6229 35.8188 41.1405 36.2393L41.127 36.2511C40.4708 36.8261 39.8931 37.2646 39.1424 36.747C38.3967 36.2319 38.4887 35.4029 39.0492 34.6266C39.6098 33.8514 40.3752 33.5567 41.1197 33.9916L40.5481 34.7823C40.2366 34.6314 39.9139 34.7356 39.6613 35.0854C39.4221 35.4172 39.4062 35.7395 39.6343 35.8964C39.9101 36.087 40.1871 35.841 40.6951 35.3897L40.7235 35.3645Z" fill="black"/>
<path fill-rule="evenodd" clip-rule="evenodd" d="M21.1917 10.9622L22.5213 15.071L23.5001 14.7679L23.0388 13.3436L24.0459 13.0334C24.9168 12.765 25.2835 12.0559 25.0321 11.2772C24.9008 10.8735 24.6469 10.5884 24.3121 10.4183C23.9772 10.2483 23.5614 10.2314 23.0634 10.3848L21.1917 10.9622ZM22.7972 12.5985L22.4293 11.4605L23.2535 11.2066C23.6497 11.0844 23.9416 11.2185 24.0582 11.5779C24.171 11.9253 24.0238 12.22 23.6166 12.3458L22.7972 12.5985Z" fill="black"/>
<path fill-rule="evenodd" clip-rule="evenodd" d="M26.2132 9.6952L26.2843 14.0029L27.2925 13.9886L27.2655 12.3438L28.0125 12.3318C28.4982 12.3234 28.7214 12.5403 28.7815 12.9679C28.7992 13.1039 28.8113 13.2386 28.8225 13.363C28.8504 13.6714 28.8725 13.9166 28.9582 13.961L29.9541 13.9454L29.9529 13.8987C29.8592 13.8627 29.8387 13.6423 29.8098 13.3311C29.7944 13.1659 29.7767 12.975 29.7444 12.7727C29.6769 12.3103 29.477 12.0755 29.0367 11.9497V11.9329C29.5972 11.7436 29.8462 11.3759 29.8376 10.8716C29.8253 10.0845 29.1716 9.64848 28.3118 9.66167L26.2132 9.6952ZM27.2533 11.6131L27.2336 10.4607L28.1597 10.4463C28.6037 10.4391 28.8269 10.6667 28.8331 11.0201C28.8392 11.3615 28.5988 11.5915 28.1486 11.5987L27.2533 11.6131Z" fill="black"/>
<path fill-rule="evenodd" clip-rule="evenodd" d="M33.5749 10.4055C32.2968 10.0102 31.1989 10.6727 30.8003 11.9042C30.4028 13.1286 30.9107 14.2883 32.1876 14.6837C33.4596 15.0766 34.5574 14.4141 34.9548 13.1885C35.3535 11.9582 34.8469 10.7985 33.5749 10.4055ZM33.9711 12.8842C33.7209 13.657 33.1676 14.1362 32.4439 13.9121C31.7153 13.6869 31.5338 12.9801 31.784 12.2085C32.0355 11.4298 32.6046 10.9434 33.3333 11.1686C34.057 11.3927 34.2238 12.1055 33.9711 12.8842Z" fill="black"/>
<path fill-rule="evenodd" clip-rule="evenodd" d="M28.2088 17.0212C22.5616 17.0212 17.9669 21.5087 17.9669 27.0239C17.9669 32.5391 22.5616 37.0265 28.2088 37.0265C33.8559 37.0265 38.4507 32.5391 38.4507 27.0239C38.4507 21.5087 33.8559 17.0212 28.2088 17.0212ZM26.0353 28.7105C24.1414 29.8977 22.596 31.5316 21.535 33.4579C19.8607 31.8023 18.8255 29.5287 18.823 27.0227C18.823 26.8454 18.8304 26.6693 18.8402 26.4944C19.3186 26.5171 19.8031 26.5279 20.2888 26.5279C20.4777 26.5279 20.6653 26.5268 20.8542 26.5231C23.6999 26.4728 26.4535 26.0416 28.8 25.2929C29.1115 25.8978 29.4035 26.5123 29.677 27.1341C28.394 27.4743 27.1662 28.0026 26.0353 28.7105ZM32.0995 35.3602C30.9134 35.8897 29.596 36.188 28.2088 36.188C25.9187 36.188 23.8189 35.3817 22.1888 34.0473C23.1823 32.1629 24.6664 30.5673 26.5001 29.4185C27.5881 28.7369 28.7718 28.2326 30.0094 27.9163C30.9882 30.3026 31.691 32.7978 32.0995 35.3602ZM33.1359 27.5222C34.6409 27.5222 36.1067 27.7833 37.4989 28.2997C37.0904 31.1423 35.345 33.5693 32.9041 34.9529C32.4871 32.4696 31.8002 30.0498 30.8594 27.7294C31.6051 27.5929 32.3669 27.5222 33.1359 27.5222ZM30.5233 24.6556C32.8722 23.647 34.4839 22.3208 35.1536 20.8678C36.6672 22.4957 37.5921 24.6568 37.5921 27.0239C37.5921 27.1616 37.5872 27.2994 37.581 27.436C36.1582 26.9364 34.6655 26.6837 33.1347 26.6837C32.2528 26.6837 31.3794 26.7711 30.5257 26.9388C30.2437 26.2883 29.9419 25.6451 29.6193 25.0126C29.9284 24.8987 30.2314 24.7813 30.5233 24.6556ZM25.1987 18.3462C26.1444 18.0323 27.1564 17.8598 28.2088 17.8598C30.6227 17.8598 32.8268 18.7558 34.4913 20.2245C34.024 21.5961 32.5055 22.8899 30.1774 23.8889C29.8708 24.0207 29.5519 24.1453 29.2244 24.2639C28.0959 22.1747 26.7504 20.1922 25.1987 18.3462ZM20.8407 25.6858C20.2004 25.6966 19.5602 25.687 18.9297 25.6594C19.4081 22.5377 21.5055 19.9286 24.3585 18.672C25.9175 20.4976 27.2704 22.4646 28.4025 24.5394C26.1665 25.2366 23.5502 25.6379 20.8407 25.6858Z" fill="black"/>
<path d="M44.1078 29.9085C44.2415 29.3791 44.5152 28.8785 44.9396 28.4797C45.364 28.0833 45.8692 27.8605 46.3782 27.8438C46.3181 28.4545 46.0473 29.039 45.5984 29.4331C45.1495 29.8283 44.6121 29.9648 44.1078 29.9085Z" fill="black"/>
<path d="M42.7564 28.2946C43.1097 28.702 43.2519 29.2352 43.1867 29.7469C42.6938 29.6235 42.2461 29.3347 41.9124 28.9297C41.5799 28.5223 41.4193 28.0705 41.407 27.6235C41.9111 27.6739 42.4031 27.8848 42.7564 28.2946Z" fill="black"/>
<path d="M44.5064 25.8601C44.5863 25.5966 44.7221 25.3403 44.8842 25.1043C45.2091 24.6325 45.6656 24.3127 46.1611 24.1953C46.1894 24.5007 46.1734 24.8109 46.1057 25.1019C46.0261 25.3941 45.8996 25.6696 45.7257 25.9068C45.5552 26.1439 45.328 26.3248 45.0987 26.4493C44.8668 26.575 44.6168 26.6457 44.3642 26.6685C44.3714 26.3954 44.4302 26.1235 44.5064 25.8601Z" fill="black"/>
<path d="M41.2593 24.9628C41.7634 24.9125 42.2809 25.0227 42.7188 25.352C42.9385 25.5173 43.0967 25.7232 43.2232 25.9508C43.3544 26.1795 43.4145 26.4322 43.439 26.6885C43.1851 26.6777 42.9325 26.6226 42.693 26.5304C42.4506 26.437 42.2369 26.3053 42.0236 26.14C41.8149 25.9747 41.6494 25.7879 41.5292 25.5891C41.3967 25.3915 41.3047 25.1807 41.2593 24.9628Z" fill="black"/>
<path d="M45.3208 21.5605C45.3073 21.8624 45.2447 22.1571 45.1245 22.4242C44.866 22.9657 44.4365 23.2987 43.9508 23.4437C43.8953 23.1753 43.8945 22.8974 43.9199 22.6231C43.9436 22.35 44.0121 22.0744 44.1297 21.8073C44.3481 21.2802 44.7234 20.8753 45.1833 20.6609C45.2311 20.8071 45.2671 20.9568 45.2916 21.1077C45.317 21.2575 45.3293 21.4084 45.3208 21.5605Z" fill="black"/>
<path d="M40.7202 22.6919C40.6527 22.5985 40.5963 22.5015 40.5497 22.3997C41.0317 22.2488 41.5653 22.25 42.0632 22.4835C42.3035 22.6033 42.5121 22.771 42.6839 22.9686C42.8532 23.1674 42.9674 23.4021 43.0495 23.6476C42.5464 23.7267 42.0107 23.6393 41.5494 23.3949C41.3102 23.2752 41.1065 23.1278 40.9447 22.9578C40.8661 22.8728 40.7876 22.7841 40.7202 22.6919Z" fill="black"/>
<path d="M42.6628 19.5697C42.6273 19.2978 42.6345 19.0164 42.6933 18.7313C42.8003 18.1696 43.0787 17.7012 43.4845 17.3982C43.8022 17.9288 43.9224 18.5624 43.7963 19.135C43.6588 19.7159 43.3106 20.1267 42.8663 20.3663C42.7559 20.1147 42.6899 19.8464 42.6628 19.5697Z" fill="black"/>
<path d="M42.0243 20.7485C41.551 20.927 41.0052 20.9497 40.501 20.8048C39.9847 20.6647 39.5909 20.3856 39.3113 20.0298C39.7504 19.7855 40.2778 19.6776 40.8102 19.8094C41.0714 19.8789 41.3118 19.9999 41.5228 20.158C41.7251 20.3209 41.8932 20.5245 42.0243 20.7485Z" fill="black"/>
<path d="M41.81 16.1857C41.7978 16.7809 41.5426 17.2528 41.1587 17.5762C40.9992 17.3522 40.8753 17.1043 40.7931 16.8372C40.7011 16.5785 40.6496 16.3007 40.6471 16.0109C40.6361 15.4384 40.8078 14.927 41.1427 14.5486C41.5647 15.0037 41.8149 15.5989 41.81 16.1857Z" fill="black"/>
<path d="M39.8018 17.6402C40.0312 17.7612 40.241 17.9254 40.4163 18.1183C39.9895 18.3891 39.4596 18.5209 38.9346 18.479C38.3998 18.4442 37.9558 18.2489 37.6086 17.9565C37.9877 17.6306 38.482 17.4185 39.0303 17.4425C39.3014 17.4569 39.5614 17.5276 39.8018 17.6402Z" fill="black"/>
<path fill-rule="evenodd" clip-rule="evenodd" d="M28.209 49.5886C41.106 49.5886 51.561 39.5337 51.561 27.1302C51.561 14.7268 41.106 4.67188 28.209 4.67188C15.312 4.67188 4.85696 14.7268 4.85696 27.1302C4.85696 39.5337 15.312 49.5886 28.209 49.5886ZM28.209 48.9647C40.7477 48.9647 50.9123 39.1891 50.9123 27.1302C50.9123 15.0714 40.7477 5.29572 28.209 5.29572C15.6703 5.29572 5.50564 15.0714 5.50564 27.1302C5.50564 39.1891 15.6703 48.9647 28.209 48.9647Z" fill="black"/>
<path fill-rule="evenodd" clip-rule="evenodd" d="M30.6421 0.871396C29.2446 -0.290466 27.1724 -0.290464 25.7749 0.871396L24.8162 1.6684C23.8247 2.49267 22.4555 2.75461 21.2115 2.35799L20.0087 1.97449C18.2552 1.41543 16.3408 2.1781 15.5119 3.76588L14.9433 4.85507C14.3553 5.98148 13.1946 6.72742 11.8875 6.81882L10.6236 6.90724C8.78115 7.03608 7.31588 8.44531 7.18193 10.2173L7.08998 11.4328C6.99495 12.6899 6.21935 13.8063 5.04814 14.3718L3.91564 14.9186C2.26471 15.7158 1.47172 17.557 2.05301 19.2434L2.45176 20.4003C2.86415 21.5967 2.5918 22.9135 1.73475 23.867L0.906049 24.7891C-0.302017 26.1331 -0.302015 28.1261 0.906049 29.4702L1.73475 30.3922C2.5918 31.3458 2.86415 32.6626 2.45176 33.859L2.05301 35.0158C1.47172 36.7022 2.26471 38.5435 3.91564 39.3406L5.04814 39.8875C6.21935 40.4528 6.99495 41.5695 7.08998 42.8265L7.18193 44.0419C7.31588 45.8141 8.78115 47.2233 10.6236 47.3519L11.8875 47.4406C13.1946 47.5318 14.3553 48.2777 14.9433 49.404L15.5119 50.4934C16.3408 52.0812 18.2552 52.8438 20.0087 52.2847L21.2115 51.9013C22.4555 51.5046 23.8247 51.7667 24.8162 52.5907L25.7749 53.3879C27.1724 54.5496 29.2446 54.5496 30.6421 53.3879L31.6008 52.5907C32.5923 51.7667 33.9615 51.5046 35.2055 51.9013L36.4083 52.2847C38.1618 52.8438 40.0762 52.0812 40.9051 50.4934L41.4737 49.404C42.0616 48.2777 43.2226 47.5318 44.5295 47.4406L45.7934 47.3519C47.636 47.2233 49.1013 45.8141 49.235 44.0419L49.3272 42.8265C49.422 41.5695 50.1975 40.4528 51.3687 39.8875L52.5014 39.3406C54.1523 38.5435 54.9453 36.7022 54.3639 35.0158L53.9653 33.859C53.5528 32.6626 53.8253 31.3458 54.6821 30.3922L55.5109 29.4702C56.7189 28.1261 56.7189 26.1331 55.5109 24.7891L54.6821 23.867C53.8253 22.9135 53.5528 21.5967 53.9653 20.4003L54.3639 19.2435C54.9453 17.557 54.1523 15.7158 52.5014 14.9186L51.3687 14.3718C50.1975 13.8063 49.422 12.6899 49.3272 11.4328L49.235 10.2173C49.1013 8.44531 47.636 7.03608 45.7934 6.90724L44.5295 6.81882C43.2226 6.72742 42.0616 5.98148 41.4737 4.85507L40.9051 3.76588C40.0762 2.1781 38.1618 1.41543 36.4083 1.97449L35.2055 2.35799C33.9615 2.75461 32.5923 2.49267 31.6008 1.6684L30.6421 0.871396ZM31.1766 2.14037L30.2179 1.34336C29.064 0.384019 27.353 0.384023 26.1991 1.34336L25.2404 2.14037C24.0761 3.10831 22.4683 3.41591 21.0074 2.95016L19.8046 2.56666C18.3568 2.10505 16.776 2.73477 16.0916 4.04581L15.523 5.13499C14.8325 6.45775 13.4695 7.3337 11.9345 7.44105L10.6706 7.52944C9.14935 7.63585 7.9395 8.79942 7.82886 10.2625L7.73696 11.4781C7.62535 12.9543 6.71456 14.2652 5.3392 14.9293L4.2067 15.4762C2.84352 16.1344 2.18876 17.6547 2.66872 19.0471L3.06748 20.204C3.55175 21.6089 3.23192 23.1553 2.22548 24.275L1.39678 25.1971C0.39929 26.3069 0.399295 27.9524 1.39678 29.0622L2.22549 29.9842C3.23192 31.104 3.55175 32.6503 3.06748 34.0553L2.66873 35.2121C2.18876 36.6046 2.84353 38.1249 4.2067 38.7831L5.3392 39.3299C6.71456 39.994 7.62535 41.305 7.73696 42.7813L7.82886 43.9968C7.9395 45.4597 9.14935 46.6235 10.6706 46.7297L11.9345 46.8184C13.4695 46.9254 14.8325 47.8016 15.523 49.1245L16.0916 50.2134C16.776 51.5245 18.3568 52.154 19.8046 51.6926L21.0074 51.3093C22.4683 50.8433 24.0761 51.151 25.2404 52.1191L26.1991 52.9158C27.353 53.8753 29.064 53.8753 30.2179 52.9158L31.1766 52.1191C32.3409 51.151 33.9488 50.8433 35.4096 51.3093L36.6124 51.6926C38.0602 52.154 39.641 51.5245 40.3254 50.2134L40.894 49.1245C41.5845 47.8016 42.9475 46.9254 44.4826 46.8184L45.7464 46.7297C47.2675 46.6235 48.4776 45.4597 48.588 43.9968L48.6803 42.7813C48.7915 41.305 49.7025 39.994 51.078 39.3299L52.2103 38.7831C53.5735 38.1249 54.2281 36.6046 53.7483 35.2121L53.3497 34.0553C52.8652 32.6503 53.1851 31.104 54.1917 29.9842L55.0201 29.0622C56.0178 27.9524 56.0178 26.3069 55.0201 25.1971L54.1917 24.275C53.1851 23.1553 52.8652 21.6089 53.3497 20.204L53.7483 19.0471C54.2281 17.6547 53.5735 16.1344 52.2103 15.4762L51.078 14.9293C49.7025 14.2652 48.7915 12.9543 48.6803 11.4781L48.588 10.2625C48.4776 8.79942 47.2675 7.63585 45.7464 7.52944L44.4826 7.44105C42.9475 7.3337 41.5845 6.45775 40.894 5.13499L40.3254 4.04581C39.641 2.73477 38.0602 2.10505 36.6124 2.56665L35.4096 2.95016C33.9488 3.41591 32.3409 3.10831 31.1766 2.14037Z" fill="black"/>
</svg>
