<svg width="207" height="36" viewBox="0 0 207 36" fill="none" xmlns="http://www.w3.org/2000/svg">
<path d="M17.8968 0.000244141L23.1671 10.6432L34.9177 12.3666L26.4243 20.6678L28.4163 32.3759L17.8968 26.8634L7.37734 32.3759L9.36936 20.6678L0.875933 12.3666L12.6266 10.6432L17.8968 0.000244141Z" fill="#FF3D2E"/>
<path d="M60.6905 0L65.9607 10.6429L77.7114 12.3664L69.2179 20.6676L71.21 32.3757L60.6905 26.8631L50.171 32.3757L52.163 20.6676L43.6696 12.3664L55.4202 10.6429L60.6905 0Z" fill="#FF3D2E"/>
<path d="M103.484 0L108.754 10.6429L120.505 12.3664L112.012 20.6676L114.004 32.3757L103.484 26.8631L92.9646 32.3757L94.9567 20.6676L86.4632 12.3664L98.2139 10.6429L103.484 0Z" fill="#FF3D2E"/>
<path d="M146.278 0L151.548 10.6429L163.299 12.3664L154.805 20.6676L156.797 32.3757L146.278 26.8631L135.758 32.3757L137.75 20.6676L129.257 12.3664L141.008 10.6429L146.278 0Z" fill="#FF3D2E"/>
<path d="M189.071 0L194.342 10.6429L206.092 12.3664L197.599 20.6676L199.591 32.3757L189.071 26.8631L178.552 32.3757L180.544 20.6676L172.051 12.3664L183.801 10.6429L189.071 0Z" fill="#FF3D2E"/>
</svg>
