<svg width="60" height="63" viewBox="0 0 60 63" fill="none" xmlns="http://www.w3.org/2000/svg">
<path d="M57.2792 39.5102L44.1818 54.449C42.4601 56.4694 39.939 57.5714 37.2334 57.5714H32.8676H17.5565L14.1746 61L1.99951 49.1837L10.7311 40.551C14.359 37 19.7087 35.7755 24.5049 37.4286L26.4111 38.102H38.2172C40.3079 38.102 41.9681 39.8163 41.9067 41.898C41.8452 43.9184 40.0619 45.5102 38.0328 45.5102H30.9614C30.162 45.5102 29.5471 46.1837 29.5471 46.9184C29.5471 47.7143 30.2235 48.3265 30.9614 48.3265H32.9291H38.0943C41.7222 48.3265 44.7352 45.449 44.8582 41.9592V41.898L51.4376 34.551C52.8519 32.9592 55.25 32.7143 56.9103 34C58.509 35.4082 58.6935 37.9184 57.2792 39.5102ZM17.5565 19V16.8571C17.5565 15.9388 18.2329 15.0816 19.1553 14.9592L21.6764 14.5306C21.9838 13.4286 22.4143 12.3265 22.9677 11.3469L21.4919 9.26531C20.9385 8.46939 21.0615 7.42857 21.7379 6.7551L23.2751 5.22449C23.9515 4.55102 24.9968 4.42857 25.7962 4.97959L27.8869 6.44898C28.8707 5.89796 29.9776 5.46939 31.0844 5.16327L31.5148 2.65306C31.6993 1.67347 32.4987 1 33.421 1H35.6347C36.557 1 37.4179 1.67347 37.5408 2.59184L37.9713 5.10204C39.0781 5.46939 40.1849 5.89796 41.1688 6.44898L43.2594 4.97959C44.0588 4.42857 45.1041 4.55102 45.7805 5.22449L47.3178 6.7551C47.9942 7.42857 48.0557 8.46939 47.5638 9.26531L46.088 11.3469C46.6414 12.3265 47.0718 13.3673 47.3793 14.5306L49.9004 14.9592C50.8227 15.1429 51.4991 15.9388 51.4991 16.8571V19C51.4991 19.9184 50.8227 20.7755 49.9004 20.898L47.3178 21.3265C47.0103 22.4286 46.5799 23.5306 46.0265 24.5102L47.5023 26.5918C48.0557 27.3878 47.9327 28.4286 47.2563 29.102L45.719 30.6327C45.0427 31.3061 43.9973 31.3673 43.1979 30.8776L41.1688 29.3469C40.1849 29.898 39.1396 30.3265 37.9713 30.6327L37.5408 33.1429C37.3564 34.0612 36.557 34.7347 35.6347 34.7347H33.4825C32.5601 34.7347 31.6993 34.0612 31.5763 33.1429L31.1459 30.6327C30.039 30.3265 28.9322 29.898 27.9484 29.3469L25.7962 30.8163C24.9968 31.3673 23.9515 31.2449 23.2751 30.5714L21.7379 29.0408C21.0615 28.3673 21 27.3265 21.4919 26.5306L22.9677 24.449C22.4143 23.4694 21.9838 22.4286 21.6764 21.2653L19.1553 20.8367C18.2329 20.7143 17.5565 19.9184 17.5565 19ZM28.6863 17.898C28.6863 21.0816 31.2688 23.7143 34.5278 23.7143C37.7868 23.7143 40.3694 21.1429 40.3694 17.898C40.3694 14.7143 37.7868 12.0816 34.5278 12.0816C31.2688 12.0816 28.6863 14.7143 28.6863 17.898Z" stroke="white" stroke-width="2"/>
</svg>
