<svg width="114" height="60" viewBox="0 0 114 60" fill="none" xmlns="http://www.w3.org/2000/svg">
<path d="M57.1037 0.343842C25.2558 0.343842 0.274734 13.3245 0.274734 29.9488C0.274734 46.5731 25.2558 59.5537 57.1037 59.5537C88.9517 59.5537 113.933 46.5731 113.933 29.9488C113.933 13.3245 88.9517 0.343842 57.1037 0.343842ZM51.1841 9.45305H57.3405L55.3278 18.5622H60.8923C64.4442 18.5622 66.812 19.0177 68.1144 20.2702C69.4167 21.4089 69.7719 23.3446 69.2983 25.9635L66.9304 36.7807H60.6556L62.905 26.7605C63.1418 25.3942 63.0234 24.3694 62.5499 23.9139C62.0763 23.4584 61.0107 23.1169 59.4716 23.1169H54.4991L51.5392 36.7807H45.2644L51.1841 9.45305ZM23.9535 18.5622H36.6216C42.6597 18.5622 46.3299 22.4337 44.9092 28.2408C43.2517 34.9588 38.8711 36.7807 30.7019 36.7807H26.7949L25.611 43.6126H19.3361L23.9535 18.5622ZM73.6789 18.5622H86.347C92.3851 18.5622 96.0553 22.4337 94.6346 28.2408C92.9771 34.9588 88.5965 36.7807 80.4273 36.7807H76.5203L75.3364 43.6126H69.0615L73.6789 18.5622ZM29.2812 23.1169L27.5053 32.2261H31.5307C35.0825 32.2261 38.2791 31.8845 38.8711 26.7605C39.1079 24.8248 38.2791 23.003 34.1354 23.003L29.2812 23.1169ZM79.0066 23.1169L77.2307 32.2261H81.2561C84.8079 32.2261 88.0045 31.8845 88.5965 26.7605C88.8333 24.8248 88.0045 23.003 83.8607 23.003L79.0066 23.1169Z" fill="black"/>
</svg>
