<svg width="174" height="54" viewBox="0 0 174 54" fill="none" xmlns="http://www.w3.org/2000/svg">
<path d="M46.0959 15.8803C46.6827 15.6601 46.9975 15.1783 47.6129 14.2424C48.214 13.334 48.7292 12.5495 48.7149 11.4346C48.7149 11.1181 48.6576 9.74169 47.6272 8.91587C47.0691 8.47543 46.4823 8.39285 46.3249 8.36532C45.7095 8.2965 45.2516 8.47543 44.8938 8.61307C44.121 8.91587 43.6344 9.38383 43.3482 9.67287C42.7471 10.2647 42.4466 10.8428 42.2606 11.1869C41.9743 11.7374 41.7597 12.1641 41.7167 12.577C41.6023 14.2562 44.3357 16.5409 46.0959 15.8803Z" fill="#FFE4CC"/>
<path d="M46.5824 14.559C27.3339 -15.4045 0.429016 12.6596 0.429016 12.6596C0.429016 12.6596 11.8207 7.99372 18.1319 13.4854C18.1319 13.4854 0.429016 18.1926 4.14991 39.5538C4.14991 39.5538 9.47364 26.7949 22.8402 33.3602C22.8402 33.3602 9.90298 34.7503 16.0997 53.6203C16.0997 53.6203 24.5719 42.8846 30.3106 45.4997C32.3428 46.4356 31.8133 51.2529 31.8133 51.2529C31.8133 51.2529 35.3625 44.6464 38.1388 45.4722C38.1388 45.4722 39.3123 47.4129 36.536 51.2116C36.536 51.2116 42.4178 49.3398 43.3767 44.8253C43.3767 44.8253 47.441 46.0365 46.5824 49.8353C46.5824 49.8353 58.6609 41.3156 52.4785 30.5111C52.4785 30.4973 48.9008 18.1513 46.5824 14.559Z" fill="url(#paint0_linear_1_745)"/>
<path d="M26.7193 23.6428C25.9035 23.7942 25.2166 23.4777 23.8713 22.8858C22.5833 22.3078 21.4671 21.8123 20.7372 20.6011C20.5369 20.2707 19.6925 18.743 20.3365 17.1739C20.68 16.3343 21.324 15.8526 21.4814 15.7287C22.154 15.247 22.8123 15.1369 23.2989 15.0405C24.4009 14.8478 25.2738 15.0405 25.789 15.1506C26.8767 15.3984 27.6208 15.8113 28.0502 16.0591C28.7514 16.4582 29.2809 16.7748 29.5958 17.2014C30.8838 18.9219 29.1951 23.1886 26.7193 23.6428Z" fill="#FFE4CC"/>
<path d="M44.7511 22.1565C44.7511 22.1565 36.5079 10.7326 43.5347 10.3335C43.5347 10.3335 51.4487 15.5362 53.1375 24.0834C54.7689 32.4655 44.7511 22.1565 44.7511 22.1565Z" fill="#FFC76E"/>
<path d="M27.9216 36.2919C27.9216 36.2919 17.8752 23.6293 31.4278 13.6093C33.1309 12.3568 38.8696 8.4342 42.2327 22.8172C45.5958 37.2003 27.9216 36.2919 27.9216 36.2919Z" fill="#FFC76E"/>
<path d="M27.922 36.2919C27.922 36.2919 33.1885 18.2065 53.2097 24.6892C53.2097 24.6892 54.9986 34.3788 44.6374 38.2739C39.4997 40.2008 29.8397 38.6731 27.922 36.2919Z" fill="white"/>
<path d="M44.9521 30.5801L44.2652 30.4838C44.4656 29.0661 44.2652 24.7994 44.2652 24.7581L44.9521 24.7168C44.9664 24.8957 45.1668 29.0936 44.9521 30.5801Z" fill="#22212D"/>
<path d="M41.2006 23.065C41.2006 23.065 42.5315 21.6473 45.5941 21.9363C45.5941 21.9363 47.3257 22.2667 46.1808 24.0422C45.0359 25.8177 42.875 25.391 41.0146 24.0422C41.0003 24.0422 40.5566 23.4228 41.2006 23.065Z" fill="#22212D"/>
<path d="M43.147 31.1028C39.8268 31.1028 38.5961 27.7995 38.5818 27.7582C38.5102 27.5655 38.6247 27.3453 38.8251 27.2765C39.0254 27.2077 39.2544 27.3178 39.326 27.5105C39.3832 27.6619 40.7571 31.2955 44.664 30.0981C48.2274 29.0107 48.07 25.3634 48.0557 25.212C48.0414 25.0055 48.2131 24.8266 48.4278 24.8128C48.6425 24.7991 48.8285 24.9642 48.8428 25.1707C48.8428 25.212 49.0432 29.5613 44.9073 30.8275C44.2633 31.0065 43.6765 31.1028 43.147 31.1028Z" fill="#22212D"/>
<path d="M35.5481 23.2641C36.3255 23.0896 36.752 22.108 36.5006 21.0716C36.2492 20.0352 35.4151 19.3364 34.6377 19.5108C33.8602 19.6853 33.4338 20.6669 33.6852 21.7033C33.9366 22.7397 34.7706 23.4385 35.5481 23.2641Z" fill="#22212D"/>
<path d="M46.4768 21.0828C47.0156 20.9619 47.2821 20.1617 47.072 19.2956C46.8619 18.4294 46.2548 17.8252 45.716 17.9461C45.1772 18.067 44.9107 18.8672 45.1208 19.7334C45.3309 20.5995 45.938 21.2037 46.4768 21.0828Z" fill="#22212D"/>
<path opacity="0.5" d="M34.9531 25.609C35.8977 25.0845 36.4872 24.3658 36.2698 24.0037C36.0525 23.6417 35.1106 23.7734 34.166 24.2979C33.2214 24.8224 32.6319 25.5411 32.8492 25.9031C33.0666 26.2652 34.0085 26.1335 34.9531 25.609Z" fill="#FE4F28"/>
<path opacity="0.5" d="M49.7375 22.3395C49.8086 22.0433 49.2356 21.6632 48.4578 21.4906C47.6799 21.318 46.9917 21.4182 46.9207 21.7145C46.8496 22.0108 47.4226 22.3909 48.2004 22.5635C48.9783 22.7361 49.6665 22.6358 49.7375 22.3395Z" fill="#FE4F28"/>
<path d="M18.448 5.48863C18.6626 5.32346 18.8916 5.21335 19.1349 5.07572C19.3639 4.95184 19.6072 4.84174 19.8504 4.74539C20.337 4.53893 20.8379 4.37377 21.3388 4.22237C22.3549 3.93333 23.3996 3.78193 24.4729 3.72688C26.591 3.61677 28.7663 3.93333 30.7842 4.67657C31.285 4.8555 31.7859 5.07572 32.2725 5.29594L32.9881 5.66756C33.2314 5.79143 33.4603 5.9153 33.675 6.0667C34.5909 6.60348 35.4353 7.26414 36.1938 7.96609C37.7107 9.39751 38.9272 11.0904 39.5998 13.0174L39.6141 13.0449C39.6284 13.0999 39.5998 13.155 39.5569 13.1688C39.5139 13.1825 39.471 13.1688 39.4424 13.1412C39.1132 12.7834 38.7984 12.4255 38.4692 12.0814L37.954 11.5722L37.6964 11.3244L37.4245 11.0629L36.895 10.5812C36.709 10.416 36.5229 10.2646 36.3369 10.1132C35.9791 9.79666 35.5784 9.52138 35.192 9.23235C34.4049 8.6818 33.5891 8.15878 32.7162 7.70458C32.2868 7.4706 31.8432 7.2779 31.3995 7.07145C30.9559 6.89252 30.4979 6.69983 30.04 6.54843C28.2082 5.87401 26.2905 5.47486 24.3298 5.33723C23.3567 5.26841 22.3692 5.25465 21.396 5.32346C20.4229 5.37852 19.4354 5.48863 18.4909 5.70885C18.4336 5.72261 18.3764 5.69508 18.3764 5.64003C18.3621 5.59874 18.3764 5.55745 18.4193 5.54368L18.448 5.48863Z" fill="white"/>
<g opacity="0.7">
<path opacity="0.7" d="M23.9425 10.1409C24.4434 9.65919 25.0301 9.32886 25.6455 9.0123C25.9603 8.8609 26.2752 8.73703 26.6043 8.61315C26.9335 8.48928 27.2627 8.4067 27.6061 8.31035C28.9514 7.96626 30.3968 7.88368 31.785 8.07637C32.1284 8.11766 32.4862 8.18648 32.8297 8.26906C33.1731 8.36541 33.5166 8.43423 33.8457 8.5581C34.5184 8.77832 35.1481 9.06735 35.7491 9.41145C36.9513 10.0996 38.0103 10.9805 38.7831 12.0678L38.7974 12.0816C38.8117 12.1091 38.8117 12.1367 38.7831 12.1504C38.7688 12.1642 38.7401 12.1642 38.7115 12.1504C38.4539 11.9715 38.182 11.765 37.9244 11.5999C37.6525 11.4347 37.3806 11.242 37.0944 11.0906L36.6793 10.8429C36.5362 10.7603 36.3931 10.6915 36.25 10.6226C35.9638 10.4712 35.6633 10.3336 35.377 10.2097C34.7617 9.96199 34.1606 9.72801 33.5309 9.56285C32.9012 9.38392 32.2715 9.26005 31.6275 9.17746C30.3395 8.99854 29.0229 8.99854 27.7349 9.17746C27.0909 9.27381 26.4469 9.39768 25.8315 9.57661C25.2019 9.75554 24.5722 9.96199 23.9997 10.2373C23.9711 10.251 23.9425 10.2373 23.9282 10.2097C23.9139 10.1822 23.9282 10.1684 23.9425 10.1409Z" fill="white"/>
</g>
<g opacity="0.5">
<path opacity="0.5" d="M7.06982 30.979C7.38466 30.4009 7.81399 29.8917 8.25764 29.4099C8.71559 28.942 9.23079 28.5015 9.77462 28.1161C10.3184 27.717 10.9052 27.3867 11.5206 27.0839C12.1359 26.7948 12.7799 26.5608 13.4239 26.3544C14.7406 25.9828 16.1287 25.8314 17.4883 25.9277C18.8479 26.0241 20.1788 26.3131 21.3809 26.8499C21.3952 26.8637 21.4095 26.8774 21.3952 26.8912C21.3809 26.9049 21.3666 26.9187 21.3523 26.9049C20.0786 26.6021 18.7763 26.437 17.474 26.437C16.8157 26.4507 16.1717 26.4783 15.5277 26.5746C14.8837 26.6572 14.2397 26.7948 13.6243 26.9875C12.3649 27.3316 11.1771 27.8684 10.0751 28.5428C8.95888 29.231 7.94279 30.0431 7.11275 31.0203C7.09844 31.034 7.08413 31.034 7.06982 31.0203C7.0555 31.0065 7.0555 30.9928 7.06982 30.979Z" fill="white"/>
</g>
<g opacity="0.5">
<path opacity="0.5" d="M18.447 46.243C18.4327 45.3897 18.6903 44.5501 19.091 43.7931C19.1912 43.6004 19.2914 43.4077 19.4202 43.2288C19.549 43.0498 19.6778 42.8709 19.8066 42.7057C19.9497 42.5406 20.1071 42.3892 20.2502 42.224C20.4077 42.0588 20.5794 41.9212 20.7368 41.7698C20.9086 41.6184 21.0946 41.4945 21.2663 41.3707C21.4524 41.2468 21.6241 41.1091 21.8245 41.0128L22.4255 40.71C22.6259 40.6137 22.8406 40.5586 23.0552 40.476C23.4703 40.3109 23.9139 40.2558 24.3432 40.1732L24.5007 40.1457L24.6724 40.1319C24.7869 40.1319 24.8871 40.1182 25.0015 40.1182C25.2162 40.1182 25.4452 40.1182 25.6599 40.1319C25.6742 40.1319 25.6885 40.1457 25.6885 40.1732C25.6885 40.187 25.6742 40.2007 25.6599 40.2007L25.0445 40.3384L24.7439 40.4072L24.5865 40.4485L24.4434 40.5035C24.057 40.6412 23.642 40.7513 23.2699 40.944C22.4971 41.2605 21.8102 41.7285 21.1805 42.2378C20.5365 42.7608 19.9926 43.3664 19.549 44.0408C19.4345 44.206 19.3343 44.3849 19.2342 44.5638C19.134 44.7428 19.0481 44.9217 18.9479 45.1006C18.7762 45.4585 18.6188 45.8439 18.5043 46.2292C18.5043 46.243 18.4757 46.2568 18.4614 46.2568C18.4614 46.2705 18.447 46.2568 18.447 46.243Z" fill="white"/>
</g>
<g opacity="0.5">
<path opacity="0.5" d="M49.4013 37.3101C49.9022 37.8194 50.2313 38.4525 50.446 39.1269C50.5605 39.4573 50.6177 39.8151 50.675 40.1592C50.6893 40.3381 50.7036 40.5171 50.7036 40.696C50.7036 40.8749 50.6893 41.0538 50.6893 41.2328C50.6177 41.9347 50.4603 42.6504 50.1312 43.2836C50.0024 43.6139 49.7734 43.9029 49.5873 44.192C49.3726 44.4672 49.1294 44.7287 48.8717 44.9765C48.8574 44.9902 48.8431 44.9902 48.8431 44.9765C48.8288 44.9627 48.8288 44.9627 48.8431 44.949C49.0149 44.6599 49.2152 44.3846 49.387 44.0818C49.5301 43.779 49.7018 43.49 49.802 43.1597C50.0596 42.5403 50.1884 41.8659 50.2313 41.2052C50.2886 40.5446 50.2313 39.8564 50.0882 39.2095C49.9451 38.5489 49.7018 37.9157 49.3583 37.3377C49.3583 37.3239 49.3583 37.3101 49.3727 37.3101C49.3727 37.2964 49.387 37.2964 49.4013 37.3101Z" fill="white"/>
</g>
<g opacity="0.5">
<path opacity="0.5" d="M41.0019 40.9303C41.4312 41.2468 41.7604 41.6873 41.9751 42.1552C42.0896 42.3892 42.1611 42.6507 42.2327 42.8985C42.2613 43.0223 42.2756 43.16 42.3042 43.2839C42.3185 43.4215 42.3329 43.5454 42.3329 43.683C42.3329 44.206 42.2613 44.7566 42.0609 45.2383C41.9751 45.486 41.832 45.7063 41.7032 45.9402C41.56 46.1605 41.374 46.3532 41.1879 46.5321C41.1736 46.5458 41.1593 46.5458 41.1593 46.5321C41.145 46.5183 41.145 46.5183 41.1593 46.5046C41.2738 46.2843 41.3883 46.0641 41.4885 45.8439C41.5744 45.6099 41.6745 45.3897 41.7318 45.142C41.8749 44.674 41.9178 44.1785 41.9035 43.6968C41.9035 43.2013 41.8033 42.7195 41.6459 42.2516C41.4885 41.7836 41.2738 41.3294 40.9733 40.944C40.959 40.9303 40.9733 40.9165 40.9733 40.9165C40.9876 40.9303 41.0019 40.9303 41.0019 40.9303Z" fill="white"/>
</g>
<path d="M70.6971 31.5709V38.7142H64.3287V14.0635H75.5486C81.8741 14.0635 86.1388 17.3943 86.1388 22.7208C86.1388 26.1617 84.2927 28.8732 81.2444 30.3597L87.8418 38.6867H80.1424L74.647 31.5433L70.6971 31.5709ZM75.3912 26.0654C77.8384 26.0654 79.799 24.7579 79.799 22.7346C79.799 20.7389 77.8384 19.4726 75.3912 19.4726H70.6971V26.0654H75.3912Z" fill="black"/>
<path d="M106.962 31.5296L107.005 31.6397H93.9678C94.4544 33.2363 95.7424 34.4612 98.0751 34.4612C99.3488 34.4612 100.336 33.9933 100.866 33.195H106.891C106.018 36.8148 102.526 39.0996 98.0035 39.0996C92.0072 39.0996 88.0287 35.2595 88.0287 29.8917C88.0287 24.5652 91.907 20.7251 97.7459 20.7251C103.055 20.7251 107.091 24.2348 107.091 29.5338C107.077 30.1945 107.077 30.8827 106.962 31.5296ZM93.8962 28.1988H101.352C101.009 26.2856 99.6922 25.2671 97.7316 25.2671C95.6565 25.2671 94.3399 26.4233 93.8962 28.1988Z" fill="black"/>
<path d="M129.786 38.7004H123.689V37.792C122.33 38.6316 120.67 39.127 118.68 39.127C113.743 39.127 109.607 35.1769 109.607 29.9192C109.607 24.7027 113.743 20.7938 118.68 20.7938C120.67 20.7938 122.33 21.3031 123.689 22.1289V12.9761H129.786V38.7004ZM123.689 32.6856V27.249C122.559 25.9827 121.242 25.5836 119.882 25.5836C117.392 25.5836 115.589 27.538 115.589 29.9329C115.589 32.3966 117.392 34.3235 119.882 34.3235C121.242 34.3235 122.559 33.9519 123.689 32.6856Z" fill="black"/>
<path d="M140.033 38.7004H133.936V12.9761H140.033V38.7004Z" fill="black"/>
<path d="M143.797 15.0823C143.797 13.1691 145.386 11.7515 147.375 11.7515C149.336 11.7515 150.953 13.1691 150.953 15.0823C150.953 16.9679 149.336 18.3718 147.375 18.3718C145.386 18.3856 143.797 16.9679 143.797 15.0823Z" fill="url(#paint1_linear_1_745)"/>
<path d="M150.467 21.1382H144.37V38.7144H150.467V21.1382Z" fill="black"/>
<path d="M173.594 29.8917C173.594 35.2458 169.458 39.2372 163.69 39.2372C157.923 39.2372 153.787 35.2595 153.787 29.8917C153.787 24.6065 157.923 20.7251 163.69 20.7251C169.458 20.7251 173.594 24.6065 173.594 29.8917ZM167.826 29.933C167.826 27.6482 166.166 25.8039 163.719 25.8039C161.229 25.8039 159.583 27.6482 159.583 29.933C159.583 32.2866 161.243 34.1722 163.719 34.1722C166.18 34.1722 167.826 32.2866 167.826 29.933Z" fill="black"/>
<defs>
<linearGradient id="paint0_linear_1_745" x1="0.429016" y1="27.1665" x2="54.2404" y2="27.1665" gradientUnits="userSpaceOnUse">
<stop stop-color="#FF2A7D"/>
<stop offset="0.1495" stop-color="#FF3466"/>
<stop offset="0.5451" stop-color="#FE4C2F"/>
<stop offset="0.8405" stop-color="#FE5A0D"/>
<stop offset="1" stop-color="#FE6000"/>
</linearGradient>
<linearGradient id="paint1_linear_1_745" x1="143.799" y1="15.0653" x2="150.956" y2="15.0653" gradientUnits="userSpaceOnUse">
<stop stop-color="#FF2A7D"/>
<stop offset="1" stop-color="#FF2A7D"/>
</linearGradient>
</defs>
</svg>
