<svg width="68" height="63" viewBox="0 0 68 63" fill="none" xmlns="http://www.w3.org/2000/svg">
<path d="M43.498 1.38086H25.666V61.0488H43.498V1.38086Z" stroke="black" stroke-width="2" stroke-linecap="round" stroke-linejoin="round"/>
<path d="M39.9207 6.25635H29.1777V12.7324H39.9207V6.25635Z" stroke="black" stroke-width="2" stroke-linecap="round" stroke-linejoin="round"/>
<path d="M39.9207 19.063H29.1777V25.5396H39.9207V19.063Z" stroke="black" stroke-width="2" stroke-linecap="round" stroke-linejoin="round"/>
<path d="M55.1185 24.084H48.541V28.0132H55.1185V24.084Z" stroke="#E51700" stroke-width="2" stroke-miterlimit="10" stroke-linecap="round" stroke-linejoin="round"/>
<path d="M55.1185 32.5239H48.541V36.4531H55.1185V32.5239Z" stroke="#E51700" stroke-width="2" stroke-miterlimit="10" stroke-linecap="round" stroke-linejoin="round"/>
<path d="M55.1185 40.9658H48.541V44.895H55.1185V40.9658Z" stroke="#E51700" stroke-width="2" stroke-miterlimit="10" stroke-linecap="round" stroke-linejoin="round"/>
<path d="M55.1185 49.4058H48.541V53.335H55.1185V49.4058Z" stroke="#E51700" stroke-width="2" stroke-miterlimit="10" stroke-linecap="round" stroke-linejoin="round"/>
<path d="M39.9207 31.8696H29.1777V38.3457H39.9207V31.8696Z" stroke="black" stroke-width="2" stroke-linecap="round" stroke-linejoin="round"/>
<path d="M39.9207 44.1665H29.1777V61.1211H39.9207V44.1665Z" stroke="black" stroke-width="2" stroke-linecap="round" stroke-linejoin="round"/>
<path d="M34.584 44.1665V61.1211" stroke="black" stroke-width="2" stroke-linecap="round" stroke-linejoin="round"/>
<path d="M43.4268 12.7319L60.2355 17.5345V60.9761" stroke="black" stroke-width="2" stroke-linecap="round" stroke-linejoin="round"/>
<path d="M13.9442 28.0513L20.5215 28.0513L20.5215 24.1221L13.9442 24.1221L13.9442 28.0513Z" stroke="#E51700" stroke-width="2" stroke-miterlimit="10" stroke-linecap="round" stroke-linejoin="round"/>
<path d="M13.9442 36.5044L20.5215 36.5044L20.5215 32.5757L13.9442 32.5757L13.9442 36.5044Z" stroke="#E51700" stroke-width="2" stroke-miterlimit="10" stroke-linecap="round" stroke-linejoin="round"/>
<path d="M13.9442 44.9585L20.5215 44.9585L20.5215 41.0293L13.9442 41.0293L13.9442 44.9585Z" stroke="#E51700" stroke-width="2" stroke-miterlimit="10" stroke-linecap="round" stroke-linejoin="round"/>
<path d="M13.9442 53.4121L20.5215 53.4121L20.5215 49.4824L13.9442 49.4824L13.9442 53.4121Z" stroke="#E51700" stroke-width="2" stroke-miterlimit="10" stroke-linecap="round" stroke-linejoin="round"/>
<path d="M25.6701 12.7319L8.86133 17.5345V60.9761" stroke="black" stroke-width="2" stroke-linecap="round" stroke-linejoin="round"/>
<path d="M1.91602 61.1216H66.6663" stroke="black" stroke-width="2" stroke-linecap="round" stroke-linejoin="round"/>
</svg>
