<svg width="83" height="72" viewBox="0 0 83 72" fill="none" xmlns="http://www.w3.org/2000/svg">
<path d="M58.6037 34.6656L66.8484 39.4836L58.6037 44.402V34.6656Z" stroke="#E51700" stroke-width="2" stroke-miterlimit="10" stroke-linecap="round" stroke-linejoin="round"/>
<path d="M64.0275 55.9444V68.2904C64.0275 69.3945 63.0882 70.2979 61.9401 70.2979H19.8808C18.7328 70.2979 17.7935 69.3945 17.7935 68.2904V53.7362" stroke="black" stroke-width="2"/>
<path d="M64.0275 11.5798V8.66896V3.24871C64.0275 2.14459 63.0882 1.24121 61.9401 1.24121H19.8808C18.7328 1.24121 17.7935 2.14459 17.7935 3.24871V5.45696" stroke="black" stroke-width="2"/>
<path d="M17.7935 35.0675V31.5547" stroke="black" stroke-width="2"/>
<path d="M64.0262 29.8473V24.9288" stroke="black" stroke-width="2"/>
<path d="M17.7935 61.5647H64.0275" stroke="black" stroke-width="2"/>
<path d="M64.026 8.66956H31.6726" stroke="black" stroke-width="2"/>
<path d="M36.7868 65.8818H44.9273" stroke="black" stroke-width="2" stroke-linecap="round" stroke-linejoin="round"/>
<path d="M81.7667 11.5796H54.5273V24.9291H81.7667V11.5796Z" stroke="black" stroke-width="2" stroke-linecap="round" stroke-linejoin="round"/>
<path d="M76.4488 29.8473V55.9442H41.0689L46.1828 48.617V29.8473H76.4488Z" stroke="black" stroke-width="2" stroke-linecap="round" stroke-linejoin="round"/>
<path d="M1.40869 5.45728V31.554H36.7887L31.6747 24.3272V5.45728H1.40869Z" stroke="black" stroke-width="2" stroke-linecap="round" stroke-linejoin="round"/>
<path d="M35.0193 36.3719V52.3311C35.0193 53.1341 34.3931 53.7363 33.5581 53.7363H8.40601C7.57108 53.7363 6.94489 53.1341 6.94489 52.3311V36.3719C6.94489 35.87 7.36235 35.3681 7.88418 35.1674C8.09291 35.067 8.30164 35.067 8.51038 35.067H33.6625C33.8712 35.067 34.08 35.067 34.2887 35.1674C34.7062 35.3681 35.0193 35.87 35.0193 36.3719Z" stroke="black" stroke-width="2"/>
<path d="M34.1861 35.1674L20.9317 46.911L7.78164 35.1674C7.99037 35.067 8.1991 35.067 8.40783 35.067H33.5599C33.7686 35.067 33.9773 35.067 34.1861 35.1674Z" stroke="black" stroke-width="2" stroke-linecap="round" stroke-linejoin="round"/>
<path d="M53.0688 48.7177H72.3765" stroke="#E51700" stroke-width="2" stroke-miterlimit="10" stroke-linecap="round" stroke-linejoin="round"/>
<path d="M26.8736 11.9818V24.5285H5.89613V11.9818H26.8736ZM28.9609 9.97437H3.80882V26.536H28.9609V9.97437Z" fill="#E51700"/>
<path d="M10.6974 25.4315L18.7335 16.6991L26.6653 25.4315" stroke="#E51700" stroke-width="2" stroke-miterlimit="10" stroke-linecap="round" stroke-linejoin="round"/>
<path d="M11.4288 18.2039C12.7546 18.2039 13.8293 17.1703 13.8293 15.8953C13.8293 14.6204 12.7546 13.5868 11.4288 13.5868C10.1031 13.5868 9.02841 14.6204 9.02841 15.8953C9.02841 17.1703 10.1031 18.2039 11.4288 18.2039Z" stroke="#E51700" stroke-width="2" stroke-miterlimit="10" stroke-linecap="round" stroke-linejoin="round"/>
</svg>
