<svg width="58" height="61" viewBox="0 0 58 61" fill="none" xmlns="http://www.w3.org/2000/svg">
<path d="M56.2206 22.5946C56.1701 22.5946 56.1701 22.5946 56.1196 22.5946C54.6544 22.5946 53.1893 22.5477 51.7747 22.5946C51.5726 22.5946 51.421 22.5946 51.32 22.5477C50.7137 19.7779 49.5517 17.2429 47.935 14.9426C48.036 14.8018 48.1876 14.661 48.4402 14.4262C49.4001 13.4873 50.4106 12.5954 51.421 11.6565C49.6527 9.35618 47.4803 7.33756 45.0047 5.69449C43.9943 6.68033 42.8828 7.61923 41.8723 8.60507C41.7208 8.7459 41.6197 8.83979 41.4682 8.88674C39.0431 7.3845 36.2644 6.30477 33.2836 5.78838C33.2331 5.69449 33.2331 5.6006 33.2331 5.50671C33.2836 4.75559 33.2331 4.05142 33.2331 3.3003C33.2331 2.59613 33.2331 1.9389 33.2331 1.23472C31.7679 1.09389 30.3028 1 28.7871 1C27.2715 1 25.8063 1.09389 24.3412 1.32861C24.3917 2.03279 24.3412 2.69001 24.3412 3.39419C24.3412 4.14531 24.3412 4.84948 24.3412 5.6006C24.3412 5.69449 24.3412 5.83532 24.2907 5.88227C21.3099 6.4456 18.5312 7.52533 16.1061 8.98063C15.9545 8.93368 15.8535 8.83979 15.7019 8.69896C14.6915 7.71311 13.6305 6.77422 12.5695 5.78838C10.094 7.43145 7.92152 9.45007 6.15325 11.7504C7.16369 12.6423 8.12361 13.5812 9.13405 14.5201C9.38666 14.7548 9.53823 14.8957 9.63927 15.0365C8.07309 17.2899 6.86056 19.8249 6.30482 22.5946C6.15325 22.6416 6.00168 22.6416 5.85012 22.6416C4.38498 22.5946 2.91984 22.6416 1.4547 22.6416C1.40418 22.6416 1.40418 22.6416 1.35365 22.6416C1.10104 24.003 1 25.4113 1 26.8666C1 28.275 1.10104 29.6833 1.35365 31.0447C1.40418 31.0447 1.4547 31.0447 1.55574 31.0447C3.0714 31.0447 4.58707 31.0447 6.15325 31.0447C6.20377 31.0447 6.25429 31.0447 6.30482 31.0447C6.91108 33.8614 8.12361 36.4434 9.74031 38.7437C9.68979 38.8376 9.63927 38.8845 9.53823 38.9784C8.52779 39.8234 7.56787 40.7623 6.55743 41.6542C6.45638 41.7481 6.35534 41.842 6.25429 41.9359C8.02257 44.1893 10.1445 46.2079 12.6201 47.804L12.7211 47.7101C13.7821 46.7243 14.843 45.7384 15.904 44.7526C16.005 44.6587 16.0556 44.6118 16.1566 44.5648C17.7733 45.5507 19.5416 46.3957 21.4614 46.959V37.8987C21.2088 37.7578 20.9562 37.57 20.7036 37.4292C19.4911 36.6311 18.3796 35.5984 17.4702 34.4717C16.2071 32.8756 15.3483 30.9978 14.9946 28.9322C14.8936 28.228 14.7925 27.5238 14.7925 26.8197C14.7925 26.1155 14.843 25.3644 14.9946 24.7072C15.3483 22.6885 16.2071 20.8107 17.4702 19.2146C18.3796 18.041 19.4405 17.0551 20.7036 16.2101C22.4214 15.0835 24.4422 14.2854 26.6147 13.9568C27.322 13.8629 28.0798 13.769 28.8376 13.769C29.5955 13.769 30.3533 13.8159 31.0606 13.9568C33.2331 14.2854 35.2539 15.0835 36.9717 16.2101C38.2347 17.0551 39.2957 18.041 40.2051 19.2146C41.4176 20.8107 42.327 22.6885 42.6807 24.7072C42.7817 25.4113 42.8828 26.1155 42.8828 26.8197C42.8828 27.5238 42.8323 28.228 42.6807 28.9322C42.327 30.9508 41.4682 32.8756 40.2051 34.4717C39.2957 35.5984 38.2347 36.6311 36.9717 37.4292C36.7191 37.617 36.4665 37.7578 36.2139 37.8987V47.006C38.0832 46.3957 39.8515 45.5976 41.5187 44.6118C41.6197 44.6587 41.6703 44.7057 41.7713 44.7996C42.8323 45.7854 43.8932 46.7712 44.9542 47.7571C45.0047 47.804 45.0047 47.804 45.0552 47.851C47.4803 46.2079 49.6527 44.2362 51.421 41.9829C51.32 41.889 51.2189 41.7951 51.1179 41.7012C50.158 40.8092 49.1475 39.8703 48.1876 38.9784C48.0866 38.8845 48.036 38.8376 47.9855 38.7437C49.6527 36.4434 50.8147 33.8614 51.421 31.0447C51.4715 31.0447 51.5221 31.0447 51.5726 31.0447C53.0882 31.0447 54.6039 31.0447 56.1701 31.0447C56.2206 31.0447 56.2711 31.0447 56.3722 31.0447C56.6248 29.6833 56.7258 28.275 56.7258 26.8666C56.5743 25.4113 56.4732 24.003 56.2206 22.5946Z" stroke="white" stroke-width="2"/>
<path d="M39.1422 26.9608C39.1422 23.6747 37.3739 20.811 34.6962 19.074C34.4942 18.9332 34.2921 18.8393 34.09 18.6985V19.2149V25.8341C34.09 27.1016 32.9785 28.1344 31.6144 28.1344H25.956C24.5919 28.1344 23.4804 27.1016 23.4804 25.8341V19.2618V18.6985C23.2278 18.8393 23.0257 18.9802 22.8236 19.121C20.1965 20.858 18.4787 23.7216 18.4282 26.9608C18.4282 27.0547 18.4282 27.1486 18.4282 27.2894C18.5292 30.4347 20.247 33.2045 22.8236 34.8945C23.2783 35.1762 23.733 35.4109 24.1877 35.6456V55.5033C24.1372 57.8036 26.0065 59.6814 28.482 59.9162C28.5831 59.9162 28.6841 59.9162 28.7347 59.9162C31.2608 59.9162 33.3322 58.0384 33.3322 55.6911V35.6456C33.7868 35.4578 34.191 35.2231 34.5952 34.9414C37.2729 33.2514 39.0411 30.3878 39.0917 27.1955C39.1422 27.1016 39.1422 27.0547 39.1422 26.9608Z" stroke="white" stroke-width="2"/>
</svg>
