<svg width="69" height="62" viewBox="0 0 69 62" fill="none" xmlns="http://www.w3.org/2000/svg">
<path d="M21.9652 44.0641H1.9964L4.45525 31.309H4.8278C5.87095 34.1753 8.70235 36.1817 11.9808 36.1817C15.2593 36.1817 18.0907 34.1753 19.1338 31.309H19.5064L21.9652 44.0641Z" stroke="black" stroke-width="2" stroke-linecap="round" stroke-linejoin="round"/>
<path d="M11.9815 32.6703C14.1213 32.6703 15.856 31.0019 15.856 28.9437C15.856 26.8855 14.1213 25.217 11.9815 25.217C9.84162 25.217 8.10693 26.8855 8.10693 28.9437C8.10693 31.0019 9.84162 32.6703 11.9815 32.6703Z" stroke="black" stroke-width="2" stroke-linecap="round" stroke-linejoin="round"/>
<path d="M11.9822 29.8039C12.476 29.8039 12.8763 29.419 12.8763 28.9442C12.8763 28.4694 12.476 28.0845 11.9822 28.0845C11.4883 28.0845 11.088 28.4694 11.088 28.9442C11.088 29.419 11.4883 29.8039 11.9822 29.8039Z" fill="black"/>
<path d="M18.986 9.02275C21.1259 9.02275 22.8605 7.35428 22.8605 5.29611C22.8605 3.23794 21.1259 1.56946 18.986 1.56946C16.8462 1.56946 15.1115 3.23794 15.1115 5.29611C15.1115 7.35428 16.8462 9.02275 18.986 9.02275Z" stroke="black" stroke-width="2" stroke-linecap="round" stroke-linejoin="round"/>
<path d="M18.986 6.15616C19.4798 6.15616 19.8801 5.77115 19.8801 5.29622C19.8801 4.82129 19.4798 4.43628 18.986 4.43628C18.4922 4.43628 18.0919 4.82129 18.0919 5.29622C18.0919 5.77115 18.4922 6.15616 18.986 6.15616Z" fill="black"/>
<path d="M21.9652 44.0646V60.26H1.9964V44.0646" stroke="black" stroke-width="2" stroke-linecap="round" stroke-linejoin="round"/>
<path d="M20.4004 10.9575L15.7062 22.4227H8.25519L13.918 8.2345" stroke="black" stroke-width="2" stroke-linecap="round" stroke-linejoin="round"/>
<path d="M45.808 4.00634V12.3191H38.804V7.80443H24.1254V1.49817H43.2747C44.6904 1.49817 45.808 2.64476 45.808 4.00634Z" stroke="black" stroke-width="2" stroke-linecap="round" stroke-linejoin="round"/>
<path d="M45.2877 14.684C45.2877 15.544 44.9151 16.3324 44.319 16.9057C43.7975 17.4074 43.0523 17.6941 42.2327 17.6941C40.519 17.6941 39.1032 16.3324 39.1032 14.684" stroke="black" stroke-width="2" stroke-linecap="round" stroke-linejoin="round"/>
<path d="M44.3172 16.9055L49.3094 23.0682V30.5925" stroke="black" stroke-width="2" stroke-linecap="round" stroke-linejoin="round"/>
<path d="M39.9974 16.9055L35.0052 23.0682V30.5925" stroke="black" stroke-width="2" stroke-linecap="round" stroke-linejoin="round"/>
<path d="M42.1565 21.1328V27.5111" stroke="black" stroke-width="2" stroke-linecap="round" stroke-linejoin="round"/>
<path d="M67.4893 33.2437C67.4893 33.2437 54.8225 35.1785 48.5636 39.7647C48.5636 39.7647 32.3948 39.693 28.0732 45.2825V53.4517C28.0732 54.3833 28.8928 55.1715 29.8614 55.1715H67.4893" stroke="#E51700" stroke-width="2" stroke-miterlimit="10" stroke-linecap="round" stroke-linejoin="round"/>
<path d="M32.7674 42.201C33.5125 44.8524 31.9478 47.6471 29.1908 48.4354L28.0732 48.7937" stroke="#E51700" stroke-width="2" stroke-miterlimit="10" stroke-linecap="round" stroke-linejoin="round"/>
<path d="M48.5644 39.7651C48.5644 39.7651 52.4389 44.495 67.4901 42.99" stroke="#E51700" stroke-width="2" stroke-miterlimit="10" stroke-linecap="round" stroke-linejoin="round"/>
<path d="M42.7549 60.6901C45.8824 60.6901 48.4177 58.2517 48.4177 55.2438C48.4177 52.2359 45.8824 49.7975 42.7549 49.7975C39.6274 49.7975 37.0921 52.2359 37.0921 55.2438C37.0921 58.2517 39.6274 60.6901 42.7549 60.6901Z" fill="white" stroke="#E51700" stroke-width="2" stroke-miterlimit="10" stroke-linecap="round" stroke-linejoin="round"/>
<path d="M42.7557 56.6045C43.5375 56.6045 44.1713 55.9949 44.1713 55.2429C44.1713 54.4908 43.5375 53.8812 42.7557 53.8812C41.9738 53.8812 41.34 54.4908 41.34 55.2429C41.34 55.9949 41.9738 56.6045 42.7557 56.6045Z" stroke="#E51700" stroke-width="2" stroke-miterlimit="10" stroke-linecap="round" stroke-linejoin="round"/>
</svg>
