<svg width="121" height="116" viewBox="0 0 121 116" fill="none" xmlns="http://www.w3.org/2000/svg">
<path d="M60.0071 3.4729C67.6186 3.4729 75.0177 4.90293 81.9566 7.72893C85.2844 9.09086 88.506 10.7593 91.5506 12.734C94.5244 14.6748 97.3566 16.8879 99.9056 19.3735C102.455 21.8249 104.791 24.5147 106.809 27.4088C108.862 30.3029 110.597 33.4013 112.013 36.6359C114.952 43.3094 116.438 50.4254 116.438 57.7458C116.438 65.0662 114.952 72.1823 112.013 78.8557C110.597 82.0562 108.862 85.1546 106.809 88.0828C104.791 90.9428 102.49 93.6667 99.9056 96.1182C97.3566 98.5696 94.5598 100.817 91.5506 102.758C88.5414 104.732 85.3198 106.401 81.9566 107.763C75.0177 110.589 67.6186 112.019 60.0071 112.019C52.3955 112.019 44.9964 110.589 38.0576 107.763C34.7298 106.401 31.5081 104.732 28.4635 102.758C25.4897 100.817 22.6576 98.6037 20.1086 96.1182C17.5596 93.6667 15.223 90.9769 13.2051 88.0828C11.1518 85.1887 9.41707 82.0903 8.00098 78.8557C5.06258 72.1823 3.57568 65.0662 3.57568 57.7458C3.57568 50.4254 5.06258 43.3094 8.00098 36.6359C9.41707 33.4354 11.1518 30.337 13.2051 27.4088C15.223 24.5488 17.5242 21.8249 20.1086 19.3735C22.6576 16.922 25.4543 14.6748 28.4635 12.734C31.4727 10.7593 34.6944 9.09086 38.0576 7.72893C44.9964 4.90293 52.3955 3.4729 60.0071 3.4729ZM60.0071 0C26.8704 0 0 25.8426 0 57.7118C0 89.5809 26.8704 115.424 60.0071 115.424C93.1437 115.424 120.014 89.5809 120.014 57.7118C120.014 25.8426 93.1437 0 60.0071 0Z" fill="#21759B"/>
<path d="M9.98911 57.7119C9.98911 76.7448 21.4949 93.19 38.1695 100.987L14.3082 38.1342C11.5468 44.1266 9.98911 50.732 9.98911 57.7119ZM93.7513 55.2944C93.7513 49.336 91.5209 45.2502 89.6446 42.0157C87.0956 38.0661 84.7237 34.6953 84.7237 30.7457C84.7237 26.3195 88.1931 22.1996 93.1141 22.1996C93.3265 22.1996 93.5389 22.2337 93.7513 22.2337C84.8653 14.4026 73.0054 9.60181 59.9773 9.60181C42.5239 9.60181 27.1239 18.216 18.2025 31.2905C19.3707 31.3245 20.4682 31.3586 21.4241 31.3586C26.6637 31.3586 34.7355 30.7457 34.7355 30.7457C37.426 30.6095 37.7446 34.3889 35.0541 34.6953C35.0541 34.6953 32.3281 35.0017 29.3189 35.1379L47.5157 87.2316L58.4551 55.669L50.6666 35.1379C47.976 35.0017 45.427 34.6953 45.427 34.6953C42.7364 34.5591 43.055 30.5755 45.7456 30.7457C45.7456 30.7457 53.9943 31.3586 58.9153 31.3586C64.1548 31.3586 72.2266 30.7457 72.2266 30.7457C74.9172 30.6095 75.2358 34.3889 72.5452 34.6953C72.5452 34.6953 69.8192 35.0017 66.81 35.1379L84.8653 86.823L90.0341 71.0928C92.406 64.2491 93.7513 59.3802 93.7513 55.2944ZM60.8978 61.8998L45.8872 103.813C50.3833 105.073 55.0918 105.788 60.0128 105.788C65.8188 105.788 71.4124 104.834 76.6165 103.064C76.4749 102.86 76.3687 102.655 76.2625 102.417L60.8978 61.8998ZM103.876 34.6272C104.089 36.1594 104.195 37.7937 104.195 39.5642C104.195 44.4331 103.239 49.9148 100.407 56.7926L85.1485 99.2506C100.018 90.9088 110.001 75.4169 110.001 57.6778C110.001 49.336 107.806 41.4709 103.876 34.6272Z" fill="#21759B"/>
</svg>
