<svg width="65" height="63" viewBox="0 0 65 63" fill="none" xmlns="http://www.w3.org/2000/svg">
<path d="M54.8528 39.6738C54.8528 39.6738 42.9693 28.4154 15.3133 44.6217C14.5931 45.052 13.7289 44.6934 13.3688 43.9763L9.62369 35.2278L6.45478 27.4831C6.1667 26.6943 6.59881 25.8338 7.39104 25.6904C38.5041 17.6589 38.9362 1.38086 38.9362 1.38086L43.9056 12.9978L47.0745 20.4556L49.4512 26.3358L54.8528 39.6738Z" stroke="black" stroke-width="2" stroke-linecap="round" stroke-linejoin="round"/>
<path d="M54.2031 19.5225C54.2031 22.6061 52.2586 25.2593 49.4498 26.335L47.0732 20.4548L43.9043 12.997C44.8406 12.5667 45.8488 12.3516 46.9291 12.3516C50.8902 12.3516 54.2031 15.5785 54.2031 19.5225Z" stroke="black" stroke-width="2" stroke-linecap="round" stroke-linejoin="round"/>
<path d="M21.4355 20.6709L29.2136 38.2402" stroke="black" stroke-width="2" stroke-linecap="round" stroke-linejoin="round"/>
<path d="M29.2095 38.5264L30.866 41.8248L19.4148 47.3462L17.3262 43.5458" stroke="black" stroke-width="2" stroke-linecap="round" stroke-linejoin="round"/>
<path d="M28.3475 43.0435L34.6132 55.2345C35.6215 57.2424 34.8293 59.6806 32.8127 60.6846C30.7962 61.6885 28.3475 60.8997 27.3392 58.9635L20.8574 46.629" stroke="black" stroke-width="2" stroke-linecap="round" stroke-linejoin="round"/>
<path d="M6.9574 29.6343L1.91602 31.8573L6.81337 43.833L11.9988 41.61" stroke="black" stroke-width="2" stroke-linecap="round" stroke-linejoin="round"/>
<path d="M52.7648 3.53174L50.748 9.62695" stroke="#E51700" stroke-width="2" stroke-miterlimit="10" stroke-linecap="round" stroke-linejoin="round"/>
<path d="M63.3503 26.4072L57.2285 24.3989" stroke="#E51700" stroke-width="2" stroke-miterlimit="10" stroke-linecap="round" stroke-linejoin="round"/>
<path d="M56.7949 15.5073L62.7006 13.1411" stroke="#E51700" stroke-width="2" stroke-miterlimit="10" stroke-linecap="round" stroke-linejoin="round"/>
<path d="M13.1543 29.8491L19.0599 27.5547" stroke="#E51700" stroke-width="2" stroke-miterlimit="10" stroke-linecap="round" stroke-linejoin="round"/>
<path d="M16.1035 36.0879L22.0092 33.7222" stroke="#E51700" stroke-width="2" stroke-miterlimit="10" stroke-linecap="round" stroke-linejoin="round"/>
</svg>
