<svg width="108" height="117" viewBox="0 0 108 117" fill="none" xmlns="http://www.w3.org/2000/svg">
<path d="M0.039978 0.891556L10.416 104.931L54.1275 116.315L97.2209 104.931L107.597 0.891556H0.039978Z" fill="#FD982C"/>
<path d="M54.1284 0.891556V116.315L97.2219 104.931L107.598 0.891556H54.1284Z" fill="#FA502E"/>
<path d="M86.1009 36.8213L40.1909 36.8204L40.9591 44.8974H85.8829L82.2524 90.0276L54.0838 97.9073L23.8495 88.8635V70.5618H42.631V76.0127L54.0875 79.4172L64.9423 76.0101L65.7325 62.4972H24.1407L19.4453 19.4469H86.1009V36.8213Z" fill="white"/>
<path d="M54.1209 19.4469H86.0994V36.8218H54.1209V19.4469Z" fill="#DEECF1"/>
<path d="M65.7312 62.4968L64.941 76.0098L54.1209 79.4064V97.8966L82.2511 90.0275L85.8816 44.8968H54.1209V62.4968H65.7312Z" fill="#DEECF1"/>
</svg>
