<svg width="75" height="72" viewBox="0 0 75 72" fill="none" xmlns="http://www.w3.org/2000/svg">
<path d="M43.1772 7.3822V7.76745L43.5777 7.86376C44.6793 8.05639 45.7809 8.34533 46.8825 8.73058L47.2831 8.8269L47.5835 8.53796L51.0886 4.58911C51.5893 4.01123 52.3904 3.8186 53.0914 4.20385L58.2989 7.09326C58.8998 7.47851 59.2002 8.1527 58.8998 8.92321L57.0972 13.8352L56.8969 14.2204L57.1974 14.5094C57.9985 15.1836 58.7997 15.9541 59.6008 16.8209L59.9012 17.1098L60.3018 17.0135L65.4092 15.2799C66.2103 14.991 66.9113 15.2799 67.3119 15.8578L70.3162 20.8661C70.7168 21.4439 70.5165 22.2145 69.9157 22.7923L65.7096 26.067L65.4092 26.3559L65.5093 26.7412C65.9099 27.8006 66.1102 28.8601 66.4106 29.9195L66.5108 30.3048L66.9113 30.4011L72.219 31.3642C73.0201 31.4605 73.621 32.0384 73.621 32.8089V38.5877C73.621 39.2619 73.0201 39.8398 72.219 40.0324L66.9113 40.9956L66.5108 41.0919L66.4106 41.4771C66.2103 42.5366 65.9099 43.596 65.5093 44.6555L65.4092 45.0407L65.7096 45.3297L69.8155 48.7006C70.4164 49.1822 70.6167 49.9527 70.2161 50.6269C69.6152 51.59 69.0144 52.5532 68.4135 53.6126C68.0129 54.2868 67.6123 55.0573 67.1116 55.7315C66.711 56.3094 66.01 56.5983 65.2089 56.3094L60.1015 54.5757L59.8011 53.9979L59.5007 54.2868C58.7997 55.0573 57.9985 55.8278 57.0972 56.5983L56.8969 56.791L56.9971 57.1762L58.7997 62.0882C59.1001 62.8587 58.7997 63.5329 58.1988 63.9181L52.9913 66.8076C52.3904 67.1928 51.5893 67.0002 50.9884 66.4223L47.4834 62.4734L47.1829 62.1845L46.8825 62.2808C45.7809 62.6661 44.6793 62.8587 43.5777 63.1476L43.1772 63.244L43.077 63.6292L42.0756 68.7338C41.9754 69.5043 41.3746 70.0822 40.5734 70.0822H34.5648C33.8638 70.0822 33.2629 69.5043 33.0626 68.7338L32.0612 63.6292L31.961 63.244L31.5604 63.1476C30.4589 62.955 29.3573 62.6661 28.2557 62.2808L27.8551 62.1845V62.4734L24.3501 66.4223C23.8493 67.0002 23.0482 67.1928 22.3472 66.8076L17.1397 63.9181C16.5388 63.5329 16.2384 62.8587 16.5388 62.0882L18.3414 57.1762L18.4416 56.791L18.1411 56.502C17.34 55.8278 16.5388 55.0573 15.7377 54.1905L15.5374 53.9979L15.1368 54.0942L10.0294 55.8278C9.2283 56.1168 8.52729 55.8278 8.12671 55.2499C7.72613 54.5757 7.32556 53.8052 6.82484 53.131C6.22397 52.1679 5.62311 51.2048 5.02224 50.1453C4.62166 49.5675 4.82195 48.7969 5.42282 48.2191L9.52873 44.8481L9.82916 44.5592V44.3665C9.42858 43.3071 9.2283 42.2476 8.92786 41.1882L8.82772 40.8029L8.42714 40.7066L3.1195 39.7435C2.41849 39.6472 1.81763 39.1656 1.81763 38.3951V32.6163C1.81763 31.9421 2.41849 31.3642 3.21965 31.1716L8.52729 30.2085L8.82772 30.1122L8.92786 29.7269C9.12815 28.6675 9.42858 27.608 9.82916 26.5486L9.92931 26.1633L9.62887 26.067L5.52296 22.696C4.9221 22.2145 4.72181 21.4439 5.12238 20.7698L8.12671 15.7615C8.52729 15.1836 9.2283 14.8946 10.0294 15.1836L15.1368 16.9172L15.5374 17.0135L15.8378 16.7246C16.5388 15.9541 17.34 15.1836 18.2413 14.4131L18.5417 14.1241L18.4416 13.7389L16.639 8.8269C16.3385 8.05639 16.639 7.3822 17.2398 6.99694L22.4473 4.10754C23.0482 3.72229 23.8493 3.91491 24.4502 4.49279L27.8551 8.53796L28.1555 8.8269L28.456 8.73058C29.5576 8.34533 30.6591 8.1527 31.7607 7.86376L32.0612 7.76745L32.1613 7.3822L33.1628 2.27759C33.2629 1.60339 33.8638 1.02551 34.6649 1.02551H40.6736C41.3746 1.02551 41.9754 1.60339 42.1757 2.3739L43.1772 7.3822Z" stroke="black" stroke-width="2" stroke-linecap="round" stroke-linejoin="round"/>
<path d="M37.7672 44.2707C37.667 44.2707 37.667 44.2707 37.7672 44.2707C35.0633 44.2707 33.0604 43.4038 31.6583 41.8628C27.9529 37.8177 28.654 29.92 28.654 29.8237V29.7273C29.0545 21.3481 35.3637 20.6739 37.2665 20.6739C37.3666 20.6739 37.4667 20.6739 37.5669 20.6739H37.667C39.0691 20.5776 46.1794 20.7702 46.58 29.7273V29.92C46.8804 32.1352 46.7803 38.4919 43.5756 41.9591C42.3739 43.4038 40.371 44.2707 37.7672 44.2707Z" stroke="#E51700" stroke-width="2" stroke-miterlimit="10" stroke-linecap="round" stroke-linejoin="round"/>
<path d="M53.1921 50.2421C53.1921 50.2421 43.8787 48.0269 42.9774 42.537" stroke="#E51700" stroke-width="2" stroke-miterlimit="10" stroke-linecap="round" stroke-linejoin="round"/>
<path d="M22.1467 50.2421C22.1467 50.2421 31.46 48.0269 32.3613 42.537" stroke="#E51700" stroke-width="2" stroke-miterlimit="10" stroke-linecap="round" stroke-linejoin="round"/>
</svg>
