<svg width="74" height="61" viewBox="0 0 74 61" fill="none" xmlns="http://www.w3.org/2000/svg">
<path d="M37.5736 1V6.34996L48.3425 7.53883V3.87312C48.3425 2.28795 46.9564 1 45.2504 1H37.5736Z" stroke="white" stroke-width="2"/>
<path d="M23.2847 3.87323V7.73723L35.4398 6.35015V1H26.3768C24.6708 1 23.2847 2.288 23.2847 3.87323Z" stroke="white" stroke-width="2"/>
<path d="M61.0289 32.076C61.0289 44.6584 50.0467 54.863 36.5055 54.863C22.9644 54.863 11.9822 44.6584 11.9822 32.076C11.9822 30.5899 12.1954 29.1038 12.4087 27.7168H1V41.5871C1 48.4232 5.15831 56.9436 10.1696 56.9436H10.2762L36.5055 59.9158L62.8415 56.9436C67.9594 56.9436 72.0111 48.4232 72.0111 41.488V27.6177H60.4958C60.8156 29.1038 61.0289 30.5899 61.0289 32.076Z" stroke="white" stroke-width="2"/>
<path d="M62.8415 9.05838H62.7349L36.5055 6.08618L10.1696 9.05838C5.15831 9.05838 1 14.7056 1 21.5416V26.099H13.0484C16.0339 16.687 25.4167 9.75189 36.5055 9.75189C47.5944 9.75189 56.9772 16.687 59.9626 26.099H72.0111V21.5416C72.0111 14.7056 67.8528 9.05838 62.8415 9.05838Z" stroke="white" stroke-width="2"/>
<path d="M36.2571 48.093C45.3845 48.093 52.7838 41.2177 52.7838 32.7366C52.7838 24.2554 45.3845 17.3801 36.2571 17.3801C27.1297 17.3801 19.7305 24.2554 19.7305 32.7366C19.7305 41.2177 27.1297 48.093 36.2571 48.093Z" stroke="white" stroke-width="2"/>
<path d="M37.3592 23.5225V25.9893C32.7132 25.9893 28.9964 29.443 28.9964 33.76H26.3415C26.3415 28.0862 31.253 23.5225 37.3592 23.5225Z" fill="white"/>
</svg>
