<svg width="63" height="62" viewBox="0 0 63 62" fill="none" xmlns="http://www.w3.org/2000/svg">
<path d="M60.1646 38.8144L46.3837 53.4833C44.5721 55.4672 41.9195 56.5493 39.0727 56.5493H34.479H18.3689L14.8105 59.916L2 48.3131L11.1873 39.8364C15.0046 36.3496 20.6334 35.1472 25.6799 36.7704L27.6856 37.4317H40.1079C42.3076 37.4317 44.0545 39.115 43.9898 41.159C43.9251 43.143 42.0488 44.706 39.9138 44.706H32.4734C31.6323 44.706 30.9853 45.3673 30.9853 46.0888C30.9853 46.8703 31.697 47.4715 32.4734 47.4715H34.5437H39.9785C43.7957 47.4715 46.966 44.6459 47.0954 41.2192V41.159L54.0182 33.9448C55.5063 32.3818 58.0296 32.1413 59.7765 33.4038C61.4586 34.7865 61.6527 37.2514 60.1646 38.8144ZM18.3689 18.6748V16.5706C18.3689 15.6689 19.0806 14.8272 20.0511 14.707L22.7038 14.2862C23.0273 13.204 23.4802 12.1219 24.0625 11.16L22.5097 9.11598C21.9274 8.33444 22.0568 7.31243 22.7685 6.65112L24.3859 5.14817C25.0976 4.48686 26.1975 4.36663 27.0386 4.90769L29.2384 6.35053C30.2736 5.80947 31.4382 5.38864 32.6028 5.08805L33.0557 2.6232C33.2497 1.6613 34.0908 1 35.0613 1H37.3905C38.361 1 39.2668 1.6613 39.3962 2.56308L39.8491 5.02793C41.0137 5.38864 42.1782 5.80947 43.2134 6.35053L45.4132 4.90769C46.2543 4.36663 47.3542 4.48686 48.0659 5.14817L49.6834 6.65112C50.3951 7.31243 50.4598 8.33444 49.9422 9.11598L48.3894 11.16C48.9717 12.1219 49.4246 13.1439 49.7481 14.2862L52.4007 14.707C53.3712 14.8873 54.0829 15.6689 54.0829 16.5706V18.6748C54.0829 19.5766 53.3712 20.4182 52.4007 20.5385L49.6834 20.9593C49.3599 22.0414 48.907 23.1235 48.3247 24.0854L49.8775 26.1295C50.4598 26.911 50.3304 27.933 49.6187 28.5943L48.0012 30.0973C47.2895 30.7586 46.1896 30.8187 45.3485 30.3377L43.2134 28.8348C42.1782 29.3759 41.0784 29.7967 39.8491 30.0973L39.3962 32.5621C39.2021 33.4639 38.361 34.1252 37.3905 34.1252H35.126C34.1555 34.1252 33.2497 33.4639 33.1203 32.5621L32.6675 30.0973C31.5029 29.7967 30.3383 29.3759 29.3031 28.8348L27.0386 30.2776C26.1975 30.8187 25.0976 30.6985 24.3859 30.0372L22.7685 28.5342C22.0568 27.8729 21.9921 26.8509 22.5097 26.0693L24.0625 24.0253C23.4802 23.0634 23.0273 22.0414 22.7038 20.8992L20.0511 20.4783C19.0806 20.3581 18.3689 19.5766 18.3689 18.6748ZM30.0795 17.5927C30.0795 20.7188 32.7969 23.3039 36.2259 23.3039C39.655 23.3039 42.3723 20.7789 42.3723 17.5927C42.3723 14.4665 39.655 11.8814 36.2259 11.8814C32.7969 11.8814 30.0795 14.4665 30.0795 17.5927Z" stroke="white" stroke-width="2"/>
</svg>
