<svg width="121" height="79" viewBox="0 0 121 79" fill="none" xmlns="http://www.w3.org/2000/svg">
<path d="M29.6404 71.7647H25.0068C24.8352 64.2551 24.3847 57.189 23.6554 50.5666L16.6085 71.7647H13.0368L6.08649 50.5666C5.57165 56.9002 5.24987 63.9662 5.12116 71.7647H0.809387C1.06681 62.2952 1.74253 53.4445 2.83656 45.151H8.59633L15.2571 64.709L22.1752 45.151H27.6775C28.8574 54.8474 29.5653 63.7187 29.8013 71.7647H29.6404ZM49.7191 52.1448C48.6696 59.6845 46.1361 66.9629 42.2539 73.5905C41.4988 75.0181 40.3796 76.2381 39.0009 77.1366C37.6221 78.035 36.029 78.5824 34.3704 78.7276C33.3924 78.6848 32.4316 78.4643 31.5388 78.0777V75.6948C32.1812 75.7474 32.8271 75.7474 33.4695 75.6948C34.6401 75.7367 35.7857 75.3621 36.6872 74.6427C37.1631 74.2697 37.544 73.7969 37.8005 73.2605C38.0571 72.7241 38.1826 72.1383 38.1674 71.5481C37.9412 70.129 37.5527 68.7383 37.009 67.4013L31.8284 52.1448H36.3976L40.0337 63.4711C40.7107 65.2026 41.0595 67.0368 41.0634 68.8867C43.1224 63.4793 44.526 57.8615 45.2464 52.1448H49.7191Z" fill="black"/>
<path d="M111.341 71.7648H98.2127V45.151H102.621V68.4845H111.341V71.7648Z" fill="black"/>
<path fill-rule="evenodd" clip-rule="evenodd" d="M94.7752 72.4142L89.7555 70.0004C90.2132 69.6378 90.6334 69.2337 91.0105 68.7935C93.3841 65.6641 94.5245 61.8255 94.2282 57.9624C94.2282 49.1737 90.6243 44.7485 83.4488 44.7485C81.8986 44.6642 80.349 44.9246 78.9204 45.5096C77.4918 46.0946 76.2226 46.9884 75.2114 48.1216C72.8401 51.2403 71.6995 55.0685 71.9937 58.9218C71.6861 62.5617 72.6979 66.1919 74.8575 69.1958C75.8504 70.2504 77.0776 71.0762 78.448 71.612C79.8184 72.1477 81.2967 72.3796 82.7731 72.2904C84.0019 72.3035 85.2263 72.1471 86.4091 71.8263L92.9733 75.3851L94.7752 72.4142ZM78.3004 66.4416C76.9726 63.8509 76.3841 60.9674 76.595 58.0862C76.595 51.3709 78.7187 48.0287 83.0305 48.0287C83.9924 47.9658 84.9538 48.1576 85.8104 48.5831C86.6669 49.0086 87.3859 49.6517 87.8893 50.4425C89.212 53.0018 89.8007 55.8541 89.5947 58.7051C89.5947 65.4514 87.471 68.8554 83.1592 68.8554C82.1973 68.9183 81.2359 68.7266 80.3793 68.3011C79.5228 67.8755 78.8038 67.2324 78.3004 66.4416Z" fill="black"/>
<path d="M69.9896 64.3064C70.0183 65.356 69.8019 66.3985 69.3564 67.3571C68.9109 68.3158 68.2477 69.1662 67.4154 69.8458C65.4706 71.3717 63.0034 72.1442 60.4973 72.012C57.6791 71.9751 54.9398 71.1113 52.646 69.5363L53.8044 67.2463C55.6359 68.2061 57.6731 68.7462 59.7572 68.8245C61.1497 68.892 62.5273 68.5228 63.6828 67.7724C64.1725 67.4111 64.5632 66.9404 64.8211 66.4012C65.079 65.862 65.1964 65.2704 65.163 64.6777C65.163 63.0994 64.0368 61.7378 61.9453 60.6237C59.8537 59.5097 56.1212 57.5291 56.1212 57.5291C55.1071 56.9483 54.2736 56.1165 53.7076 55.1204C53.1416 54.1243 52.8639 53.0004 52.9034 51.8659C52.8633 50.8807 53.0535 49.8994 53.4601 48.9943C53.8666 48.0891 54.4791 47.2832 55.2524 46.6359C56.9518 45.2694 59.1208 44.563 61.3339 44.6554C63.8188 44.6404 66.255 45.3175 68.3485 46.605L67.2867 48.895C65.6014 48.1883 63.7838 47.8198 61.9453 47.8119C60.7877 47.7496 59.6455 48.0902 58.7275 48.7712C58.3452 49.0842 58.038 49.4731 57.8269 49.9111C57.6158 50.3492 57.5059 50.826 57.5048 51.3089C57.5048 52.8871 58.6632 54.2488 60.7225 55.3938C62.7819 56.5388 66.6753 58.4884 66.6753 58.4884C67.6964 59.054 68.5364 59.8783 69.1038 60.8714C69.6712 61.8646 69.9442 62.9885 69.8931 64.1207" fill="black"/>
<path fill-rule="evenodd" clip-rule="evenodd" d="M116.899 36.2382C114.712 36.0966 112.519 36.4025 110.463 37.1357C109.981 37.3523 109.176 37.3523 109.112 37.9403C109.048 38.5283 109.402 38.6211 109.627 38.9925C110.109 39.7166 110.694 40.3728 111.364 40.9421C112.072 41.4682 112.78 41.9633 113.52 42.4275C114.807 43.2012 116.288 43.6345 117.575 44.4081L119.763 45.9245C120.149 46.1721 120.374 46.6053 120.825 46.7601C120.599 46.4506 120.535 46.0483 120.31 45.7079C120.084 45.3675 119.634 45.1199 119.312 44.7795C118.308 43.5981 117.139 42.5565 115.837 41.6848C114.743 40.9731 112.426 39.9828 111.976 38.8068C112.765 38.7086 113.541 38.5323 114.293 38.2807C115.419 38.0022 116.448 38.0641 117.51 37.7856L119.087 37.3214V36.7643C118.508 36.1763 118.057 35.4027 117.446 34.8766C115.714 33.4167 113.863 32.0922 111.911 30.9154C110.882 30.2655 109.53 29.8632 108.436 29.3062C108.05 29.1205 107.374 29.0277 107.149 28.6872C106.588 27.9175 106.123 27.0865 105.766 26.2115C104.8 24.4476 103.867 22.4979 103.03 20.6102C102.534 19.363 101.965 18.1438 101.325 16.9585C98.249 11.9055 93.7993 7.7543 88.4541 4.95118C87.1022 4.31039 85.6606 3.86213 84.1745 3.62048H81.6647C81.1093 3.25565 80.5823 2.85227 80.088 2.41356C78.1895 1.23759 73.2664 -1.26909 71.8828 2.0422C70.9818 4.14657 73.2021 6.18905 73.9743 7.24123C74.6297 7.98576 75.2013 8.79488 75.6797 9.65507C75.905 10.2121 76.0015 10.8001 76.2267 11.3571C76.705 12.8369 77.2855 14.2843 77.9643 15.6897C78.3289 16.3736 78.7372 17.035 79.187 17.6702C79.4766 18.0107 79.9271 18.1654 80.0237 18.7534C79.6709 19.5269 79.4118 20.3368 79.2514 21.1672C78.076 24.7485 78.4231 28.6317 80.2167 31.9676C80.7637 32.7722 82.0508 34.5362 83.7562 33.8553C85.4616 33.1745 84.9146 31.4415 85.3329 29.8632C85.3329 29.4609 85.3329 29.2133 85.5903 28.9348C86.0408 29.8323 86.5235 30.6988 86.9418 31.5962C88.1379 33.247 89.605 34.6998 91.2857 35.8978C92.0902 36.4858 92.7337 37.4761 93.7312 37.8165C93.5381 37.538 93.2164 37.4142 92.9589 37.1666C92.3205 36.579 91.7389 35.9368 91.2214 35.2479C89.8052 33.4048 88.5564 31.4479 87.4888 29.399C86.9418 28.4087 86.4913 27.2946 86.0408 26.3044C85.8478 25.933 85.8478 25.345 85.4938 25.1593C84.8893 25.8252 84.3608 26.5514 83.9171 27.3256C83.3706 28.895 83.0565 30.5306 82.984 32.1842C82.8231 32.1842 82.984 32.1842 82.8231 32.1842C81.7612 31.9366 81.4073 30.8845 80.989 29.987C79.9568 27.2194 79.8555 24.2098 80.6994 21.3838C80.9246 20.734 81.9221 18.5986 81.536 17.9488C81.1499 17.2989 80.6672 16.9894 80.2811 16.5252C79.8221 15.8688 79.4237 15.175 79.0905 14.4518C78.2861 12.6569 77.8999 10.6763 77.0312 8.85046C76.534 7.98876 75.9749 7.16151 75.3579 6.37473C74.6493 5.60905 74.034 4.76804 73.5238 3.86805C73.3308 3.52764 73.1055 2.93965 73.3629 2.56829C73.3918 2.45922 73.4527 2.36042 73.5382 2.28362C73.6238 2.20682 73.7305 2.15525 73.8456 2.13504C74.2961 1.79463 75.5188 2.13504 75.9371 2.44451C77.0726 2.85565 78.1528 3.39589 79.1549 4.05373C79.6375 4.3632 80.1202 4.98213 80.7316 5.13686H81.4395C82.5013 5.35349 83.7241 5.13686 84.6572 5.47727C86.3457 6.02481 87.9563 6.77334 89.4516 7.70543C93.8736 10.4189 97.4704 14.2091 99.8771 18.6915C100.295 19.4342 100.456 20.115 100.81 20.8887C101.518 22.467 102.387 23.9834 103.095 25.6235C103.727 27.135 104.525 28.577 105.476 29.9251C105.959 30.575 107.986 30.9463 108.887 31.2868C109.788 31.6272 110.592 31.8438 111.171 32.1842C112.33 32.865 113.456 33.6387 114.389 34.3814C114.936 34.7837 116.609 35.5574 116.706 36.2073" fill="black"/>
<path fill-rule="evenodd" clip-rule="evenodd" d="M82.8034 8.32398C82.3479 8.32026 81.8938 8.37225 81.4519 8.47871C81.7696 8.94799 82.1246 9.39289 82.5138 9.80938C82.8034 10.3045 83.0286 10.8306 83.2861 11.3257C83.5392 11.1397 83.7376 10.8935 83.8617 10.6113C83.9859 10.3292 84.0314 10.0208 83.994 9.71654C83.8532 9.50673 83.7243 9.2898 83.6078 9.06668C83.3826 8.72627 82.9643 8.57154 82.6747 8.32398" fill="black"/>
<path d="M120.091 71.7648H120.767V68.4847H119.737L118.901 70.7127L117.968 68.4847H116.97V71.7648H117.614V69.2893L118.579 71.7648H119.094L120.059 69.2893L120.091 71.7648ZM114.492 71.7648H115.232V69.0417H116.198V68.4847H113.495V69.0417H114.492V71.7648Z" fill="black"/>
</svg>
