<svg width="73" height="72" viewBox="0 0 73 72" fill="none" xmlns="http://www.w3.org/2000/svg">
<path d="M63.0487 27.9207H3.65041C2.28372 27.9207 1.23242 26.8084 1.23242 25.5951V20.2363C1.23242 18.9219 2.38885 17.9108 3.65041 17.9108H63.0487C64.4154 17.9108 65.4667 19.023 65.4667 20.2363V25.5951C65.5718 26.9096 64.4154 27.9207 63.0487 27.9207Z" stroke="black" stroke-width="2" stroke-linecap="round" stroke-linejoin="round"/>
<path d="M61.6804 27.9202L59.3675 39.0421C58.3162 38.8399 57.2649 38.7388 56.2136 38.7388C47.593 38.7388 40.4441 45.7153 40.4441 54.4106C40.4441 55.6239 40.5493 56.9383 40.8647 58.0505H10.5873L4.27948 27.8191H61.6804V27.9202Z" stroke="black" stroke-width="2" stroke-linecap="round" stroke-linejoin="round"/>
<path d="M42.7581 1.02551L50.7479 17.8095" stroke="black" stroke-width="2" stroke-linecap="round" stroke-linejoin="round"/>
<path d="M24.0472 1.02551L16.0573 17.8095" stroke="black" stroke-width="2" stroke-linecap="round" stroke-linejoin="round"/>
<path d="M18.0532 34.1887V47.6362" stroke="black" stroke-width="2" stroke-linecap="round" stroke-linejoin="round"/>
<path d="M32.9806 34.189V47.6364" stroke="black" stroke-width="2" stroke-linecap="round" stroke-linejoin="round"/>
<path d="M47.9082 41.1655V34.189" stroke="black" stroke-width="2" stroke-linecap="round" stroke-linejoin="round"/>
<path d="M71.9855 54.4105C71.9855 63.1057 64.9418 70.0822 56.216 70.0822C48.857 70.0822 42.5492 65.0268 40.8671 58.0504C40.5517 56.8371 40.4466 55.6238 40.4466 54.4105C40.4466 45.7152 47.5954 38.7388 56.216 38.7388C57.2673 38.7388 58.4237 38.8399 59.3699 39.0421C66.5187 40.5587 71.9855 46.8274 71.9855 54.4105Z" stroke="#E51700" stroke-width="2"/>
<path d="M50.4331 53.9053C50.9588 54.2087 51.6947 54.4109 52.3255 54.4109C53.0614 54.4109 53.6921 54.2087 54.2178 53.9053C54.7435 53.602 55.164 53.0965 55.5845 52.5909C55.8999 51.9843 56.1101 51.2765 56.1101 50.5688C56.1101 49.7599 55.8999 49.1533 55.5845 48.5466C55.2691 47.94 54.8486 47.5355 54.2178 47.2322C53.6921 46.9289 53.0614 46.7267 52.3255 46.7267C51.5895 46.7267 50.9588 46.9289 50.4331 47.2322C49.9075 47.5355 49.3818 47.94 49.0664 48.5466C48.751 49.1533 48.5408 49.7599 48.5408 50.5688C48.5408 51.3776 48.751 51.9843 49.0664 52.5909C49.4869 53.1976 49.9075 53.602 50.4331 53.9053ZM50.8536 62.3984L50.7485 62.6006H51.0639H52.9562H53.0614V62.4995L62.1026 47.1311L62.2077 46.9289H61.8923H60H59.8948V47.03L50.8536 62.3984ZM53.587 52.1865C53.2716 52.5909 52.8511 52.6921 52.3255 52.6921C51.9049 52.6921 51.4844 52.4898 51.0639 52.1865C50.7485 51.8832 50.5382 51.2765 50.5382 50.5688C50.5382 49.861 50.7485 49.3555 51.0639 48.9511C51.4844 48.5466 51.9049 48.4455 52.3255 48.4455C52.746 48.4455 53.1665 48.6477 53.587 48.9511C53.9024 49.2544 54.1127 49.861 54.1127 50.5688C54.2178 51.2765 54.0075 51.7821 53.587 52.1865ZM58.7384 62.3984C59.264 62.7017 60 62.904 60.6307 62.904C61.3666 62.904 61.9974 62.7017 62.5231 62.3984C63.0487 62.0951 63.4692 61.5896 63.8898 61.084C64.2052 60.4774 64.4154 59.7696 64.4154 59.0619C64.4154 58.253 64.2052 57.6463 63.8898 57.0397C63.5744 56.433 63.1539 56.0286 62.5231 55.7253C61.9974 55.422 61.3666 55.2198 60.6307 55.2198C59.8948 55.2198 59.264 55.422 58.7384 55.7253C58.2127 56.0286 57.6871 56.433 57.3717 57.0397C57.0563 57.6463 56.8461 58.253 56.8461 59.0619C56.8461 59.8707 57.0563 60.4774 57.3717 61.084C57.7922 61.6907 58.2127 62.0951 58.7384 62.3984ZM61.8923 60.6796C61.5769 61.084 61.1564 61.1851 60.6307 61.1851C60.2102 61.1851 59.7897 60.9829 59.3692 60.6796C59.0538 60.3763 58.8435 59.7696 58.8435 59.0619C58.8435 58.3541 59.0538 57.8486 59.3692 57.4441C59.7897 57.0397 60.2102 56.9386 60.6307 56.9386C61.1564 56.9386 61.5769 57.1408 61.8923 57.4441C62.2077 57.7474 62.418 58.3541 62.418 59.0619C62.5231 59.7696 62.3128 60.2751 61.8923 60.6796Z" fill="#E51700" stroke="#E51700" stroke-width="0.3"/>
</svg>
