<svg width="53" height="62" viewBox="0 0 53 62" fill="none" xmlns="http://www.w3.org/2000/svg">
<path d="M51.7798 8.54752V32.1589C51.7798 36.4191 50.5785 40.607 48.176 44.1451C44.9476 48.9829 39.0164 55.3371 28.6555 60.0305C27.3041 60.6803 25.6524 60.6803 24.301 60.0305C13.9401 55.3371 8.08396 48.9829 4.7805 44.1451C2.37798 40.5348 1.17673 36.4191 1.17673 32.1589V8.54752C1.17673 4.57618 4.55527 1.3269 8.6846 1.3269H44.1968C48.4012 1.3269 51.7798 4.57618 51.7798 8.54752Z" stroke="black" stroke-width="2" stroke-linecap="round" stroke-linejoin="round"/>
<path d="M1.2529 8.54752V32.1589C1.2529 36.4191 2.45417 40.607 4.85669 44.1451C8.08508 48.9829 14.0163 55.3371 24.3772 60.0305C25.7286 60.6803 27.3803 60.6803 28.7317 60.0305C39.0926 55.3371 44.9487 48.9829 48.2522 44.1451C50.6547 40.5348 51.856 36.4191 51.856 32.1589V8.54752C51.856 4.57618 48.4775 1.3269 44.3481 1.3269H8.83586C4.63145 1.3269 1.2529 4.57618 1.2529 8.54752Z" stroke="black" stroke-width="2" stroke-linecap="round" stroke-linejoin="round"/>
<path d="M8.90997 12.0129V31.0033C8.90997 34.1082 9.73583 37.1409 11.3876 39.7404C13.7901 43.5673 18.2948 48.6218 26.4033 52.1599C26.4784 52.2321 26.6286 52.2321 26.7037 52.1599C34.8122 48.6218 39.3169 43.4951 41.7194 39.7404C43.3711 37.1409 44.197 34.036 44.197 31.0033V12.0129C44.197 9.91894 42.5453 8.25818 40.5181 8.25818H12.6639C10.5617 8.25818 8.90997 9.91894 8.90997 12.0129Z" stroke="black" stroke-width="2" stroke-linecap="round" stroke-linejoin="round"/>
<path d="M26.4773 37.7908C32.9044 37.7908 38.1145 32.78 38.1145 26.5988C38.1145 20.4176 32.9044 15.4067 26.4773 15.4067C20.0503 15.4067 14.8402 20.4176 14.8402 26.5988C14.8402 32.78 20.0503 37.7908 26.4773 37.7908Z" stroke="black" stroke-width="2" stroke-linecap="round" stroke-linejoin="round"/>
<path d="M32.7084 24.577V28.6783H28.5809V32.3752H24.0725V28.6783H19.945V24.577H24.0725V20.8223H28.5809V24.577H32.7084Z" fill="#E51700"/>
</svg>
