<svg width="61" height="62" viewBox="0 0 61 62" fill="none" xmlns="http://www.w3.org/2000/svg">
<path d="M51.9734 24.6203C51.9734 35.2918 43.0226 43.9001 31.9266 43.9001C20.8307 43.9001 11.8059 35.2918 11.8059 24.6203C11.8059 13.9488 20.8307 5.34045 31.9266 5.34045" stroke="black" stroke-width="2" stroke-miterlimit="10" stroke-linecap="round" stroke-linejoin="round"/>
<path d="M4.77594 28.9596C3.37046 20.8493 5.95951 12.1697 12.4691 5.90908C14.3185 4.13049 16.3897 2.63647 18.5349 1.49817L22.5295 7.54538" stroke="black" stroke-width="2" stroke-miterlimit="10" stroke-linecap="round" stroke-linejoin="round"/>
<path d="M6.62778 35.0066C7.9593 37.9946 9.95657 40.8403 12.4717 43.3303C17.7238 48.3814 24.5293 50.9425 31.4088 51.0848C37.8445 51.2271 44.3541 49.164 49.6062 44.8954L45.0939 39.204" stroke="black" stroke-width="2" stroke-miterlimit="10" stroke-linecap="round" stroke-linejoin="round"/>
<path d="M24.455 20.1378H33.7017L39.3976 16.4384L33.4798 12.1698L44.3538 12.8812L49.458 9.75091C51.3813 8.61262 53.7484 8.18576 55.8936 8.75491C57.1512 9.11062 58.4827 9.75091 59.6663 11.0315L33.7757 26.2562L24.455 20.1378Z" stroke="#E51700" stroke-width="2" stroke-miterlimit="10" stroke-linecap="round" stroke-linejoin="round"/>
<path d="M31.407 51.0858V56.35" stroke="black" stroke-width="2" stroke-miterlimit="10" stroke-linecap="round" stroke-linejoin="round"/>
<path d="M38.6579 60.6906H24.455C24.455 58.2713 26.5263 56.2789 29.0414 56.2789H34.0715C36.5866 56.3501 38.6579 58.2713 38.6579 60.6906Z" stroke="black" stroke-width="2" stroke-miterlimit="10" stroke-linecap="round" stroke-linejoin="round"/>
<path d="M23.7154 29.1734C23.7154 29.1734 17.0578 35.1492 5.59193 35.0069C-5.652 34.8646 11.8797 23.5532 11.8797 23.5532" stroke="black" stroke-width="2" stroke-miterlimit="10" stroke-linecap="round" stroke-linejoin="round"/>
<path d="M17.6473 26.6833C17.7953 26.7545 24.083 28.7465 24.083 28.7465V35.2203" stroke="black" stroke-width="2" stroke-miterlimit="10" stroke-linecap="round" stroke-linejoin="round"/>
</svg>
