<svg width="73" height="72" viewBox="0 0 73 72" fill="none" xmlns="http://www.w3.org/2000/svg">
<path d="M62.9501 45.1557V58.7654C62.9501 61.3865 60.7488 63.6043 57.9186 63.6043H6.03148C3.20127 63.5035 1 61.3865 1 58.6645V28.6224C1 26.0013 3.20127 23.7834 6.03148 23.7834H36.0107V41.4256C36.0107 43.4419 37.6879 45.0549 39.7843 45.0549H62.9501V45.1557Z" stroke="black" stroke-width="2" stroke-linecap="round" stroke-linejoin="round"/>
<path d="M44.0837 63.5039H19.9745V70.0566H44.0837V63.5039Z" stroke="black" stroke-width="2" stroke-linecap="round" stroke-linejoin="round"/>
<path d="M13.5787 70.0566H50.3713" stroke="black" stroke-width="2" stroke-linecap="round" stroke-linejoin="round"/>
<path d="M1 55.0352H62.9501" stroke="black" stroke-width="2" stroke-linecap="round" stroke-linejoin="round"/>
<path d="M71.0198 4.62927V41.426C71.0198 43.4423 69.3426 45.0553 67.2462 45.0553H39.7827C37.6862 45.0553 36.0091 43.4423 36.0091 41.426V4.62927C36.0091 2.61301 37.6862 1 39.7827 1H67.1414C69.3426 1 71.0198 2.61301 71.0198 4.62927Z" stroke="black" stroke-width="2" stroke-linecap="round" stroke-linejoin="round"/>
<path d="M36.0091 8.86328H71.0198" stroke="black" stroke-width="2" stroke-linecap="round" stroke-linejoin="round"/>
<path d="M40.8299 5.83794C41.2931 5.83794 41.6686 5.47692 41.6686 5.03158C41.6686 4.58624 41.2931 4.22522 40.8299 4.22522C40.3668 4.22522 39.9913 4.58624 39.9913 5.03158C39.9913 5.47692 40.3668 5.83794 40.8299 5.83794Z" fill="black"/>
<path d="M43.8681 5.83794C44.3313 5.83794 44.7067 5.47692 44.7067 5.03158C44.7067 4.58624 44.3313 4.22522 43.8681 4.22522C43.405 4.22522 43.0295 4.58624 43.0295 5.03158C43.0295 5.47692 43.405 5.83794 43.8681 5.83794Z" fill="black"/>
<path d="M46.9104 5.83794C47.3735 5.83794 47.7489 5.47692 47.7489 5.03158C47.7489 4.58624 47.3735 4.22522 46.9104 4.22522C46.4472 4.22522 46.0718 4.58624 46.0718 5.03158C46.0718 5.47692 46.4472 5.83794 46.9104 5.83794Z" fill="black"/>
<path d="M55.1949 19.0449V19.1458H55.2997C55.6142 19.2466 55.9287 19.3474 56.348 19.4482H56.4528L56.5576 19.3474L57.6058 18.1376C57.8155 17.936 58.0251 17.936 58.2347 18.0368L59.8071 18.9441C60.0167 19.0449 60.1215 19.2466 60.0167 19.549L59.4926 21.0612V21.162L59.5974 21.2628C59.8071 21.4645 60.1215 21.7669 60.3312 21.9685L60.436 22.0693H60.5408L62.1132 21.5653C62.3228 21.4645 62.6373 21.5653 62.7421 21.7669L63.6855 23.2791C63.7903 23.4807 63.7903 23.6823 63.5807 23.884L62.3228 24.8921L62.218 24.9929V25.0937C62.3228 25.3962 62.4276 25.6986 62.5325 26.1019V26.2027H62.6373L64.2096 26.5051C64.4192 26.5051 64.6289 26.7067 64.6289 26.9084V28.723C64.6289 28.9246 64.4192 29.1262 64.2096 29.1262L62.6373 29.4287H62.5325V29.5295C62.4276 29.8319 62.3228 30.1344 62.218 30.5376V30.6384L62.3228 30.7393L63.5807 31.7474C63.7903 31.949 63.7903 32.1506 63.6855 32.3523C63.4758 32.6547 63.371 32.9571 63.1614 33.2596C63.0566 33.4612 62.9517 33.6628 62.7421 33.8645C62.6373 34.0661 62.4276 34.1669 62.1132 34.0661L60.5408 33.562H60.436L60.3312 33.6628C60.1215 33.8645 59.8071 34.1669 59.5974 34.3685L59.3878 34.2677V34.3685L59.9119 35.8807C60.0167 36.0823 59.9119 36.3848 59.7023 36.4856L58.2347 37.2921C58.0251 37.3929 57.8155 37.3929 57.6058 37.1913L56.5576 35.9815L56.4528 35.8807H56.348C56.0335 35.9815 55.719 36.0823 55.2997 36.1832H55.1949V36.284L54.8804 37.7962C54.8804 37.9978 54.6708 38.1994 54.4612 38.1994H52.5744C52.3647 38.1994 52.1551 37.9978 52.1551 37.7962L51.8406 36.284V36.1832H51.7358C51.4213 36.0823 51.1069 35.9815 50.6876 35.8807H50.5827L50.4779 35.9815L49.4297 37.1913C49.2201 37.3929 49.0104 37.3929 48.8008 37.2921L47.2284 36.3848C47.0188 36.284 46.914 36.0823 47.0188 35.7799L47.5429 34.2677V34.1669L47.4381 34.0661C47.2284 33.8645 46.914 33.562 46.7043 33.3604L46.5995 33.2596H46.4947L45.0272 33.9653C44.8175 34.0661 44.5031 33.9653 44.3983 33.7636C44.2934 33.562 44.1886 33.3604 43.979 33.1588C43.7693 32.8563 43.6645 32.5539 43.4549 32.2514C43.35 32.0498 43.35 31.8482 43.5597 31.6466L44.8175 30.6384L44.9224 30.5376V30.4368C44.8175 30.1344 44.7127 29.8319 44.6079 29.4287V29.3279H44.5031L42.9307 29.0254C42.7211 29.0254 42.5115 28.8238 42.5115 28.6222V26.8075C42.5115 26.6059 42.7211 26.4043 42.9307 26.4043L44.5031 26.1019H44.6079V26.001C44.7127 25.6986 44.8175 25.3962 44.9224 24.9929V24.8921L44.8175 24.7913L43.5597 23.7832C43.35 23.5815 43.35 23.3799 43.4549 23.1783L44.3983 21.6661C44.5031 21.4645 44.7127 21.3636 45.0272 21.4645L46.5995 21.9685H46.7043L46.8092 21.8677C47.0188 21.6661 47.3333 21.3636 47.5429 21.162L47.6477 21.0612V20.9604L47.1236 19.4482C47.0188 19.2466 47.1236 18.9441 47.3333 18.8433L48.9056 17.936C49.1152 17.8352 49.3249 17.8352 49.5345 18.0368L50.5827 19.2466L50.6876 19.3474H50.7924C51.1069 19.2466 51.4213 19.1458 51.8406 19.0449H51.9454V18.9441L52.2599 17.4319C52.2599 17.2303 52.4695 17.0287 52.6792 17.0287H54.4612C54.6708 17.0287 54.8804 17.2303 54.8804 17.4319L55.1949 19.0449Z" stroke="#E51700" stroke-width="2" stroke-miterlimit="10" stroke-linecap="round" stroke-linejoin="round"/>
<path d="M53.5177 32.1501C56.1228 32.1501 58.2347 30.1189 58.2347 27.6134C58.2347 25.1079 56.1228 23.0768 53.5177 23.0768C50.9126 23.0768 48.8007 25.1079 48.8007 27.6134C48.8007 30.1189 50.9126 32.1501 53.5177 32.1501Z" stroke="#E51700" stroke-width="2" stroke-miterlimit="10" stroke-linecap="round" stroke-linejoin="round"/>
<path d="M6.34769 38.3008H30.4568" stroke="#E51700" stroke-width="2" stroke-miterlimit="10" stroke-linecap="round" stroke-linejoin="round"/>
<path d="M6.34769 45.7611H19.9745" stroke="#E51700" stroke-width="2" stroke-miterlimit="10" stroke-linecap="round" stroke-linejoin="round"/>
<path d="M24.1674 45.7611H30.4568" stroke="#E51700" stroke-width="2" stroke-miterlimit="10" stroke-linecap="round" stroke-linejoin="round"/>
<path d="M26.6816 10.7789C26.6816 12.0895 26.1575 13.2993 25.2141 14.2066C24.2707 15.1139 23.0128 15.618 21.6501 15.618H6.0315C3.30611 15.618 1 13.4001 1 10.7789C1 9.46836 1.52411 8.2586 2.46752 7.35128C3.41093 6.44396 4.6688 5.9399 6.0315 5.9399H7.91832C8.02314 5.73827 8.12796 5.43583 8.23278 5.2342C9.28101 3.31875 11.3775 2.00818 13.7884 2.00818C16.1993 2.00818 18.2958 3.31875 19.344 5.2342C19.4488 5.43583 19.5537 5.73827 19.6585 5.9399H21.5453C24.3755 5.9399 26.6816 8.15779 26.6816 10.7789Z" stroke="black" stroke-width="2" stroke-linecap="round" stroke-linejoin="round"/>
<path d="M26.6816 10.7791H36.0108" stroke="black" stroke-width="2" stroke-linecap="round" stroke-linejoin="round"/>
<path d="M12.113 23.7832V15.7179" stroke="black" stroke-width="2" stroke-linecap="round" stroke-linejoin="round"/>
</svg>
