<svg width="69" height="66" viewBox="0 0 69 66" fill="none" xmlns="http://www.w3.org/2000/svg">
<path d="M66.3922 35.2201C65.6291 33.9777 64.8594 32.7352 64.0962 31.4867C63.7179 30.8472 63.7179 30.0981 64.0962 29.4586C64.194 29.2941 64.2919 29.1358 64.3897 28.9774C64.8659 28.1978 65.3486 27.4243 65.8248 26.6448C66.1509 26.1149 66.4836 25.585 66.8097 25.0491C67.5598 23.7944 67.3641 22.1865 66.2683 21.1573C65.7661 20.6883 65.0681 20.3838 64.4615 20.0549C63.5874 19.5859 62.7134 19.117 61.8393 18.648C61.2588 18.3374 60.5282 18.045 60.1303 17.5273C59.6541 16.9061 59.7128 16.1996 59.7128 15.487V12.6915C59.7128 12.052 59.765 11.3882 59.6672 10.7547C59.4389 9.29912 58.1082 8.22111 56.5688 8.06885C55.9361 8.00795 55.2708 8.05667 54.6316 8.05667H51.6571C50.8809 8.05667 50.1243 8.0993 49.472 7.60598C48.9502 7.2101 48.6371 6.52796 48.3044 5.992C47.8021 5.17588 47.2999 4.35976 46.7976 3.54973C46.4323 2.95895 46.0997 2.29509 45.5452 1.83831C44.4168 0.906465 42.7991 0.760293 41.4945 1.44243C40.066 2.19155 38.6506 2.97113 37.2351 3.73244C37.0525 3.82989 36.8764 3.93343 36.6937 4.01869C36.0414 4.34149 35.2522 4.29885 34.6129 3.96997C34.0389 3.67154 33.478 3.36092 32.9039 3.05031C32.069 2.6057 31.2406 2.15501 30.4057 1.70432C29.5773 1.25971 28.7489 0.906465 27.7574 1.02218C26.5507 1.16226 25.6505 1.83831 25.0504 2.8006C24.6199 3.49491 24.1894 4.19532 23.7589 4.88963C23.348 5.55958 22.9305 6.22953 22.5196 6.89948C22.076 7.62425 21.3716 8.04449 20.4649 8.04449C18.795 8.05058 17.1252 8.04449 15.4488 8.04449C14.366 8.04449 13.3289 8.31856 12.5788 9.09814C12.0504 9.64628 11.7504 10.3284 11.6851 11.0593C11.6656 11.2603 11.6786 11.4673 11.6786 11.6683C11.6786 13.2092 11.6982 14.7501 11.6786 16.291C11.6721 17.168 11.1437 17.7831 10.361 18.2034C9.61086 18.6054 8.86073 19.0134 8.11061 19.4154C7.39962 19.7991 6.68863 20.1828 5.97764 20.5665C4.88832 21.1512 4.16428 22.1622 4.13167 23.3559C4.10558 24.2208 4.52304 24.9212 4.96659 25.6398C5.46233 26.4377 5.95154 27.2416 6.44728 28.0456C6.7669 28.5633 7.14523 29.081 7.41266 29.623C7.70619 30.2199 7.64748 30.9142 7.3083 31.4806C7.20393 31.6572 7.09304 31.8338 6.98215 32.0044C6.18637 33.2956 5.37101 34.5806 4.58827 35.8779C3.81857 37.163 4.04035 38.844 5.22751 39.8489C5.74934 40.2935 6.43424 40.5919 7.04086 40.9208C7.91492 41.3898 8.78246 41.8587 9.65652 42.3277C10.2566 42.6505 10.9676 42.9368 11.3459 43.5093C11.7634 44.1305 11.6851 44.837 11.6851 45.5374V48.3451C11.6851 48.9846 11.6264 49.6606 11.7504 50.294C12.0374 51.7436 13.4463 52.8033 14.9987 52.8703C15.6249 52.8947 16.2511 52.8703 16.8773 52.8703H19.7995C20.6214 52.8703 21.4042 52.8581 22.0499 53.4367C22.5196 53.857 22.8131 54.5086 23.1327 55.0263C23.6285 55.8303 24.1242 56.6403 24.6265 57.4442C25.0113 58.0655 25.357 58.7354 25.9702 59.1922C27.1051 60.0388 28.6445 60.1423 29.91 59.4724C30.5362 59.1435 31.1558 58.8024 31.7755 58.4674C32.5909 58.0289 33.4062 57.5904 34.2216 57.1519C34.4172 57.0484 34.6064 56.9266 34.8151 56.8413C35.4544 56.5794 36.1849 56.6342 36.7916 56.9509C38.2201 57.7 39.6355 58.4796 41.051 59.247C41.2141 59.3323 41.3706 59.4236 41.5337 59.5089C42.2577 59.8804 43.0665 59.9962 43.8754 59.8622C44.9908 59.6794 45.7996 58.9669 46.3475 58.0837C47.189 56.7195 48.0304 55.3491 48.8784 53.9849C49.3285 53.2601 50.046 52.8703 50.9396 52.8703C51.7419 52.8703 52.5442 52.8703 53.3466 52.8703H55.9883C57.0907 52.8703 58.1539 52.5536 58.8779 51.7314C59.3867 51.1528 59.6802 50.4463 59.6933 49.6911C59.6998 49.5206 59.6933 49.3439 59.6933 49.1734V46.5119C59.6933 45.8785 59.6868 45.245 59.6933 44.6116C59.6998 44.0452 59.9281 43.5214 60.3651 43.1317C60.5673 42.9489 60.8087 42.821 61.05 42.6931C62.5111 41.9075 63.9723 41.1279 65.4269 40.3361C66.5357 39.7393 67.2728 38.6613 67.2467 37.4493C67.2533 36.6088 66.8293 35.9327 66.3922 35.2201Z" stroke="white" stroke-width="2"/>
<path d="M-2.28882e-05 44.9651C-2.28882e-05 43.4371 0.498834 42.1774 1.49655 41.1859C2.50628 40.1945 3.7985 39.6987 5.37321 39.6987C6.97196 39.6987 8.26418 40.2003 9.24987 41.2034C10.2476 42.1949 10.7464 43.4838 10.7464 45.0701V46.3123C10.7464 47.852 10.2416 49.1117 9.23184 50.0915C8.23412 51.0597 6.95993 51.5437 5.40927 51.5437C3.84659 51.5437 2.55437 51.0597 1.53261 50.0915C0.510855 49.1117 -2.28882e-05 47.8112 -2.28882e-05 46.1899V44.9651ZM2.48825 46.3123C2.48825 47.2221 2.75271 47.9745 3.28162 48.5694C3.81052 49.1526 4.51974 49.4442 5.40927 49.4442C6.26274 49.4442 6.94791 49.1584 7.4648 48.5869C7.99371 48.0153 8.25817 47.2338 8.25817 46.2424V44.9651C8.25817 44.0553 7.99972 43.303 7.48283 42.7081C6.96595 42.1132 6.26274 41.8158 5.37321 41.8158C4.48368 41.8158 3.78047 42.1132 3.26358 42.7081C2.7467 43.303 2.48825 44.0786 2.48825 45.0351V46.3123ZM12.7839 59.2946C12.7839 57.7666 13.2828 56.5127 14.2805 55.5329C15.2902 54.5414 16.5825 54.0457 18.1572 54.0457C19.7319 54.0457 21.0241 54.5356 22.0338 55.5154C23.0436 56.4952 23.5484 57.7958 23.5484 59.4171V60.6593C23.5484 62.1873 23.0436 63.4471 22.0338 64.4385C21.0361 65.4183 19.7559 65.9082 18.1932 65.9082C16.6305 65.9082 15.3383 65.4241 14.3166 64.456C13.2948 63.4762 12.7839 62.1757 12.7839 60.5543V59.2946ZM15.2722 60.6593C15.2722 61.5808 15.5367 62.339 16.0656 62.9338C16.5945 63.517 17.3037 63.8087 18.1932 63.8087C19.0587 63.8087 19.7499 63.5229 20.2668 62.9513C20.7837 62.3681 21.0421 61.5808 21.0421 60.5893V59.2946C21.0421 58.3731 20.7777 57.6208 20.2488 57.0376C19.7319 56.4544 19.0347 56.1628 18.1572 56.1628C17.3037 56.1628 16.6065 56.4544 16.0656 57.0376C15.5367 57.6091 15.2722 58.3848 15.2722 59.3646V60.6593ZM6.16657 63.6162L4.27332 62.4614L17.0933 42.5506L18.9866 43.7054L6.16657 63.6162Z" fill="white"/>
</svg>
