<svg width="36" height="33" viewBox="0 0 36 33" fill="none" xmlns="http://www.w3.org/2000/svg">
<path d="M19.4109 0.557617H16.752C8.0346 0.557617 0.967773 7.62444 0.967773 16.3418C0.967773 25.0592 8.03458 32.126 16.752 32.126H19.4109C28.1282 32.126 35.195 25.0592 35.195 16.3418C35.195 7.62444 28.1282 0.557617 19.4109 0.557617Z" fill="#50ABF1"/>
<path d="M8.60801 21.8568C10.3236 22.8603 12.3586 23.441 14.54 23.441C20.6685 23.441 25.6365 18.8586 25.6365 13.2068C25.6365 13.0657 25.6332 12.9256 25.6274 12.7859C25.849 12.6251 27.22 11.6116 27.556 10.9601C27.556 10.9601 26.4427 11.3868 25.3531 11.4873C25.3509 11.4873 25.3483 11.4878 25.3461 11.4878C25.3461 11.4878 25.3483 11.4868 25.352 11.4844C25.4524 11.4225 26.8561 10.5412 27.0461 9.49119C27.0461 9.49119 26.2587 9.87884 25.1561 10.218C24.9736 10.2739 24.7825 10.3289 24.5855 10.3799C23.8748 9.68029 22.8646 9.24365 21.7432 9.24365C19.5923 9.24365 17.8494 10.8507 17.8494 12.8329C17.8494 13.1127 17.8843 13.3849 17.9503 13.6463C17.6497 13.635 13.0725 13.3983 9.95861 9.92037C9.95861 9.92037 8.09759 12.2636 11.0676 14.6731C11.0676 14.6731 10.1648 14.6399 9.38586 14.2107C9.38586 14.2107 9.09976 17.0494 12.4633 17.7752C12.4633 17.7752 11.8014 18.0064 10.7456 17.8416C10.7456 17.8416 11.336 20.1353 14.3243 20.3497C14.3243 20.3497 11.9613 22.3185 8.60693 21.8565L8.60801 21.8568Z" fill="white"/>
</svg>
