<svg width="35" height="33" viewBox="0 0 35 33" fill="none" xmlns="http://www.w3.org/2000/svg">
<path d="M19.0922 0.557617H16.4336C7.71623 0.557617 0.649414 7.62444 0.649414 16.3418C0.649414 25.0592 7.71624 32.126 16.4336 32.126H19.0922C27.8096 32.126 34.8764 25.0592 34.8764 16.3418C34.8764 7.62444 27.8096 0.557617 19.0922 0.557617Z" fill="#C9353D"/>
<path d="M13.9846 24.3272C9.80687 22.7169 7.0874 18.128 8.8169 13.4672C10.5277 8.85679 16.0622 6.44238 21.0455 8.14925C26.0429 9.86099 28.5147 14.9471 26.5773 19.5066C24.5716 24.227 19.1944 25.8971 15.1627 24.7194C15.4641 24.0328 15.8071 23.3553 16.0583 22.65C16.3106 21.9417 16.4715 21.2057 16.6607 20.524C16.8236 20.6504 16.9873 20.7844 17.1587 20.9094C18.0496 21.5588 19.0575 21.6218 20.1135 21.3877C21.2355 21.1388 22.1223 20.552 22.779 19.6894C23.8896 18.2305 24.2815 16.5799 24.0131 14.843C23.7355 13.0469 22.5825 11.7471 20.775 11.0926C18.0515 10.1065 15.4696 10.4385 13.2332 12.2458C11.5132 13.6358 10.935 15.9923 11.7623 17.8268C12.0491 18.4627 12.5022 18.9618 13.1878 19.2616C13.5353 19.4136 13.6828 19.3516 13.7833 19.0169C13.7908 18.992 13.7999 18.9674 13.8098 18.9432C14.0023 18.4749 13.9574 18.0898 13.6147 17.6377C12.9902 16.8136 13.1016 15.8597 13.4029 14.9457C13.9743 13.2125 15.6532 12.056 17.6221 12.0392C18.1495 12.0347 18.6924 12.0764 19.2032 12.1914C20.7226 12.5332 21.7035 13.617 21.8018 15.0539C21.8807 16.2062 21.6855 17.3257 21.1423 18.3779C20.8734 18.8988 20.5184 19.362 19.9902 19.6899C19.4939 19.9979 18.9513 20.1221 18.3625 19.9802C17.5512 19.7846 17.0907 19.102 17.2959 18.353C17.5085 17.5767 17.7837 16.8148 17.9923 16.0377C18.0805 15.709 18.1268 15.3521 18.0907 15.0173C17.992 14.1054 17.0579 13.6802 16.1847 14.1254C15.5731 14.4372 15.2786 14.9584 15.142 15.5614C15.0013 16.1827 15.0694 16.795 15.2886 17.3975C15.3326 17.5185 15.3391 17.6681 15.3081 17.793C14.9113 19.3886 14.487 20.9786 14.1113 22.5784C14.0017 23.0453 14.022 23.5383 13.9856 24.0195C13.9786 24.1116 13.9846 24.2046 13.9846 24.3272Z" fill="white"/>
</svg>
