<svg width="35" height="33" viewBox="0 0 35 33" fill="none" xmlns="http://www.w3.org/2000/svg">
<path d="M18.7739 0.557617H16.1151C7.39775 0.557617 0.330933 7.62444 0.330933 16.3418C0.330933 25.0592 7.39776 32.126 16.1151 32.126H18.7739C27.4913 32.126 34.5581 25.0592 34.5581 16.3418C34.5581 7.62444 27.4912 0.557617 18.7739 0.557617Z" fill="#15ACE5"/>
<path d="M26.2147 17.9248C26.3227 17.4125 26.38 16.8833 26.38 16.3418C26.38 11.7897 22.3794 8.09953 17.4443 8.09953C16.8572 8.09953 16.2835 8.15237 15.7281 8.25206C14.9644 7.83983 14.0762 7.60254 13.1275 7.60254C10.279 7.60254 7.96979 9.73251 7.96979 12.36C7.96979 13.2351 8.2271 14.0543 8.67395 14.7587C8.56587 15.2711 8.5086 15.8002 8.5086 16.3418C8.5086 20.8938 12.5092 24.584 17.4443 24.584C18.0314 24.584 18.6051 24.5311 19.1605 24.4315C19.9242 24.8437 20.8124 25.081 21.761 25.081C24.6096 25.081 26.9188 22.951 26.9188 20.3235C26.9189 19.4484 26.6616 18.6293 26.2147 17.9248ZM17.6141 22.0022C14.4389 22.0022 12.8513 20.9039 12.3628 19.524C11.8743 18.144 12.9429 17.7498 13.2787 17.7216C13.6145 17.6935 14.3269 17.7685 14.5305 18.3412C14.742 18.9363 15.4464 20.1153 16.9729 20.2562C18.4995 20.397 19.507 19.7492 19.8123 19.0734C20.1176 18.3975 19.5681 17.4682 17.2172 17.1584C14.8663 16.8486 12.4238 15.8911 12.4238 13.7227C12.4238 11.5542 15.1105 10.6812 17.6751 10.6812C20.2397 10.6812 21.5399 12.0173 21.8274 12.5399C22.1835 13.1876 22.0614 14.2668 21.2167 14.4549C20.3313 14.652 19.8734 14.2014 19.2322 13.1031C18.5692 11.9674 16.2097 12.2583 15.4159 12.906C14.6221 13.5537 14.8358 14.483 18.1331 15.0744C21.4305 15.6658 22.6517 16.7641 22.6517 18.482C22.6517 20.1998 20.7893 22.0022 17.6141 22.0022Z" fill="white"/>
</svg>
