<svg width="106" height="117" viewBox="0 0 106 117" fill="none" xmlns="http://www.w3.org/2000/svg">
<path d="M0.48584 0.178223L10.6012 105.183L53.2149 116.673L95.2261 105.183L105.341 0.178223H0.48584Z" fill="#FD982C"/>
<path d="M53.2158 0.178223V116.673L95.227 105.183L105.342 0.178223H53.2158Z" fill="#FA502E"/>
<path d="M84.3853 36.4414L39.6284 36.4405L40.3773 44.5924H84.1729L80.6336 90.1414L53.1724 98.0942L23.6974 88.9665V70.495H42.0072V75.9965L53.1759 79.4325L63.7582 75.9938L64.5285 62.3555H23.9813L19.4038 18.9058H84.3853V36.4414Z" fill="white"/>
<path d="M53.2085 18.9058H84.3839V36.4419H53.2085V18.9058Z" fill="#DEECF1"/>
<path d="M64.5272 62.3551L63.7568 75.9936L53.2085 79.4216V98.0835L80.6322 90.1413L84.1715 44.5918H53.2085V62.3551H64.5272Z" fill="#DEECF1"/>
</svg>
