<svg width="112" height="61" viewBox="0 0 112 61" fill="none" xmlns="http://www.w3.org/2000/svg">
<path d="M55.8212 0.875977C24.7731 0.875977 0.419434 13.977 0.419434 30.7556C0.419434 47.5342 24.7731 60.6353 55.8212 60.6353C86.8692 60.6353 111.223 47.5342 111.223 30.7556C111.223 13.977 86.8692 0.875977 55.8212 0.875977ZM50.0502 10.0697H56.052L54.0899 19.2634H59.5146C62.9772 19.2634 65.2856 19.7231 66.5553 20.9873C67.8249 22.1365 68.1711 24.0902 67.7095 26.7334L65.4011 37.6509H59.2838L61.4768 27.5378C61.7076 26.1587 61.5922 25.1245 61.1305 24.6648C60.6688 24.2051 59.63 23.8603 58.1296 23.8603H53.2819L50.3964 37.6509H44.2791L50.0502 10.0697ZM23.5035 19.2634H35.8535C41.7399 19.2634 45.3179 23.1708 43.9329 29.0318C42.317 35.8122 38.0464 37.6509 30.0824 37.6509H26.2736L25.1194 44.5462H19.0021L23.5035 19.2634ZM71.98 19.2634H84.33C90.2164 19.2634 93.7944 23.1708 92.4094 29.0318C90.7935 35.8122 86.523 37.6509 78.559 37.6509H74.7501L73.5959 44.5462H67.4786L71.98 19.2634ZM28.6974 23.8603L26.9661 33.0541H30.8904C34.353 33.0541 37.4693 32.7093 38.0464 27.5378C38.2773 25.5841 37.4693 23.7454 33.4296 23.7454L28.6974 23.8603ZM77.1739 23.8603L75.4426 33.0541H79.3669C82.8295 33.0541 85.9459 32.7093 86.523 27.5378C86.7538 25.5841 85.9459 23.7454 81.9062 23.7454L77.1739 23.8603Z" fill="black"/>
</svg>
