<svg width="118" height="80" viewBox="0 0 118 80" fill="none" xmlns="http://www.w3.org/2000/svg">
<path d="M28.5185 72.6322H24.0013C23.834 65.0529 23.3948 57.9213 22.6838 51.2373L15.8139 72.6322H12.3319L5.55618 51.2373C5.05427 57.6297 4.74058 64.7614 4.6151 72.6322H0.411621C0.662575 63.0748 1.32133 54.142 2.38788 45.7715H8.00299L14.4964 65.511L21.2408 45.7715H26.605C27.7552 55.5579 28.4453 64.5115 28.6753 72.6322H28.5185ZM48.0929 52.8302C47.0699 60.4399 44.5999 67.7858 40.8153 74.4749C40.0791 75.9158 38.988 77.1471 37.6439 78.0539C36.2998 78.9606 34.7467 79.5131 33.1298 79.6597C32.1763 79.6165 31.2396 79.394 30.3693 79.0038V76.5988C30.9955 76.6518 31.6252 76.6518 32.2514 76.5988C33.3927 76.641 34.5095 76.2629 35.3884 75.5369C35.8523 75.1604 36.2236 74.6832 36.4737 74.1419C36.7239 73.6005 36.8462 73.0093 36.8314 72.4135C36.6108 70.9813 36.2321 69.5777 35.7021 68.2283L30.6516 52.8302H35.106L38.6508 64.2616C39.3108 66.0092 39.6508 67.8604 39.6546 69.7275C41.6619 64.2699 43.0303 58.6 43.7326 52.8302H48.0929Z" fill="black"/>
<path d="M108.167 72.6323H95.3687V45.7715H99.6663V69.3216H108.167V72.6323Z" fill="black"/>
<path fill-rule="evenodd" clip-rule="evenodd" d="M92.0175 73.2877L87.1239 70.8515C87.57 70.4856 87.9797 70.0777 88.3473 69.6335C90.6612 66.475 91.773 62.6007 91.4842 58.7018C91.4842 49.8316 87.9708 45.3652 80.9755 45.3652C79.4642 45.2802 77.9536 45.5431 76.5608 46.1335C75.1681 46.7239 73.9308 47.626 72.945 48.7697C70.6332 51.9173 69.5213 55.7811 69.8081 59.6701C69.5082 63.3438 70.4947 67.0077 72.5999 70.0395C73.5679 71.1038 74.7644 71.9373 76.1003 72.478C77.4363 73.0187 78.8775 73.2528 80.3167 73.1628C81.5147 73.1759 82.7084 73.0182 83.8615 72.6943L90.2608 76.2861L92.0175 73.2877ZM75.9564 67.2597C74.662 64.6449 74.0883 61.7347 74.2939 58.8268C74.2939 52.0492 76.3642 48.676 80.5677 48.676C81.5054 48.6125 82.4427 48.806 83.2778 49.2355C84.1128 49.665 84.8137 50.314 85.3044 51.1122C86.5939 53.6951 87.1679 56.5739 86.967 59.4514C86.967 66.2603 84.8967 69.6959 80.6932 69.6959C79.7555 69.7594 78.8182 69.5659 77.9831 69.1364C77.1481 68.7069 76.4471 68.0579 75.9564 67.2597Z" fill="black"/>
<path d="M67.8543 65.1046C67.8822 66.164 67.6713 67.2162 67.237 68.1837C66.8027 69.1512 66.1561 70.0095 65.3448 70.6954C63.4488 72.2355 61.0436 73.0152 58.6004 72.8818C55.853 72.8445 53.1825 71.9728 50.9463 70.3831L52.0756 68.0718C53.8611 69.0405 55.8471 69.5857 57.8789 69.6647C59.2364 69.7329 60.5795 69.3602 61.7059 68.6028C62.1833 68.2381 62.5642 67.7631 62.8156 67.2189C63.067 66.6747 63.1814 66.0776 63.1489 65.4794C63.1489 63.8865 62.051 62.5122 60.012 61.3878C57.973 60.2634 54.3342 58.2645 54.3342 58.2645C53.3455 57.6783 52.533 56.8388 51.9812 55.8334C51.4295 54.8281 51.1587 53.6937 51.1972 52.5487C51.1582 51.5544 51.3436 50.564 51.7399 49.6504C52.1362 48.7369 52.7333 47.9235 53.4872 47.2702C55.1439 45.891 57.2585 45.1781 59.416 45.2713C61.8385 45.2562 64.2135 45.9396 66.2545 47.239L65.2193 49.5503C63.5763 48.837 61.8044 48.465 60.012 48.4571C58.8835 48.3943 57.77 48.738 56.8751 49.4254C56.5024 49.7412 56.2028 50.1337 55.9971 50.5758C55.7913 51.0179 55.6841 51.4992 55.683 51.9865C55.683 53.5794 56.8123 54.9537 58.82 56.1094C60.8276 57.265 64.6233 59.2327 64.6233 59.2327C65.6187 59.8035 66.4376 60.6354 66.9908 61.6378C67.5439 62.6402 67.8101 63.7746 67.7602 64.9172" fill="black"/>
<path fill-rule="evenodd" clip-rule="evenodd" d="M113.585 36.776C111.453 36.6331 109.315 36.9418 107.312 37.6818C106.841 37.9004 106.057 37.9004 105.994 38.4939C105.931 39.0873 106.276 39.181 106.496 39.5558C106.966 40.2867 107.536 40.9489 108.19 41.5236C108.88 42.0545 109.57 42.5543 110.292 43.0228C111.546 43.8036 112.989 44.2409 114.244 45.0217L116.377 46.5522C116.754 46.8021 116.973 47.2393 117.412 47.3955C117.193 47.0832 117.13 46.6771 116.911 46.3336C116.691 45.99 116.252 45.7401 115.938 45.3965C114.96 44.2042 113.819 43.153 112.55 42.2732C111.484 41.5548 109.225 40.5553 108.786 39.3684C109.555 39.2693 110.312 39.0914 111.045 38.8374C112.142 38.5563 113.146 38.6188 114.181 38.3377L115.719 37.8692V37.307C115.154 36.7136 114.715 35.9327 114.119 35.4017C112.43 33.9284 110.626 32.5915 108.723 31.4038C107.719 30.7479 106.402 30.3419 105.335 29.7796C104.959 29.5922 104.3 29.4985 104.081 29.155C103.533 28.3781 103.08 27.5394 102.732 26.6563C101.791 24.8759 100.881 22.9082 100.065 21.0029C99.5814 19.7442 99.0263 18.5137 98.4027 17.3174C95.404 12.2175 91.066 8.02777 85.8551 5.19864C84.5371 4.5519 83.1317 4.09948 81.683 3.85559H79.2362C78.6947 3.48738 78.1809 3.08025 77.6991 2.63747C75.8483 1.45059 71.0488 -1.07935 69.6999 2.26267C68.8216 4.38656 70.9861 6.448 71.7389 7.50994C72.3778 8.26138 72.9351 9.078 73.4015 9.94618C73.6211 10.5084 73.7152 11.1018 73.9348 11.664C74.401 13.1575 74.9669 14.6184 75.6287 16.0368C75.9841 16.727 76.3822 17.3946 76.8207 18.0357C77.1031 18.3793 77.5422 18.5355 77.6363 19.1289C77.2924 19.9096 77.0398 20.727 76.8835 21.5652C75.7376 25.1797 76.076 29.0989 77.8245 32.4657C78.3578 33.2778 79.6126 35.0582 81.2752 34.371C82.9377 33.6839 82.4044 31.9348 82.8122 30.3419C82.8122 29.9358 82.8122 29.6859 83.0632 29.4048C83.5024 30.3106 83.9729 31.1852 84.3807 32.0909C85.5468 33.757 86.977 35.2233 88.6155 36.4324C89.3998 37.0259 90.0272 38.0254 90.9996 38.3689C90.8114 38.0878 90.4977 37.9629 90.2467 37.713C89.6243 37.12 89.0573 36.4718 88.5528 35.7765C87.1722 33.9163 85.9548 31.9413 84.914 29.8733C84.3807 28.8739 83.9415 27.7494 83.5024 26.75C83.3142 26.3752 83.3142 25.7817 82.9691 25.5943C82.3798 26.2664 81.8645 26.9993 81.432 27.7807C80.8992 29.3647 80.593 31.0154 80.5223 32.6844C80.3654 32.6844 80.5223 32.6844 80.3655 32.6844C79.3303 32.4345 78.9852 31.3726 78.5774 30.4668C77.5711 27.6735 77.4724 24.636 78.2951 21.7838C78.5147 21.1279 79.4871 18.9727 79.1107 18.3168C78.7343 17.6609 78.2637 17.3486 77.8873 16.8801C77.4398 16.2176 77.0514 15.5174 76.7266 14.7874C75.9424 12.9759 75.566 10.9769 74.719 9.1341C74.2343 8.26441 73.6893 7.42948 73.0878 6.6354C72.397 5.86262 71.7971 5.0138 71.2997 4.10546C71.1115 3.76189 70.892 3.16845 71.1429 2.79364C71.1711 2.68356 71.2304 2.58384 71.3138 2.50633C71.3972 2.42881 71.5012 2.37677 71.6134 2.35637C72.0526 2.01279 73.2446 2.35637 73.6524 2.66871C74.7594 3.08367 75.8125 3.62892 76.7894 4.29286C77.2599 4.6052 77.7304 5.22988 78.3265 5.38605H79.0166C80.0518 5.60468 81.2438 5.38604 82.1535 5.72962C83.7996 6.28223 85.3698 7.03771 86.8275 7.97845C91.1384 10.7171 94.6449 14.5425 96.9911 19.0665C97.3989 19.8161 97.5558 20.5032 97.9008 21.284C98.591 22.877 99.4379 24.4074 100.128 26.0628C100.744 27.5883 101.522 29.0437 102.449 30.4043C102.92 31.0602 104.896 31.435 105.775 31.7786C106.653 32.1222 107.437 32.3408 108.002 32.6844C109.131 33.3715 110.229 34.1524 111.139 34.902C111.672 35.308 113.303 36.0889 113.397 36.7448" fill="black"/>
<path fill-rule="evenodd" clip-rule="evenodd" d="M80.3463 8.60273C79.9023 8.59897 79.4596 8.65145 79.0288 8.75889C79.3385 9.23253 79.6846 9.68155 80.064 10.1019C80.3463 10.6016 80.5659 11.1326 80.8169 11.6323C81.0637 11.4446 81.2571 11.1961 81.3781 10.9113C81.4991 10.6265 81.5435 10.3153 81.507 10.0082C81.3698 9.79646 81.2441 9.57751 81.1306 9.35232C80.911 9.00875 80.5032 8.85259 80.2208 8.60273" fill="black"/>
<path d="M116.698 72.6323H117.357V69.3218H116.353L115.537 71.5705L114.627 69.3218H113.655V72.6323H114.282V70.1338L115.223 72.6323H115.725L116.666 70.1338L116.698 72.6323ZM111.24 72.6323H111.961V69.8839H112.902V69.3218H110.267V69.8839H111.24V72.6323Z" fill="black"/>
</svg>
