<svg width="118" height="118" viewBox="0 0 118 118" fill="none" xmlns="http://www.w3.org/2000/svg">
<path d="M58.9116 4.38794C66.3319 4.38794 73.5452 5.83124 80.3098 8.68347C83.5541 10.058 86.6948 11.7419 89.6629 13.735C92.562 15.6938 95.3231 17.9275 97.808 20.436C100.293 22.9103 102.571 25.625 104.538 28.546C106.54 31.4669 108.231 34.5941 109.612 37.8587C112.476 44.5941 113.926 51.7762 113.926 59.1645C113.926 66.5528 112.476 73.7349 109.612 80.4703C108.231 83.7005 106.54 86.8277 104.538 89.783C102.571 92.6696 100.327 95.4187 97.808 97.8929C95.3231 100.367 92.5965 102.635 89.6629 104.594C86.7293 106.587 83.5886 108.271 80.3098 109.645C73.5452 112.498 66.3319 113.941 58.9116 113.941C51.4912 113.941 44.278 112.498 37.5134 109.645C34.2691 108.271 31.1284 106.587 28.1602 104.594C25.2611 102.635 22.5001 100.402 20.0152 97.8929C17.5302 95.4187 15.2523 92.704 13.2851 89.783C11.2833 86.862 9.59218 83.7349 8.21165 80.4703C5.34705 73.7349 3.89749 66.5528 3.89749 59.1645C3.89749 51.7762 5.34705 44.5941 8.21165 37.8587C9.59218 34.6284 11.2833 31.5013 13.2851 28.546C15.2523 25.6594 17.4957 22.9103 20.0152 20.436C22.5001 17.9618 25.2266 15.6938 28.1602 13.735C31.0939 11.7419 34.2346 10.058 37.5134 8.68347C44.278 5.83124 51.4912 4.38794 58.9116 4.38794ZM58.9116 0.882812C26.6072 0.882812 0.411621 26.9652 0.411621 59.1301C0.411621 91.295 26.6072 117.377 58.9116 117.377C91.216 117.377 117.412 91.295 117.412 59.1301C117.412 26.9652 91.216 0.882812 58.9116 0.882812Z" fill="#21759B"/>
<path d="M10.1499 59.1302C10.1499 78.3398 21.3668 94.9376 37.6225 102.807L14.3605 39.3709C11.6685 45.4189 10.1499 52.0856 10.1499 59.1302ZM91.8084 56.6904C91.8084 50.6767 89.634 46.553 87.8048 43.2884C85.3199 39.3021 83.0075 35.9001 83.0075 31.9139C83.0075 27.4465 86.3898 23.2884 91.1871 23.2884C91.3942 23.2884 91.6013 23.3228 91.8084 23.3228C83.1456 15.4191 71.5835 10.5737 58.8827 10.5737C41.8676 10.5737 26.8543 19.2679 18.157 32.4637C19.2959 32.4981 20.3659 32.5324 21.2977 32.5324C26.4057 32.5324 34.2747 31.9139 34.2747 31.9139C36.8978 31.7764 37.2083 35.5908 34.5853 35.9001C34.5853 35.9001 31.9278 36.2094 28.9942 36.3468L46.734 88.9239L57.3987 57.0684L49.8057 36.3468C47.1827 36.2094 44.6977 35.9001 44.6977 35.9001C42.0747 35.7626 42.3853 31.7421 45.0083 31.9139C45.0083 31.9139 53.0499 32.5324 57.8473 32.5324C62.9552 32.5324 70.8243 31.9139 70.8243 31.9139C73.4473 31.7764 73.7579 35.5908 71.1349 35.9001C71.1349 35.9001 68.4774 36.2094 65.5437 36.3468L83.1455 88.5115L88.1845 72.6353C90.4969 65.7281 91.8084 60.8141 91.8084 56.6904V56.6904ZM59.78 63.357L45.1464 105.659C49.5296 106.931 54.1199 107.652 58.9172 107.652C64.5774 107.652 70.0305 106.69 75.1039 104.903C74.9659 104.697 74.8624 104.491 74.7588 104.25L59.78 63.357ZM101.679 35.8313C101.886 37.3777 101.99 39.0272 101.99 40.8141C101.99 45.7282 101.058 51.2609 98.2969 58.2024L83.4216 101.054C97.9172 92.6352 107.65 76.9996 107.65 59.0959C107.65 50.6767 105.51 42.7385 101.679 35.8313V35.8313Z" fill="#21759B"/>
</svg>
