<svg width="104" height="118" viewBox="0 0 104 118" fill="none" xmlns="http://www.w3.org/2000/svg">
<path d="M51.9043 49.4219C46.5199 49.4219 42.1543 53.7686 42.1543 59.1296C42.1543 64.4907 46.5199 68.8374 51.9043 68.8374C57.2896 68.8374 61.6543 64.4907 61.6543 59.1296C61.6486 53.7705 57.2868 49.4285 51.9043 49.4219ZM51.9043 64.9543C48.6737 64.9543 46.0543 62.3463 46.0543 59.1296C46.0543 55.913 48.6737 53.305 51.9043 53.305C55.1359 53.305 57.7543 55.913 57.7543 59.1296C57.7543 62.3463 55.1359 64.9543 51.9043 64.9543Z" fill="#61DBFB"/>
<path d="M85.8444 59.1296C88.7751 56.6629 91.5602 54.0292 94.1862 51.2429C102.526 42.2612 105.43 34.9159 102.583 30.006C98.488 22.9526 84.7323 24.2609 68.8867 29.8685C65.8351 13.4021 60.0927 0.882324 51.9137 0.882324C43.7357 0.882324 37.9933 13.4021 34.9493 29.8704C19.1036 24.2628 5.34225 22.9545 1.25278 30.006C-1.59415 34.9159 1.3099 42.2612 9.64977 51.2429C12.2739 54.0292 15.0561 56.6619 17.9839 59.1296C15.0532 61.5964 12.2682 64.2301 9.64215 67.0163C1.308 75.998 -1.59605 83.3434 1.25087 88.2533C3.20087 91.6198 7.357 93.0816 12.8909 93.0816C20.45 92.7129 27.8996 91.1277 34.9493 88.387C37.9933 104.857 43.7357 117.377 51.9137 117.377C60.0927 117.377 65.8351 104.857 68.8791 88.3889C75.9288 91.1277 83.3774 92.7129 90.9356 93.0816C96.4676 93.0816 100.623 91.6179 102.576 88.2533C105.423 83.3434 102.518 75.998 94.1786 67.0163C91.5545 64.2301 88.7723 61.5974 85.8444 59.1296ZM99.2059 31.9476C101.031 35.0969 98.0843 41.3255 91.3241 48.6064C88.6466 51.443 85.8016 54.1164 82.8023 56.6136C79.2023 53.7306 75.2813 50.8722 71.0728 48.103C70.7672 43.1875 70.254 38.3449 69.5437 33.7356C85.2589 28.1184 96.717 27.6757 99.1993 31.9476H99.2059ZM59.7137 72.5813C57.0696 74.0982 54.4702 75.5098 51.9137 76.8171C49.361 75.5126 46.7607 74.1001 44.1137 72.5813C41.5029 71.0796 38.9835 69.5248 36.5289 67.9483C36.3861 65.1023 36.3137 62.1624 36.3137 59.1296C36.3137 56.0969 36.3861 53.157 36.5289 50.311C38.9835 48.7344 41.5029 47.1796 44.1137 45.678C46.7559 44.1602 49.3562 42.7485 51.9137 41.444C54.4683 42.7523 57.0734 44.1621 59.7137 45.678C62.3254 47.1796 64.8448 48.7344 67.2995 50.311C67.4423 53.157 67.5137 56.0969 67.5137 59.1296C67.5137 62.1624 67.4423 65.1023 67.2995 67.9483C64.8448 69.5248 62.3254 71.0796 59.7137 72.5813ZM66.9938 72.7539C66.7091 76.4057 66.3149 79.8717 65.8236 83.1273C62.7463 81.9176 59.5328 80.524 56.2117 78.9417C58.0446 77.9709 59.866 76.9745 61.658 75.9459C63.4499 74.9163 65.2504 73.8356 66.9938 72.7539ZM47.6109 78.9341C44.2956 80.5145 41.0764 81.91 37.999 83.1197C37.5134 79.8641 37.1192 76.3981 36.8288 72.7463C38.5722 73.827 40.3489 74.8907 42.158 75.9383C43.9566 76.9745 45.7771 77.9633 47.6109 78.9341ZM32.5251 65.29C29.5573 63.2669 26.7551 61.2134 24.1167 59.1296C26.7484 57.0496 29.5506 54.9934 32.5251 52.9617C32.4547 55.019 32.4137 57.079 32.4137 59.1296C32.4137 61.1802 32.4547 63.2403 32.5251 65.2976V65.29ZM36.8345 45.4978C37.1192 41.8479 37.5134 38.3838 38.0047 35.1301C41.0783 36.3379 44.288 37.7334 47.6043 39.3119C45.7743 40.2798 43.9623 41.2781 42.1704 42.3058C40.3527 43.3543 38.5741 44.4209 36.8345 45.5054V45.4978ZM56.2222 39.3252C59.5366 37.7448 62.7539 36.3512 65.8293 35.1415C66.3149 38.397 66.7091 41.8631 66.9995 45.5149C65.2523 44.4266 63.4737 43.3591 61.6637 42.3134C59.8737 41.2848 58.0551 40.296 56.2222 39.3252ZM71.3032 52.9712C74.2711 54.9924 77.0732 57.0459 79.7117 59.1296C77.0799 61.2087 74.2777 63.265 71.3032 65.2976C71.3727 63.2403 71.4137 61.1802 71.4137 59.1296C71.4137 57.079 71.3727 55.019 71.3032 52.9617V52.9712ZM51.9137 4.76548C56.8773 4.76548 62.2178 14.8753 65.1838 31.2384C60.8201 32.9297 56.3488 34.9102 51.9242 37.1068C47.49 34.9102 43.0159 32.9297 38.6636 31.2384C41.6105 14.8772 46.9511 4.76548 51.9137 4.76548ZM12.511 48.6064C5.74977 41.3255 2.80383 35.0969 4.62909 31.9476C5.73073 30.0486 8.59669 29.0798 12.8185 29.0798C20.1815 29.4656 27.433 31.0393 34.2904 33.7393C33.5801 38.3411 33.0678 43.1818 32.7613 48.0955C28.5528 50.8647 24.6318 53.7258 21.0317 56.606C18.0334 54.1117 15.1875 51.4401 12.511 48.6064ZM4.62909 86.3117C2.80383 83.1623 5.74977 76.9338 12.511 69.6528C15.1875 66.8163 18.0325 64.1429 21.0317 61.6457C24.6318 64.5287 28.5528 67.387 32.7613 70.1562C33.0678 75.0718 33.5801 79.9144 34.2904 84.5237C18.5695 90.1408 7.11134 90.5836 4.62909 86.3117ZM51.9137 113.494C46.9511 113.494 41.6124 103.384 38.6541 87.0228C43.0159 85.3315 47.49 83.351 51.9242 81.1554C56.3583 83.351 60.8315 85.3315 65.1933 87.0228C62.2159 103.384 56.8773 113.494 51.9137 113.494ZM99.1993 86.3117C96.7189 90.5836 85.2532 90.1408 69.538 84.518C70.2483 79.9144 70.7605 75.0718 71.0671 70.1496C75.2756 67.3813 79.1965 64.5192 82.7966 61.64C85.7959 64.1362 88.6409 66.8106 91.3174 69.6471C98.0786 76.9338 101.025 83.1623 99.1993 86.3117Z" fill="#61DBFB"/>
</svg>
